<svg width="36" height="35" viewBox="0 0 36 35" fill="none" xmlns="http://www.w3.org/2000/svg">
<path d="M4.22774 23.1584C3.79621 23.1771 3.36467 23.1895 2.93314 23.2206C2.07006 23.2829 1.44465 23.0153 1.14445 22.0195C0.975588 21.4719 1.00686 20.9242 1.05689 20.3828C1.08816 20.0218 1.40712 19.8165 1.73859 19.6795C2.45157 19.3933 3.15829 19.1008 3.83373 18.7336C4.27152 18.4971 4.5342 18.1486 4.65303 17.6632C4.85941 16.7857 4.64052 16.2505 3.85875 15.7775C3.42096 15.5161 2.93939 15.3481 2.45782 15.1925C1.89495 15.012 1.38211 14.7507 1.07566 14.2092C1.03813 14.147 0.994351 14.0972 0.981843 14.0101C0.881776 13.2633 1.06315 12.5538 1.41963 11.9315C1.62602 11.5705 2.07006 11.3776 2.52036 11.3652C3.15829 11.3403 3.77745 11.4523 4.40912 11.5394C5.45356 11.6825 6.56054 11.3838 6.81071 10.1703C6.94204 9.52305 6.67312 8.95672 6.32288 8.44018C6.04145 8.02322 5.69747 7.63737 5.39102 7.23285C4.84065 6.50472 4.85316 6.01308 5.43479 5.29739C5.6662 5.01112 5.91011 4.74352 6.20405 4.51947C6.79194 4.07139 7.36733 4.07762 7.91769 4.57548C8.49933 5.09825 9.17478 5.47787 9.84397 5.86372C11.051 6.56073 12.3832 5.63968 12.3206 4.35767C12.2956 3.81001 12.183 3.28725 12.0767 2.75827C12.0142 2.42843 12.0017 2.09237 12.0579 1.76876C12.1205 1.38913 12.3269 1.07796 12.6834 0.88504C13.29 0.561426 13.9404 0.412067 14.6284 0.393397C15.1162 0.380951 15.4289 0.648554 15.6103 1.0593C15.8167 1.51982 15.9855 1.99902 16.1732 2.472C16.3045 2.80183 16.4483 3.11922 16.6547 3.41172C17.4302 4.51325 18.7624 4.49458 19.5316 3.3806C19.8443 2.92008 20.0195 2.39109 20.2384 1.887C20.3947 1.52605 20.5261 1.14642 20.7387 0.81036C21.0451 0.337386 21.4392 0.206696 21.9708 0.412067C22.271 0.524087 22.5774 0.623661 22.8901 0.692118C24.1284 0.959722 24.2097 1.42025 24.0722 2.52801C23.9971 3.17523 23.8595 3.81001 23.8908 4.46969C23.9658 5.83883 25.2104 6.56073 26.4612 5.96329C27.0929 5.66457 27.5807 5.17293 28.1186 4.75596C28.1874 4.69995 28.2562 4.64394 28.325 4.59416C29.0505 4.09629 29.3507 4.0465 29.9886 4.72485C30.2825 5.03601 30.6077 5.32851 30.9079 5.63968C31.3332 6.06287 31.3707 6.46116 30.9892 6.93414C30.4264 7.62493 29.9636 8.37172 29.5195 9.1372C29.0379 9.95868 29.1192 10.6495 29.7384 11.166C30.295 11.6328 30.9517 11.695 31.6334 11.6079C32.2213 11.5394 32.8092 11.39 33.3971 11.39C33.9662 11.39 34.4791 11.5892 34.7167 12.2115C34.9544 12.8276 35.1045 13.4624 35.0232 14.1159C34.9731 14.5079 34.798 14.8813 34.3602 15.0183C33.5222 15.2796 32.7467 15.6655 32.0274 16.1758C31.821 16.3189 31.6209 16.4621 31.452 16.6674C30.9455 17.2773 31.0393 17.7565 31.5021 18.2171C32.1463 18.8581 32.8655 19.4368 33.7911 19.6733C34.6979 19.9098 35.0607 20.5135 34.8918 21.5528C34.8168 22.0258 34.6792 22.4987 34.454 22.9281C34.1976 23.426 33.8912 23.5069 33.3345 23.3887C32.3777 23.1833 31.402 23.0713 30.4326 23.2517C29.5445 23.4136 28.9879 24.3408 29.2193 25.181C29.3757 25.7535 29.7322 26.2016 30.1199 26.6559C30.5702 27.1787 31.0705 27.7014 31.0956 28.4794C31.1018 28.7221 30.958 28.8341 30.8642 28.9959C30.5827 29.4875 30.1887 29.8672 29.7009 30.1534C29.1443 30.4708 28.6127 30.4522 28.1248 30.0476C27.7246 29.7178 27.293 29.4315 26.8615 29.1515C26.4112 28.8652 25.9609 28.5789 25.4043 28.5354C24.8477 28.4918 24.4036 28.7221 24.0847 29.1577C23.4905 29.9792 23.5593 30.8816 23.797 31.7964C23.8845 32.1262 23.9658 32.4561 23.9658 32.8046C23.9658 33.2962 23.7344 33.6261 23.3029 33.8501C22.8401 34.0866 22.3335 34.2111 21.8394 34.3604C21.2328 34.5409 20.6449 34.2048 20.3697 33.5825C20.2634 33.3398 20.1946 33.0846 20.0945 32.8419C19.7943 32.1138 19.4316 31.423 18.8562 30.8629C18.2996 30.3339 17.6491 30.3339 17.0738 30.8442C16.5672 31.2985 16.2607 31.8835 15.9543 32.4685C15.7104 32.9353 15.5102 33.4331 15.11 33.8065C14.4345 34.4351 13.8028 34.3853 13.0836 34.1364C12.8897 34.0679 12.7021 33.9559 12.5207 33.8501C11.9641 33.5265 11.8641 33.3087 11.9704 32.6801C12.0079 32.4685 12.0579 32.2694 11.9954 32.0391C11.9579 31.896 12.1455 31.7217 12.1455 31.5288C12.1455 31.0745 12.1893 30.6202 12.1455 30.1721C12.0767 29.4191 11.7515 28.7968 10.976 28.5789C10.2755 28.3798 9.63758 28.5914 9.08722 29.0519C8.63066 29.4315 8.15535 29.7987 7.63 30.0788C6.7169 30.5704 6.06646 30.2157 5.44105 29.5311C5.24092 29.3133 5.09082 29.0519 4.95323 28.7905C4.69681 28.3238 4.78436 27.9068 5.12834 27.5023C5.77877 26.743 6.29161 25.8967 6.67312 24.9756C7.00459 24.1728 6.41044 23.3264 5.54112 23.2517C5.32222 23.2331 5.11583 23.1584 4.89068 23.1708C4.67179 23.1895 4.44664 23.1708 4.22149 23.1708L4.22774 23.1584ZM18.0056 11.3589C15.4602 11.3589 12.9148 11.3589 10.3693 11.3589C9.86273 11.3589 9.76892 11.4523 9.76892 11.9564C9.76892 14.9934 9.76892 18.0366 9.76892 21.0736C9.76892 21.6959 9.85648 21.7893 10.4756 21.7893C15.4915 21.7893 20.501 21.7893 25.5169 21.7893C26.0672 21.7893 26.2361 21.6088 26.2361 21.0549C26.2361 19.6858 26.2361 18.3166 26.2361 16.9413C26.2361 15.2921 26.2361 13.6491 26.2361 11.9999C26.2361 11.5083 26.0985 11.3589 25.6482 11.3589C23.1028 11.3589 20.5573 11.3589 18.0119 11.3589H18.0056ZM26.3424 9.70975C26.2486 9.59773 26.2173 9.55416 26.1798 9.51682C23.2216 6.59185 19.6755 5.49032 15.5915 6.28691C13.4464 6.70387 11.6139 7.79918 10.0566 9.33012C9.9628 9.42347 9.8127 9.53549 9.85648 9.64751C9.90651 9.7782 10.0941 9.70975 10.2192 9.70975C14.8098 9.70975 19.3941 9.70975 23.9846 9.70975C24.7476 9.70975 25.5106 9.70975 26.3487 9.70975H26.3424ZM27.6558 23.37C27.4494 23.4509 27.2743 23.4384 27.0992 23.4384C25.1854 23.4384 23.2779 23.4384 21.3641 23.4384C20.7637 23.4384 20.1633 23.4322 19.5629 23.4384C19.244 23.4384 19.0688 23.6065 19.0563 23.9239C19.0376 24.3657 19.0376 24.8076 19.0876 25.2494C19.1814 26.0585 19.4691 26.3572 20.2759 26.4319C21.239 26.519 22.2084 26.4817 23.1716 26.4941C23.4342 26.4941 23.7032 26.519 23.8533 26.7555C23.9909 26.9733 24.1159 26.9173 24.2785 26.8115C25.2292 26.2203 26.036 25.4673 26.7677 24.6271C27.0929 24.2537 27.4056 23.8679 27.6433 23.37H27.6558ZM12.4645 23.4384C11.2511 23.4384 10.0441 23.4384 8.8308 23.4384C8.50558 23.4384 8.47431 23.482 8.64943 23.7683C8.9809 24.3222 9.41243 24.7951 9.86273 25.2557C10.4256 25.822 11.001 26.3696 11.6952 26.7804C11.8015 26.8426 11.9141 26.9546 12.0329 26.7866C12.2205 26.5252 12.502 26.4879 12.8022 26.4879C13.7653 26.4754 14.7347 26.463 15.6979 26.4194C16.4046 26.3883 16.7235 26.0709 16.8549 25.3801C16.9237 25.0067 16.9174 24.6333 16.8924 24.2599C16.8549 23.6003 16.6735 23.4384 15.998 23.4384C14.8223 23.4384 13.6465 23.4384 12.4645 23.4384ZM27.8809 22.9281L27.9872 22.9468C29.2006 20.7873 29.6571 18.466 29.3757 16.0016C29.2068 14.5266 28.4 12.3111 27.8872 11.919V22.9344L27.8809 22.9281ZM8.09906 12.168C6.36041 13.6865 6.34165 20.7997 8.03027 22.6107C8.1491 19.1381 8.0803 15.6842 8.09906 12.168ZM21.1327 28.1869C20.8137 28.0935 20.5323 27.9753 20.401 27.6579C20.2509 27.2969 19.9632 27.1476 19.5879 27.1413C18.5185 27.1413 17.4553 27.1413 16.3858 27.1413C15.9605 27.1413 15.6291 27.3405 15.4477 27.7201C15.3226 27.9877 15.1537 28.1557 14.8473 28.1806C16.9487 28.8154 19.0376 28.8092 21.1327 28.1806V28.1869Z" fill="#3F75B7"/>
<path d="M24.0343 16.1882C23.4715 16.1882 23.2401 15.9517 23.2463 15.404C23.2526 14.8999 23.5277 14.6199 24.0218 14.6199C24.4909 14.6199 24.7848 14.9248 24.7786 15.4165C24.7723 15.9081 24.4971 16.1882 24.0343 16.1882ZM24.0218 14.8937C23.7279 14.8937 23.5653 15.0617 23.559 15.3791C23.5528 15.7214 23.7091 15.8894 24.0156 15.8894C24.2907 15.8894 24.4659 15.7027 24.4721 15.3978C24.4784 15.0991 24.3033 14.8999 24.0156 14.8999L24.0218 14.8937Z" fill="#3F75B7"/>
<path d="M20.5818 15.4227C20.5818 15.8894 20.2441 16.1944 19.7188 16.1944C19.306 16.1944 18.9933 15.877 18.987 15.4476C18.987 14.9373 19.2685 14.6199 19.7375 14.6199C20.2504 14.6199 20.5818 14.9373 20.5881 15.4227H20.5818ZM19.8001 15.8957C20.0502 15.8957 20.2816 15.6778 20.2941 15.4165C20.3067 15.1675 20.0502 14.9061 19.7938 14.8937C19.5186 14.8875 19.2935 15.1053 19.2935 15.3916C19.2935 15.6654 19.5186 15.8894 19.7938 15.8894L19.8001 15.8957Z" fill="#3F75B7"/>
<path d="M12.7212 15.4354C12.7087 15.927 12.3647 16.2133 11.8019 16.1946C11.4016 16.1822 11.0889 15.7465 11.1076 15.23C11.1202 14.9562 11.5892 14.5641 11.9019 14.5641C12.3397 14.5641 12.7337 14.9873 12.7212 15.4354ZM11.9645 15.8959C12.2334 15.8959 12.4523 15.6532 12.4398 15.3731C12.4273 15.1242 12.2021 14.9188 11.9269 14.9188C11.633 14.9188 11.4266 15.1304 11.4391 15.4229C11.4516 15.6967 11.6768 15.9021 11.9645 15.8959Z" fill="#3F75B7"/>
<path d="M16.8114 19.5864C17.2679 19.5989 17.5056 19.8727 17.4993 20.3706C17.4931 20.9307 17.1241 21.1423 16.5737 21.1049C16.2172 21.08 15.9671 20.7626 15.9796 20.3208C15.9921 19.8042 16.2548 19.574 16.8176 19.5927L16.8114 19.5864ZM17.1866 20.3332C17.1866 20.047 17.0303 19.8665 16.7551 19.854C16.4862 19.8416 16.286 20.0221 16.2735 20.2897C16.261 20.6008 16.4236 20.7875 16.7113 20.7938C17.0178 20.8 17.1804 20.6444 17.1866 20.3332Z" fill="#3F75B7"/>
<path d="M11.1009 17.8562C11.0571 17.2899 11.4324 17.1094 11.8389 17.0907C12.3017 17.0658 12.6269 17.4205 12.6332 17.906C12.6332 18.3478 12.3017 18.6714 11.8514 18.6652C11.3135 18.6652 11.1009 18.435 11.1009 17.8562ZM12.308 17.8562C12.308 17.5512 12.1391 17.3957 11.8326 17.4081C11.5512 17.4143 11.3636 17.6135 11.3761 17.8997C11.3823 18.186 11.5762 18.3603 11.8702 18.3478C12.1641 18.3416 12.3142 18.1736 12.3142 17.8562H12.308Z" fill="#3F75B7"/>
<path d="M16.6673 16.1882C16.2421 16.1882 15.9669 15.8584 15.9731 15.3729C15.9794 14.8875 16.2671 14.6075 16.7486 14.6199C17.1927 14.6261 17.5367 14.9622 17.4929 15.4103C17.4491 15.9081 17.3115 16.1944 16.6673 16.1944V16.1882ZM16.7361 14.8937C16.4359 14.9 16.2733 15.0929 16.2858 15.4165C16.2983 15.7526 16.4359 15.8957 16.7361 15.8895C17.0301 15.8895 17.2052 15.709 17.1989 15.4165C17.1989 15.0929 17.0113 14.8875 16.7361 14.8937Z" fill="#3F75B7"/>
<path d="M23.9974 19.5864C24.4915 19.5864 24.7791 19.8727 24.7729 20.3581C24.7729 20.8249 24.479 21.0987 23.9911 21.0987C23.5221 21.0987 23.2406 20.8062 23.2406 20.3332C23.2406 19.8229 23.4845 19.5864 23.9911 19.5864H23.9974ZM24.0161 19.854C23.741 19.854 23.5596 20.0283 23.5533 20.3021C23.5533 20.6195 23.7034 20.7875 23.9974 20.7938C24.2851 20.7938 24.4539 20.6382 24.4602 20.3581C24.4602 20.0532 24.2913 19.8603 24.0099 19.854H24.0161Z" fill="#3F75B7"/>
<path d="M17.3238 18.6592C16.8609 18.6592 16.6233 18.3916 16.6295 17.8751C16.6295 17.3461 16.9485 17.0785 17.5364 17.0847C17.8804 17.0847 18.1806 17.483 18.1743 17.9186C18.1681 18.3916 17.8491 18.6654 17.3238 18.6592ZM17.3738 17.4021C17.0798 17.4021 16.9047 17.5888 16.9047 17.8751C16.9047 18.1676 17.1549 18.3916 17.4426 18.3792C17.699 18.3667 17.9116 18.1302 17.8991 17.8688C17.8929 17.595 17.6677 17.3959 17.3675 17.4021H17.3738Z" fill="#3F75B7"/>
<path d="M19.7067 17.9061C19.7067 17.4082 19.9756 17.0908 20.4072 17.0846C20.92 17.0846 21.239 17.3895 21.239 17.8874C21.239 18.323 20.895 18.6467 20.4134 18.6467C19.9944 18.6467 19.6567 18.3853 19.713 17.9061H19.7067ZM20.9575 17.8563C20.9575 17.5825 20.7511 17.3958 20.4572 17.402C20.1507 17.402 19.9756 17.5825 19.9756 17.875C19.9756 18.1737 20.1945 18.3728 20.4885 18.3666C20.7511 18.3542 20.9638 18.1363 20.9575 17.8625V17.8563Z" fill="#3F75B7"/>
<path d="M14.703 17.85C14.703 17.3895 15.0283 17.0597 15.4786 17.0908C15.9851 17.1281 16.2666 17.4019 16.2853 17.9185C16.3041 18.3977 15.81 18.6715 15.4223 18.6591C14.9907 18.6466 14.6968 18.3168 14.703 17.85ZM15.0095 17.8438C14.997 18.1612 15.1596 18.3541 15.466 18.379C15.7412 18.3977 15.9726 18.1861 15.9914 17.8998C16.0102 17.6011 15.835 17.4206 15.5036 17.4019C15.1909 17.3895 15.022 17.5389 15.0095 17.8376V17.8438Z" fill="#3F75B7"/>
<path d="M14.6975 12.8587C14.6662 12.3546 15.0602 12.1306 15.5105 12.1493C15.9796 12.1742 16.3048 12.4729 16.2923 12.9085C16.2798 13.4002 15.9295 13.7238 15.4292 13.7051C14.9851 13.6864 14.6849 13.3442 14.6975 12.8587ZM15.9921 12.921C15.9921 12.6534 15.7544 12.4293 15.473 12.4231C15.204 12.4231 14.9664 12.6596 14.9664 12.9334C14.9664 13.1886 15.1978 13.4002 15.473 13.4064C15.7607 13.4064 15.9921 13.1948 15.9921 12.921Z" fill="#3F75B7"/>
<path d="M24.5975 13.6863C24.1784 13.705 23.9158 13.4436 23.897 12.9893C23.8782 12.4666 24.1096 12.1803 24.5662 12.1616C25.1353 12.1367 25.4293 12.367 25.4418 12.8586C25.4605 13.425 25.2229 13.6614 24.5975 13.6926V13.6863ZM24.685 13.4125C24.9602 13.4125 25.1791 13.2071 25.1791 12.9458C25.1791 12.6595 24.9664 12.4354 24.6913 12.4292C24.4098 12.4292 24.1784 12.647 24.1784 12.9146C24.1784 13.1885 24.4098 13.4125 24.6913 13.4125H24.685Z" fill="#3F75B7"/>
<path d="M25.4609 17.8935C25.4484 18.3541 25.0919 18.6839 24.6103 18.6652C24.2101 18.6466 23.8348 18.2545 23.8411 17.8562C23.8536 17.3957 24.2038 17.0658 24.6729 17.0845C25.1357 17.0969 25.4672 17.4454 25.4547 17.8935H25.4609ZM24.6729 17.4019C24.3477 17.4019 24.1663 17.5699 24.1725 17.8811C24.1725 18.1611 24.404 18.379 24.6854 18.379C24.9543 18.379 25.1795 18.1362 25.1732 17.8562C25.1732 17.5761 24.9793 17.4081 24.6729 17.4081V17.4019Z" fill="#3F75B7"/>
<path d="M11.8449 21.1109C11.3633 21.0985 11.1507 20.8557 11.1569 20.3143C11.1569 19.8227 11.4321 19.5862 11.97 19.5924C12.4641 19.5986 12.7267 19.8849 12.708 20.4014C12.6955 20.8371 12.3515 21.1171 11.8449 21.1047V21.1109ZM11.9199 20.7997C12.2389 20.7997 12.439 20.613 12.4328 20.333C12.4265 20.0716 12.2139 19.8662 11.9387 19.86C11.651 19.8538 11.4321 20.0654 11.4321 20.3517C11.4321 20.6442 11.6072 20.806 11.9199 20.806V20.7997Z" fill="#3F75B7"/>
<path d="M17.3552 13.6927C16.8611 13.6803 16.6235 13.4127 16.636 12.8775C16.6485 12.4045 16.9299 12.1431 17.424 12.1556C17.8368 12.1618 18.2308 12.5414 18.2246 12.9335C18.2183 13.3629 17.8243 13.7052 17.3552 13.6927ZM17.4178 13.4127C17.6929 13.4065 17.9056 13.1949 17.9118 12.9335C17.9118 12.6534 17.6867 12.4294 17.4053 12.4294C17.1113 12.4294 16.8924 12.6659 16.9049 12.9646C16.9174 13.2384 17.1238 13.4189 17.4178 13.4127Z" fill="#3F75B7"/>
<path d="M11.833 13.6928C11.3389 13.6928 11.1013 13.4439 11.1013 12.9211C11.1013 12.4295 11.3515 12.1619 11.8143 12.1556C12.3146 12.1556 12.6336 12.4481 12.6273 12.9522C12.6273 13.4376 12.4022 13.6679 11.833 13.6928ZM12.3083 12.9522C12.3083 12.6099 12.1457 12.4232 11.858 12.4295C11.5891 12.4295 11.3827 12.6411 11.3765 12.9149C11.364 13.2074 11.5704 13.4065 11.8768 13.4128C12.1708 13.4128 12.3083 13.2634 12.3083 12.9585V12.9522Z" fill="#3F75B7"/>
<path d="M19.8315 19.5801C20.2818 19.5801 20.5758 19.8788 20.5758 20.3269C20.5758 20.8123 20.2505 21.1421 19.7565 21.111C19.3374 21.0861 19.006 20.8808 19.0185 20.3269C19.031 19.8477 19.3124 19.5801 19.8315 19.5863V19.5801ZM19.7752 20.7999C20.0942 20.7999 20.2881 20.6256 20.2881 20.3269C20.2881 20.0593 20.0754 19.8539 19.8002 19.8539C19.5 19.8539 19.2937 20.053 19.2999 20.3393C19.2999 20.638 19.4688 20.7936 19.7815 20.7936L19.7752 20.7999Z" fill="#3F75B7"/>
<path d="M19.7007 12.9087C19.707 12.3859 19.9446 12.1556 20.4762 12.1619C20.9078 12.1619 21.258 12.4917 21.233 12.9024C21.1954 13.4377 20.8827 13.7115 20.4199 13.7053C19.9571 13.699 19.6944 13.4065 19.7007 12.9087ZM20.914 12.89C20.914 12.5975 20.7577 12.4357 20.4762 12.4295C20.201 12.4295 19.9759 12.6473 19.9759 12.9273C19.9759 13.2261 20.1698 13.419 20.4762 13.4128C20.7764 13.4128 20.9203 13.2385 20.9203 12.89H20.914Z" fill="#3F75B7"/>
<path d="M15.7044 20.3706C15.7044 20.5262 15.6981 20.6755 15.7044 20.8311C15.7169 20.9991 15.6293 21.08 15.4855 21.0987C15.3291 21.1174 15.2541 20.9867 15.2666 20.8684C15.3041 20.5262 15.2916 20.1963 15.2541 19.8603C15.2416 19.7233 15.3229 19.5989 15.4917 19.5989C15.6668 19.5989 15.7044 19.7233 15.6981 19.8727C15.6981 20.0345 15.6981 20.2025 15.6981 20.3643L15.7044 20.3706Z" fill="#3F75B7"/>
<path d="M21.5145 17.8439C21.5145 17.6572 21.5145 17.4704 21.5145 17.2837C21.5145 17.1593 21.577 17.0535 21.6833 17.0348C21.7771 17.0224 21.8522 17.1282 21.8647 17.234C21.9147 17.6509 21.9022 18.0617 21.871 18.4786C21.8647 18.5782 21.7834 18.6591 21.6646 18.6529C21.527 18.6467 21.527 18.5346 21.5207 18.4351C21.5207 18.2359 21.5207 18.043 21.5207 17.8439H21.5145Z" fill="#3F75B7"/>
<path d="M15.3041 15.3668C15.3041 15.1926 15.3103 15.0183 15.3041 14.8378C15.2978 14.6636 15.4229 14.6387 15.5417 14.6325C15.6668 14.62 15.7044 14.7258 15.7044 14.8316C15.7044 15.1926 15.7106 15.5535 15.7106 15.9145C15.7106 16.0576 15.6481 16.1447 15.4917 16.1447C15.3166 16.1447 15.3103 16.0203 15.3103 15.8958C15.3103 15.7216 15.3103 15.5473 15.3103 15.3668H15.3041Z" fill="#3F75B7"/>
<path d="M12.902 17.8999C12.902 17.7256 12.902 17.5452 12.902 17.3709C12.902 17.2464 12.9396 17.1531 13.0834 17.1406C13.2273 17.1282 13.2836 17.2215 13.2836 17.346C13.2898 17.7007 13.2961 18.0493 13.2898 18.404C13.2898 18.5409 13.2022 18.6467 13.0647 18.6342C12.9396 18.628 12.8833 18.5222 12.8895 18.3915C12.8895 18.2235 12.8895 18.0617 12.8895 17.8937C12.8895 17.8937 12.8958 17.8937 12.902 17.8937V17.8999Z" fill="#3F75B7"/>
<path d="M21.5142 12.9336C21.5142 12.7344 21.5142 12.5353 21.5142 12.3423C21.5142 12.2303 21.5767 12.1556 21.7018 12.1556C21.8144 12.1556 21.8644 12.2428 21.8644 12.3237C21.8769 12.7095 21.8832 13.0891 21.8707 13.475C21.8707 13.5932 21.7769 13.6804 21.6455 13.6741C21.5079 13.6741 21.5017 13.5559 21.5017 13.4563C21.5017 13.2821 21.5017 13.1016 21.5017 12.9273L21.5142 12.9336Z" fill="#3F75B7"/>
<path d="M25.2664 21.254C24.9662 20.7499 25.0037 20.2521 25.1038 19.7417C25.1226 19.6422 25.1788 19.5862 25.2852 19.5924C25.3852 19.5986 25.4165 19.6795 25.4228 19.7542C25.4478 20.2458 25.5103 20.7499 25.2664 21.254Z" fill="#3F75B7"/>
<path d="M25.4419 15.4166C25.4419 15.5908 25.4419 15.7713 25.4419 15.9456C25.4419 16.1012 25.3418 16.1509 25.2042 16.1572C25.0166 16.1696 25.0979 16.014 25.0979 15.9518C25.0854 15.5908 25.0792 15.2237 25.0979 14.8627C25.0979 14.7943 24.9478 14.6324 25.1792 14.6262C25.3418 14.6262 25.4356 14.6947 25.4356 14.8565C25.4356 15.0432 25.4356 15.2299 25.4356 15.4166H25.4419Z" fill="#3F75B7"/>
<path d="M14.9785 14.6326C15.1223 15.1429 15.1786 15.6283 14.9472 16.1573C14.7158 15.815 14.8034 15.4727 14.7784 15.1429C14.7533 14.8379 14.7408 14.8379 14.9847 14.6326H14.9785Z" fill="#3F75B7"/>
<path d="M22.8029 14.6387C22.9405 14.8565 22.953 15.0681 22.9655 15.2735C22.978 15.4788 22.9655 15.6904 22.9655 15.8958C22.9655 15.9767 23.0155 16.0825 22.8967 16.1198C22.7466 16.1572 22.7403 16.014 22.7216 15.9393C22.6027 15.5162 22.5965 15.093 22.8091 14.6449L22.8029 14.6387Z" fill="#3F75B7"/>
<path d="M10.6447 18.7585C10.4258 18.354 10.5259 17.9619 10.3945 17.6072C10.3695 17.5325 10.5133 17.3085 10.5946 17.296C10.7698 17.2774 10.751 17.4765 10.7573 17.5947C10.776 17.9619 10.7885 18.3353 10.6384 18.7585H10.6447Z" fill="#3F75B7"/>
<path d="M17.9553 16.0017C17.8302 15.5785 17.7239 15.1491 17.8489 14.7072C17.8677 14.6388 17.899 14.5765 17.9678 14.5765C18.0366 14.5765 18.0991 14.6325 18.0928 14.701C18.0678 15.1304 18.1804 15.5785 17.949 16.0017H17.9553Z" fill="#3F75B7"/>
<path d="M13.5841 12.2677C13.8656 12.5851 13.7655 12.9647 13.7592 13.3319C13.7592 13.3755 13.7217 13.4128 13.7155 13.4564C13.7029 13.5559 13.8405 13.7302 13.6342 13.724C13.5028 13.724 13.5341 13.5373 13.5278 13.419C13.5091 13.0394 13.4841 12.6598 13.5904 12.2739L13.5841 12.2677Z" fill="#3F75B7"/>
<path d="M22.3837 15.4787C22.3462 15.653 22.3149 15.8272 22.2649 15.989C22.2524 16.0388 22.2461 16.1384 22.1523 16.1197C22.0898 16.1073 22.0397 16.045 22.046 15.9703C22.0835 15.6467 22.046 15.3231 22.046 14.9995C22.046 14.9186 22.0835 14.875 22.1523 14.8501C22.2524 14.819 22.2524 14.9186 22.2649 14.9684C22.3149 15.1364 22.3462 15.3045 22.3837 15.4787Z" fill="#3F75B7"/>
<path d="M22.2897 18.7586C22.0646 18.2172 22.0458 17.7566 22.2397 17.2277C22.4961 17.7504 22.4023 18.211 22.2897 18.7586Z" fill="#3F75B7"/>
<path d="M22.7212 12.2489C23.0589 12.6783 23.0589 13.4562 22.7399 13.7425C22.6961 13.2509 22.7024 12.7779 22.7212 12.2489Z" fill="#3F75B7"/>
<path d="M19.2881 13.73C19.0567 13.6242 19.1193 13.4375 19.113 13.2819C19.1005 13.0392 19.113 12.7965 19.113 12.56C19.113 12.4729 19.0942 12.3484 19.1943 12.3359C19.3257 12.3173 19.3382 12.4666 19.3444 12.5475C19.3819 12.9396 19.4007 13.3379 19.2756 13.73H19.2881Z" fill="#3F75B7"/>
<path d="M18.5183 18.0741C18.4995 17.8563 18.5433 17.6758 18.4682 17.5078C18.4245 17.4144 18.4495 17.3335 18.5558 17.2962C18.6746 17.2526 18.7184 17.3397 18.7434 17.4206C18.8185 17.7318 18.806 18.0492 18.7434 18.3666C18.7246 18.435 18.6934 18.5346 18.5933 18.4973C18.512 18.4662 18.4682 18.3977 18.512 18.2857C18.5433 18.211 18.5308 18.1114 18.5308 18.0741H18.5183Z" fill="#3F75B7"/>
<path d="M18.6562 12.2676C18.825 12.6908 18.8438 13.0579 18.7187 13.4376C18.7 13.4998 18.6812 13.5683 18.5874 13.5434C18.5186 13.5247 18.4435 13.4936 18.4623 13.4189C18.5561 13.0953 18.4748 12.7654 18.5374 12.4418C18.5436 12.392 18.5936 12.3547 18.6562 12.2614V12.2676Z" fill="#3F75B7"/>
<path d="M23.4155 13.5496C23.1403 13.17 23.3217 12.753 23.2591 12.3734C23.2529 12.3112 23.3029 12.3049 23.3467 12.3049C23.4217 12.3049 23.478 12.3236 23.4905 12.4045C23.5468 12.7841 23.6156 13.17 23.4092 13.5496H23.4155Z" fill="#3F75B7"/>
<path d="M13.1956 14.7629C13.3645 15.1612 13.3207 15.5284 13.2644 15.8894C13.2582 15.9454 13.2644 16.0761 13.1456 16.045C13.0706 16.0263 12.9705 15.9703 12.9955 15.8582C13.0581 15.5782 13.0893 15.3106 12.9955 15.0305C12.9517 14.9123 13.1394 14.8936 13.1956 14.7629Z" fill="#3F75B7"/>
<path d="M13.0644 13.5247C12.908 13.1202 12.8267 12.7219 13.0581 12.2614C13.3145 12.7157 13.2332 13.1202 13.0644 13.5247Z" fill="#3F75B7"/>
<path d="M14.2967 14.7134C14.5781 15.1303 14.5093 15.5784 14.3967 16.1136C14.084 15.6095 14.2904 15.1552 14.2967 14.7134Z" fill="#3F75B7"/>
<path d="M14.3465 19.7793C14.5654 20.1963 14.5279 20.6319 14.409 21.1111C14.0901 20.6506 14.2277 20.2149 14.3465 19.7793Z" fill="#3F75B7"/>
<path d="M22.246 12.1807C22.4524 12.691 22.4524 13.1079 22.2647 13.5871C22.0521 13.1204 22.0646 12.6972 22.246 12.1807Z" fill="#3F75B7"/>
<path d="M23.3902 17.3024C23.6341 17.7007 23.5716 18.099 23.4277 18.5657C23.1588 18.1052 23.3089 17.7007 23.3902 17.3024Z" fill="#3F75B7"/>
<path d="M14.241 13.5807C14.0096 13.1699 14.1347 12.7716 14.1159 12.3858C14.1159 12.3049 14.1784 12.2613 14.2472 12.2676C14.2973 12.2676 14.3535 12.3173 14.3535 12.3796C14.341 12.7654 14.4599 13.1637 14.241 13.5807Z" fill="#3F75B7"/>
<path d="M10.6193 12.2053C10.8194 12.641 10.8007 13.0144 10.7068 13.3878C10.6943 13.45 10.7068 13.5371 10.6068 13.5309C10.538 13.5247 10.5067 13.4624 10.5067 13.3815C10.5067 13.0081 10.4442 12.6347 10.613 12.2053H10.6193Z" fill="#3F75B7"/>
<path d="M21.583 14.7319C21.877 15.1862 21.8207 15.597 21.6143 16.0948C21.4454 15.6032 21.483 15.1987 21.583 14.7319Z" fill="#3F75B7"/>
<path d="M22.1645 19.6547C22.4522 20.1463 22.3459 20.5508 22.227 21.0362C21.9581 20.557 22.1145 20.1525 22.1645 19.6547Z" fill="#3F75B7"/>
<path d="M21.5829 19.5864C21.7768 20.0096 21.833 20.439 21.6204 20.9493C21.439 20.439 21.5203 20.0096 21.5829 19.5864Z" fill="#3F75B7"/>
<path d="M13.7654 14.7195C13.9718 15.1302 13.878 15.5098 13.8905 15.877C13.8905 15.9393 13.8405 16.0077 13.7654 16.0015C13.6904 16.0015 13.7091 15.9206 13.6966 15.8708C13.6153 15.4974 13.5778 15.1302 13.7654 14.7195Z" fill="#3F75B7"/>
<path d="M14.1969 17.2959C14.4471 17.6506 14.4283 18.2792 14.1219 18.6277C14.1219 18.1485 14.0468 17.7253 14.1969 17.2959Z" fill="#3F75B7"/>
<path d="M14.8914 19.7292C15.1603 20.0591 15.1603 20.5943 14.8976 20.9179C14.7475 20.5258 14.76 20.1462 14.8914 19.7292Z" fill="#3F75B7"/>
<path d="M22.8335 18.5033C22.6771 18.0926 22.6584 17.6881 22.8335 17.2898C23.0086 17.6943 23.0274 18.0988 22.8335 18.5033Z" fill="#3F75B7"/>
<path d="M21.0455 14.7195C21.2019 15.1862 21.2206 15.5845 21.0706 15.9953C20.8579 15.8148 20.8329 15.2111 21.0455 14.7195Z" fill="#3F75B7"/>
<path d="M17.9497 19.7168C18.2186 20.1587 18.0748 20.557 17.9997 20.9739C17.7933 20.7312 17.7683 20.1275 17.9497 19.7168Z" fill="#3F75B7"/>
<path d="M19.2502 17.2216C19.4003 17.651 19.4128 17.9995 19.3128 18.3604C19.3003 18.4164 19.2753 18.4662 19.2127 18.4787C19.1564 18.4911 19.1252 18.4476 19.1252 18.4102C19.1252 18.0368 19.0251 17.6572 19.2502 17.2278V17.2216Z" fill="#3F75B7"/>
<path d="M18.5687 19.7292C18.6938 20.1462 18.6437 20.5445 18.625 20.9615C18.331 20.6503 18.2997 20.0778 18.5687 19.7292Z" fill="#3F75B7"/>
<path d="M21.02 20.9865C20.8574 20.5695 20.9199 20.221 20.9325 19.8788C20.9325 19.829 20.97 19.7979 21.02 19.7979C21.1263 19.7979 21.1451 19.8912 21.1514 19.9597C21.1764 20.2708 21.2201 20.5944 21.02 20.9803V20.9865Z" fill="#3F75B7"/>
<path d="M13.8025 21.0053C13.5899 20.5323 13.6024 20.1402 13.7588 19.661C13.9839 20.134 13.9089 20.5323 13.8025 21.0053Z" fill="#3F75B7"/>
<path d="M22.8716 21.0175C22.5651 20.6192 22.6089 20.2022 22.809 19.6732C22.9841 20.1773 22.8716 20.6005 22.8716 21.0175Z" fill="#3F75B7"/>
<path d="M10.6693 14.7507C10.932 15.1739 10.7944 15.5847 10.7443 15.9892C10.5379 15.8336 10.4942 15.1988 10.6693 14.7507Z" fill="#3F75B7"/>
<path d="M13.6716 17.2277C13.828 17.6633 13.7717 18.0491 13.7216 18.4786C13.4464 18.1549 13.4277 17.7629 13.6716 17.2277Z" fill="#3F75B7"/>
<path d="M10.6448 21.0426C10.5448 20.5634 10.5135 20.1838 10.6761 19.7357C10.8637 20.1838 10.8825 20.5634 10.6448 21.0426Z" fill="#3F75B7"/>
<path d="M13.1773 19.7231C13.3775 20.165 13.34 20.526 13.1961 20.9367C13.0085 20.5446 13.0022 20.2148 13.1773 19.7231Z" fill="#3F75B7"/>
<path d="M18.5813 15.9519C18.3311 15.5785 18.3749 15.1802 18.3936 14.7757C18.3936 14.7135 18.4374 14.6637 18.4937 14.6637C18.5875 14.6637 18.5813 14.7508 18.5813 14.8131C18.5813 15.1927 18.5813 15.5723 18.5813 15.9519Z" fill="#3F75B7"/>
</svg>
