<svg width="36" height="35" viewBox="0 0 36 35" fill="none" xmlns="http://www.w3.org/2000/svg">
<path d="M0.967004 13.3478C1.08552 13.273 1.07928 13.1546 1.11047 13.0361C1.40989 11.8329 1.95258 11.2158 3.33113 11.3841C3.88006 11.4527 4.42274 11.596 4.97791 11.5586C5.46446 11.5275 5.97596 11.5399 6.35022 11.1347C6.99272 10.4427 7.04886 9.75697 6.58726 8.82809C6.3128 8.27948 5.88863 7.83686 5.51436 7.36307C5.20247 6.97655 5.01534 6.57133 5.08395 6.0539C5.12762 5.7609 5.2898 5.53647 5.45822 5.34321C5.77635 4.96916 6.10695 4.59511 6.53112 4.32705C6.90539 4.09015 7.47927 4.20236 7.91591 4.55771C8.56464 5.08761 9.26951 5.54893 10.0056 5.94792C10.567 6.25339 11.5026 6.20352 11.9954 5.48036C12.2761 5.06891 12.3447 4.60758 12.3073 4.10262C12.2512 3.38569 12.0266 2.68124 12.0703 1.95185C12.1077 1.34714 12.4882 0.929449 13.0496 0.711255C13.636 0.486827 14.2286 0.468124 14.8336 0.443188C15.1393 0.430719 15.3327 0.580338 15.4824 0.792298C15.7506 1.19128 15.9128 1.64637 16.0687 2.09523C16.287 2.73735 16.549 3.37323 17.048 3.82832C17.9276 4.63252 19.1939 4.16496 19.6492 3.22984C19.9985 2.50668 20.2605 1.74612 20.6098 1.02296C20.9342 0.349676 21.1962 0.218759 21.8761 0.380846C22.3564 0.499294 22.818 0.67385 23.2983 0.798532C23.7225 0.910747 24.0531 1.17258 24.1404 1.59027C24.2028 1.8895 24.1404 2.22615 24.1092 2.53785C24.0281 3.21737 23.8597 3.89066 23.9221 4.57641C23.9907 5.26217 24.2964 5.80453 24.9701 6.06013C25.6375 6.31573 26.2613 6.15988 26.8227 5.7609C27.3529 5.37438 27.8519 4.95046 28.3697 4.54524C28.9061 4.12755 29.3116 4.12755 29.8043 4.57018C30.1973 4.92552 30.5716 5.31204 30.9521 5.68609C31.3825 6.11001 31.3201 6.65861 30.871 7.12617C30.1849 7.84309 29.7295 8.71587 29.3365 9.60112C28.9186 10.5425 29.717 11.5399 30.8461 11.6147C31.4574 11.6584 32.0624 11.5649 32.6613 11.4589C33.0293 11.3903 33.3911 11.3903 33.7529 11.4215C34.2145 11.4651 34.5076 11.7706 34.6948 12.1696C34.9942 12.8304 35.1002 13.5286 35.0191 14.2393C34.9568 14.7505 34.5825 15.0373 34.1209 15.1557C33.3599 15.349 32.7299 15.7604 32.0874 16.1719C31.8441 16.3277 31.6195 16.5023 31.4324 16.733C31.0457 17.213 31.0145 17.6868 31.4324 18.1419C32.0624 18.8276 32.7985 19.3887 33.7154 19.6755C34.0648 19.7814 34.3891 19.9248 34.6386 20.2178C35.0379 20.6729 34.9006 21.2028 34.8694 21.7016C34.8445 22.0881 34.6885 22.4683 34.5326 22.8362C34.2831 23.4409 33.9462 23.5469 33.3038 23.4222C32.3618 23.2414 31.395 23.1229 30.4406 23.31C29.4737 23.497 28.9498 24.5007 29.2866 25.4296C29.5112 26.0467 29.9665 26.5081 30.372 27.0068C30.5279 27.1938 30.6714 27.3871 30.8149 27.5866C31.2203 28.1601 31.1455 28.7399 30.7837 29.2823C30.6277 29.5191 30.3845 29.7436 30.1287 29.8745C29.7607 30.0677 29.4987 30.4854 28.9997 30.4293C28.6067 30.3857 28.2698 30.2859 27.9704 29.9929C27.671 29.6999 27.3155 29.4568 26.9162 29.276C26.5794 29.1264 26.3049 28.8334 25.9431 28.7149C24.8952 28.3658 24.0094 28.9207 23.7599 29.9431C23.6788 30.2672 23.604 30.5852 23.6601 30.8969C23.735 31.2959 23.7287 31.7073 23.9283 32.0876C24.2215 32.6424 23.9408 33.5963 23.3857 33.883C22.8492 34.1573 22.2816 34.3818 21.6703 34.4067C20.9591 34.4379 20.5724 34.1573 20.3167 33.4778C20.0297 32.7048 19.7054 31.9505 19.1939 31.2959C18.8445 30.8532 18.4827 30.4543 17.8278 30.5415C17.6718 30.5665 17.5408 30.6164 17.4036 30.6974C16.5615 31.2086 16.1935 32.0814 15.813 32.898C15.5884 33.3781 15.2578 33.7209 14.9272 34.095C14.7713 34.2695 14.528 34.2945 14.3221 34.3257C13.505 34.4316 12.7627 34.2508 12.1701 33.6274C12.0329 33.484 11.983 33.3095 11.9642 33.1162C11.9331 32.7547 11.9954 32.3993 12.0765 32.0502C12.2387 31.3146 12.1888 30.5727 12.1763 29.8309C12.1763 29.7186 12.0578 29.6064 11.9954 29.4942C11.4403 28.478 10.5795 28.3596 9.85587 28.69C9.20714 28.983 8.60831 29.4069 8.07809 29.9057C7.6165 30.3421 6.71202 30.4792 6.15685 30.18C6.00715 30.0989 5.9011 29.9493 5.77635 29.8246C5.47693 29.5316 5.21494 29.2074 5.01534 28.8396C4.76582 28.3845 4.81573 27.9606 5.15257 27.5866C5.77635 26.8883 6.20052 26.0592 6.6434 25.2488C7.16114 24.295 6.44379 23.285 5.35841 23.2227C4.41651 23.1728 3.48084 23.285 2.54517 23.2476C1.95258 23.2227 1.54712 22.9421 1.33503 22.3873C1.10424 21.7888 1.03562 21.1654 1.09176 20.5295C1.12919 20.1119 1.41613 19.85 1.79663 19.7253C2.48279 19.5009 3.10657 19.1393 3.76154 18.8463C3.89877 18.784 4.02976 18.6905 4.15452 18.6032C5.09643 17.9673 5.04652 16.5335 4.07343 15.9163C3.56193 15.5921 3.00676 15.3926 2.44536 15.1931C1.93386 15.0123 1.4286 14.8004 1.16038 14.2705C1.09176 14.1396 1.11047 13.9588 0.954529 13.8715V13.3416L0.967004 13.3478ZM29.4613 16.7704C29.3365 16.8202 29.3303 16.8888 29.3053 16.9449C28.8437 18.0982 27.5587 18.3788 26.6667 17.5309C26.5357 17.4062 26.4047 17.2878 26.2613 17.188C25.5502 16.6956 24.733 16.7579 24.1654 17.3938C23.6352 17.9922 22.9927 18.1356 22.2441 18.0234C21.926 17.9735 21.6016 17.9673 21.2835 18.0234C20.5599 18.1606 20.1482 18.6655 19.8114 19.264C19.119 20.4859 18.2894 21.6205 17.5034 22.7801C17.179 23.2601 16.7798 23.3848 16.3369 23.179C15.9065 22.9796 15.7069 22.5245 15.8254 22.007C15.9751 21.3275 16.1311 20.6542 16.2746 19.9747C16.3993 19.3825 16.2496 19.1892 15.657 19.1892C15.5572 19.1892 15.4574 19.1892 15.3576 19.1892C15.0644 19.1892 14.8835 19.0458 14.79 18.7777C14.6195 18.2998 14.2743 18.0608 13.7545 18.0608C13.6672 18.0608 13.5798 18.0608 13.4863 18.0608C12.8562 18.0982 12.3572 17.8364 11.9268 17.4C11.2968 16.7704 10.3736 16.7205 9.68121 17.2753C9.5315 17.3938 9.40675 17.5309 9.25704 17.6494C8.55217 18.2229 7.59155 18.1232 7.00519 17.4312C6.94905 17.3626 6.91786 17.2379 6.73073 17.3003C6.91163 21.4148 8.44612 24.8311 12.0703 27.0006C16.1935 29.4693 20.4102 29.3633 24.4274 26.7387C27.9767 24.4259 29.5236 20.9909 29.4675 16.7641L29.4613 16.7704ZM29.2679 15.7791C28.9685 13.5473 28.064 11.596 26.5669 9.93776C24.2839 7.41917 21.427 6.0726 18.0087 6.04766C15.0208 6.02273 12.4134 7.10747 10.28 9.15849C8.50227 10.8666 7.36699 12.98 6.95529 15.455C7.11747 15.4612 7.16114 15.3427 7.24223 15.2742C7.87225 14.7443 8.83911 14.7692 9.33189 15.3864C9.71864 15.8726 10.174 16.0721 10.7728 15.9973C11.5276 15.9038 12.1327 16.1657 12.6067 16.7641C12.8438 17.0696 13.1744 17.213 13.5674 17.188C13.9541 17.1631 14.3408 17.1444 14.7276 17.1132C14.9771 17.0945 15.133 16.9636 15.2017 16.7205C15.5447 15.5235 16.0812 14.3889 16.4555 13.2044C16.68 12.4875 17.179 12.1259 17.859 11.9451C18.2519 11.8392 18.6512 11.8329 19.0441 11.8828C19.774 11.9701 20.1358 12.5249 19.9549 13.2356C19.9174 13.3852 19.8675 13.5286 19.8176 13.6782C19.6492 14.2144 19.487 14.7567 19.2999 15.2804C19.1876 15.5921 19.3248 15.6607 19.5806 15.6607C19.8114 15.6607 20.0484 15.6482 20.2792 15.6607C21.0839 15.7168 21.4457 15.9849 21.3833 16.7641C21.3833 16.7891 21.3833 16.8078 21.3833 16.8327C21.3584 17.0571 21.4644 17.1257 21.6765 17.1195C21.9759 17.1132 22.2753 17.1195 22.5747 17.1319C22.9864 17.1506 23.2983 17.001 23.5478 16.6706C23.9221 16.1781 24.4274 15.9475 25.0511 15.9786C25.2071 15.9849 25.363 15.9786 25.519 15.9911C26.0055 16.0347 26.4047 15.8602 26.6543 15.455C27.1159 14.7131 28.4071 14.7817 28.8812 15.3303C29.0059 15.4799 29.1369 15.6233 29.2679 15.7667V15.7791ZM16.7923 21.8512C16.9607 21.7826 17.0231 21.6704 17.0917 21.5769C18.1958 20.1368 19.1814 18.6157 20.2106 17.1257C20.2543 17.0634 20.2855 16.9886 20.3167 16.92C20.4227 16.6956 20.3666 16.5958 20.1046 16.602C19.5619 16.6145 19.0192 16.6145 18.4765 16.6145C18.0461 16.6145 17.9213 16.4711 18.0773 16.0597C18.3767 15.2866 18.62 14.4949 18.8445 13.7032C18.9132 13.46 19.2438 13.2044 18.9568 12.9613C18.7447 12.7805 18.4204 12.7743 18.1334 12.7618C17.8465 12.7493 17.6157 12.8678 17.4972 13.1483C16.8235 14.7754 16.2371 16.4462 15.6258 18.0982C15.5635 18.2728 15.6134 18.3351 15.8005 18.3289C16.1997 18.3227 16.5989 18.3289 16.9981 18.3289C17.4036 18.3289 17.5096 18.466 17.4223 18.865C17.2165 19.8438 17.0044 20.8225 16.7923 21.8512ZM27.8457 17.1319C28.2199 17.1319 28.4944 16.8576 28.5006 16.4836C28.5006 16.1158 28.17 15.7978 27.7895 15.8103C27.4153 15.8228 27.1658 16.0908 27.1782 16.4836C27.1907 16.895 27.4402 17.1382 27.8457 17.1319ZM8.87653 16.4961C8.87653 16.0721 8.63326 15.8041 8.25275 15.8103C7.85977 15.8165 7.61026 16.0659 7.61026 16.4524C7.61026 16.8763 7.8473 17.1257 8.24652 17.1319C8.6395 17.1319 8.87653 16.9013 8.87653 16.4961Z" fill="#3F75B7"/>
<path d="M17.9715 25.369C14.2438 25.388 10.9013 22.5829 10.1992 18.8449C10.1744 18.7243 10.1557 18.6037 10.1309 18.4831C10.0874 18.2547 9.97556 17.9945 10.2241 17.8358C10.4974 17.6645 10.8081 17.6518 11.1125 17.8041C11.2616 17.8802 11.361 18.0199 11.4729 18.1468C11.8953 18.6608 12.4048 18.9908 13.082 19.0035C13.169 19.0035 13.2559 19.0035 13.3429 18.9718C13.6349 18.8766 13.8586 18.9718 14.0077 19.251C14.0947 19.4224 14.2065 19.5557 14.3991 19.6382C15.0701 19.9301 15.2441 20.2982 15.1012 21.0344C15.0204 21.4469 14.8651 21.8531 14.8651 22.2846C14.8651 23.1604 15.3186 23.8522 16.0579 24.1187C16.7848 24.3789 17.5552 24.1441 18.0958 23.4841C18.2821 23.2493 18.4561 23.0018 18.6176 22.7479C19.301 21.7007 19.9845 20.6536 20.6492 19.5874C20.9288 19.1368 21.2705 18.8893 21.8172 18.9401C22.19 18.9782 22.569 18.9337 22.9418 18.9591C23.6003 19.0035 24.0911 18.7243 24.4826 18.2102C24.7559 17.8548 25.0852 17.6581 25.5449 17.7343C25.868 17.785 25.9736 17.912 25.9177 18.2356C25.5822 20.038 24.9112 21.6754 23.6252 23.0018C22.3329 24.3408 20.7673 25.1087 18.9345 25.3182C18.7729 25.3372 18.6176 25.4007 18.4499 25.3816C18.2946 25.3689 18.1392 25.3816 17.9839 25.3816L17.9715 25.369Z" fill="#3F75B7"/>
<path d="M18.3012 10.9696C17.9679 10.9313 17.6532 10.9823 17.3384 11.0334C16.7645 11.1228 16.3633 11.474 16.1226 12.0103C15.7153 12.9105 15.419 13.8554 15.0611 14.7748C14.9253 15.1195 14.8142 15.4771 14.6599 15.8091C14.4007 16.3837 13.9316 16.5178 13.4194 16.173C13.1849 16.0134 12.9565 15.8282 12.7282 15.6622C12.2961 15.3494 11.8209 15.1642 11.2902 15.177C11.247 15.177 11.2038 15.177 11.1606 15.177C10.7285 15.1259 10.673 15.0557 10.8088 14.6279C11.3642 12.8403 12.5307 11.5506 14.018 10.561C15.4622 9.59689 17.0422 9.21382 18.7703 9.37981C21.5969 9.64797 24.405 11.5123 25.5036 14.7365C25.5221 14.7875 25.5283 14.845 25.553 14.8961C25.664 15.1579 25.5406 15.1898 25.3308 15.1579C25.0345 15.1068 24.7445 15.1132 24.4482 15.1515C23.8064 15.2281 23.325 15.5601 22.9362 16.0708C22.6461 16.4475 22.4486 16.4348 22.2511 15.9815C21.9919 15.3749 21.566 14.9919 20.9427 14.8642C20.6341 14.8003 20.56 14.6471 20.6403 14.3342C20.7452 13.9129 20.8254 13.4787 20.8871 13.0382C21.0476 11.8315 20.6094 11.193 19.443 11.0462C19.0665 11.0015 18.6839 10.9249 18.3136 10.976L18.3012 10.9696Z" fill="#3F75B7"/>
</svg>
