<svg width="36" height="35" viewBox="0 0 36 35" fill="none" xmlns="http://www.w3.org/2000/svg">
<path d="M21.9339 0.324359C22.303 0.492954 22.716 0.536664 23.0789 0.723992C23.7484 1.06118 24.0737 1.56072 24.0174 2.32252C23.9673 3.08432 23.9486 3.85236 23.9173 4.61416C23.8672 5.91296 25.1812 6.48744 26.1572 6.01912C26.7454 5.73188 27.2397 5.33849 27.7215 4.92013C28.5161 4.23326 29.5109 4.1396 30.2555 4.99506C30.462 5.23234 30.6747 5.46338 30.8436 5.72564C31.144 6.18771 31.1127 6.64354 30.8061 7.0744C30.5058 7.48652 30.1867 7.8799 29.8738 8.28578C29.5735 8.67292 29.3357 9.08504 29.2043 9.56585C29.0729 10.0467 29.2607 10.4338 29.4859 10.8397C30.0052 11.7513 30.8687 11.7139 31.7133 11.6077C32.3453 11.5265 32.9585 11.3892 33.6029 11.3704C34.0972 11.358 34.579 11.8138 34.6666 12.2571C34.7479 12.713 34.8856 13.1501 34.9857 13.5996C35.1546 14.3365 34.9794 14.7486 34.2787 15.0296C33.7781 15.2356 33.2588 15.3855 32.7457 15.5728C32.314 15.7289 31.9136 15.9475 31.5945 16.2847C30.95 16.959 31.0063 18.0643 31.6758 18.6388C32.2264 19.1071 32.8584 19.4068 33.5278 19.6253C33.8219 19.719 34.1348 19.8252 34.3975 19.95C34.6103 20.05 34.8668 20.3559 34.8793 20.7056C34.8918 21.1302 34.8168 21.5361 34.6979 21.942C34.6291 22.1792 34.6228 22.4353 34.5352 22.6788C34.2849 23.3844 33.7656 23.5342 33.0711 23.3781C32.7833 23.3157 32.4955 23.247 32.2014 23.2283C31.6257 23.1908 31.0376 23.1908 30.4682 23.2158C30.0365 23.2345 29.6423 23.5218 29.3733 23.9089C28.9228 24.5521 29.0104 25.1952 29.3795 25.8321C29.6861 26.3566 30.1429 26.75 30.5183 27.2184C31.2128 28.0801 31.1565 28.7482 30.3493 29.51C30.1554 29.6911 29.9739 29.8909 29.78 30.072C29.367 30.4529 28.9728 30.5153 28.4723 30.2655C27.9843 30.022 27.5838 29.6411 27.1458 29.3227C26.639 28.9605 26.1447 28.5983 25.4878 28.5421C24.5868 28.4734 23.667 29.2477 23.5982 30.3342C23.5481 31.1522 23.7421 31.939 23.8923 32.732C24.0111 33.3502 23.7922 33.7498 23.179 33.9122C22.6659 34.0496 22.1654 34.2182 21.6586 34.3555C21.133 34.4929 20.7951 34.3743 20.5448 33.8997C20.282 33.4064 20.0568 32.8944 19.8065 32.3886C19.4999 31.7704 19.1683 31.171 18.624 30.7214C18.1172 30.303 17.6104 30.3093 17.1348 30.7651C16.4466 31.4145 15.9711 32.2075 15.6645 33.1004C15.4705 33.6749 15.2202 34.2556 14.5257 34.2993C13.6373 34.3555 12.7926 34.137 12.1669 33.4626C11.7977 33.0692 11.8791 32.5509 12.0042 32.0764C12.242 31.171 12.1919 30.278 11.8728 29.4038C11.5787 28.5983 10.9656 28.3236 10.1459 28.5983C9.36381 28.8606 8.63176 29.2165 8.02484 29.8035C7.91222 29.9096 7.78082 30.0033 7.64943 30.0845C7.14888 30.3967 6.65459 30.4466 6.13527 30.0845C5.72857 29.8035 5.37193 29.4788 5.09037 29.0729C4.67116 28.4734 4.68367 27.9677 5.16545 27.4119C5.69729 26.8062 6.06644 26.1006 6.47314 25.42C6.99246 24.5521 6.69213 23.6966 5.82868 23.2283C5.40321 22.9972 4.84635 23.0222 4.32703 23.1159C3.61375 23.2408 2.89421 23.3282 2.16841 23.1533C1.57401 23.0097 1.32999 22.5289 1.11726 22.0419C0.960838 21.6797 0.985865 21.2738 0.967094 20.8867C0.942067 20.3684 1.17357 20.0187 1.61781 19.7877C2.16841 19.5005 2.73153 19.2507 3.31968 19.0446C3.80146 18.876 4.20815 18.5638 4.47094 18.1517C4.95272 17.3899 4.71496 16.1098 3.67632 15.679C2.95678 15.3793 2.21847 15.1232 1.50519 14.811C1.21737 14.6861 0.985866 14.4364 0.960838 14.043C0.923297 13.3686 1.05469 12.7317 1.31748 12.1198C1.5615 11.5453 2.18093 11.2331 2.84415 11.3267C3.41979 11.4017 3.98916 11.5203 4.56479 11.5703C5.34065 11.6327 6.27918 11.4142 6.63582 10.4962C6.81101 10.0404 6.65459 8.92269 6.28543 8.47311C5.80991 7.8799 5.32188 7.2867 4.94021 6.61857C4.77127 6.32509 4.86512 5.75686 5.14043 5.51333C5.5221 5.17614 5.89125 4.82022 6.23538 4.43932C6.60453 4.03345 7.21145 4.01471 7.59312 4.37063C7.95602 4.70782 8.37523 4.96384 8.79444 5.21985C9.03846 5.36972 9.26996 5.57578 9.52024 5.73188C10.027 6.04409 10.5589 6.23142 11.1595 5.9879C11.9917 5.64446 12.4234 4.6766 12.2357 3.78992C12.0981 3.12178 11.9104 2.45365 11.9729 1.75429C11.998 1.45457 12.0793 1.2048 12.3609 1.04245C12.7175 0.836388 13.0491 0.580374 13.4808 0.536664C13.606 0.524176 13.7311 0.492954 13.7123 0.324359H14.7134C15.2515 0.536664 15.5769 0.948785 15.7583 1.47955C15.7896 1.57321 15.8146 1.66687 15.8522 1.76054C16.0712 2.35999 16.2714 2.97192 16.6718 3.48395C17.3288 4.32692 18.6427 4.68909 19.4061 3.35907C19.7377 2.77211 20.0756 2.19139 20.3258 1.56072C20.5323 1.04245 20.7576 0.549153 21.3207 0.318115H21.9213L21.9339 0.324359ZM23.0538 10.1591C23.0914 10.2902 23.1102 10.3714 23.1352 10.4588C23.2228 10.7897 23.2916 11.1269 23.4042 11.4454C23.4981 11.7139 23.7171 11.8637 24.0049 11.8138C24.299 11.7638 24.4992 11.6202 24.4929 11.2518C24.4929 10.9396 24.4178 10.6399 24.3928 10.3339C24.3866 10.2215 24.2614 10.0404 24.3866 10.0092C24.5492 9.96548 24.8621 9.99671 24.8996 10.0904C25.0248 10.3838 25.3126 10.5462 25.4064 10.8522C25.5441 11.2955 25.4565 11.7076 25.3001 12.1135C25.1249 12.5631 24.9872 13.0252 24.9121 13.506C24.8433 13.9431 24.762 14.3864 24.3991 14.7611C23.8297 15.3418 23.1414 15.6415 22.4094 15.8913C21.9714 16.0411 21.8212 16.1848 21.8212 16.6343C21.8212 16.9216 21.79 17.2088 21.8025 17.5023C21.84 18.5576 21.8212 19.6066 21.815 20.6619C21.815 20.9554 21.7336 21.2426 21.4521 21.3925C21.2143 21.5173 21.1455 21.7109 21.1518 21.9357C21.1518 23.6841 21.0892 25.4325 21.2268 27.1809C21.2456 27.3994 21.2957 27.618 21.3082 27.8365C21.3269 28.1175 21.4646 28.1487 21.7024 28.0613C22.7535 27.6679 23.7546 27.1746 24.6806 26.5315C26.4013 25.3263 27.6088 23.7091 28.4911 21.8296C28.9603 20.8242 29.1918 19.744 29.3483 18.645C29.4671 17.8208 29.4546 16.9903 29.3858 16.1723C29.3295 15.4792 29.0354 14.8048 28.8915 14.1117C28.8414 13.8744 28.7539 13.6433 28.6663 13.4186C27.5963 10.7085 25.738 8.6979 23.1915 7.29919C22.472 6.9058 21.7149 6.62481 20.914 6.44997C20.476 6.35631 20.0568 6.19396 19.6188 6.12527C18.7616 5.9879 17.8982 5.96292 17.0285 6.03785C15.4955 6.17522 14.0502 6.57486 12.705 7.31168C9.77051 8.92269 7.87468 11.3704 7.03 14.5987C6.64208 16.0911 6.55448 17.6209 6.81727 19.1633C7.20519 21.405 8.10618 23.3969 9.65788 25.0766C10.903 26.4316 12.4047 27.4057 14.1378 28.0239C14.3505 28.0988 14.4256 28.0301 14.4694 27.849C14.6008 27.287 14.7322 26.7251 14.7385 26.1506C14.7572 24.7394 14.7385 23.3344 14.751 21.9232C14.751 21.6859 14.6759 21.4924 14.4757 21.3925C14.1628 21.2364 14.119 20.9803 14.119 20.6744C14.1253 19.3006 14.119 17.9269 14.119 16.5469C14.119 16.4345 14.1128 16.3284 14.1003 16.216C14.094 16.1286 14.0314 16.0474 13.9501 16.0911C13.7436 16.191 13.4996 16.1286 13.2931 16.2722C12.4109 16.8904 12.292 17.3275 13.0554 18.0455C13.8312 18.7699 13.8562 19.3444 13.2306 20.2061C13.1805 20.2747 13.1492 20.3934 13.0366 20.3497C12.9553 20.3122 12.9553 20.2123 12.9365 20.1249C12.8677 19.7939 12.8051 19.4505 12.6925 19.132C12.5736 18.7824 12.3546 18.6825 12.0167 18.7574C11.7101 18.8261 11.5287 19.0571 11.5475 19.3881C11.5537 19.5442 11.6038 19.694 11.6288 19.8439C11.6726 20.1186 11.7852 20.3871 11.7101 20.7181C11.4286 20.5183 11.172 20.3497 10.9593 20.1249C10.6527 19.7939 10.5276 19.4255 10.6465 18.9697C10.8091 18.3515 11.0907 17.7708 11.1595 17.1276C11.2471 16.3346 11.6476 15.6977 12.3171 15.2918C13.4621 14.5987 14.7072 14.2241 16.0712 14.4114C16.2088 14.4301 16.334 14.4114 16.4654 14.3739C16.5404 14.3489 16.6406 14.3427 16.6406 14.2553C16.6406 14.1554 16.5467 14.1179 16.4591 14.0929C16.2651 14.0305 16.0649 14.0555 15.8647 14.043C15.7208 14.0367 15.6144 14.0118 15.5894 13.8307C15.5456 13.4123 15.3329 13.0501 15.0888 12.7317C14.8135 12.3633 14.776 11.9761 14.7885 11.5515C14.7948 11.3392 14.8824 11.1894 15.0826 11.1144C15.3266 11.027 15.4079 10.8459 15.4079 10.5962C15.4142 9.49092 15.4705 9.44097 16.5842 9.44097C16.9847 9.44097 17.3914 9.44097 17.8168 9.44097C17.7418 9.22242 17.6229 9.11002 17.5165 8.98514C17.3851 8.84152 17.2224 8.72288 17.1912 8.50433C17.1474 8.1609 17.3351 7.76751 17.6166 7.64262C17.942 7.499 18.2423 7.5552 18.4613 7.79873C18.7929 8.16714 18.8117 8.3732 18.5739 8.77908C18.5051 8.89772 18.3862 8.96016 18.3111 9.05382C18.2486 9.12875 18.0859 9.16622 18.1359 9.29735C18.1735 9.40975 18.3111 9.39726 18.3987 9.4035C18.7178 9.42848 19.0432 9.43472 19.3623 9.43472C20.3258 9.43472 20.4447 9.54088 20.4572 10.515C20.4572 10.7148 20.4823 10.9209 20.6637 11.0145C21.2394 11.308 21.0767 11.7951 21.0204 12.2634C20.9953 12.4445 20.9202 12.6255 20.7451 12.6942C20.4572 12.8004 20.451 13.0127 20.476 13.25C20.5198 13.6496 20.3446 13.9119 19.9629 14.0492C19.7627 14.1179 19.5688 14.0804 19.3685 14.0992C19.2997 14.1054 19.2309 14.0992 19.2121 14.1866C19.1934 14.2615 19.2497 14.3115 19.306 14.3427C19.3998 14.3989 19.4999 14.4364 19.6188 14.4239C20.1882 14.3802 20.7638 14.3677 21.3207 14.4738C22.5783 14.7236 23.0976 14.1866 23.5231 13.4748C23.6608 13.2437 23.617 13.0626 23.3855 12.8815C22.985 12.5631 22.6972 12.1385 22.4156 11.7201C22.3844 11.6702 22.3531 11.589 22.3656 11.5328C22.4782 11.0395 22.6284 10.5524 23.0538 10.1528V10.1591ZM18.7992 24.1212C18.7992 24.0463 18.7992 24.0275 18.7992 24.0026C18.7992 23.4905 18.7992 22.9847 18.7992 22.4727C18.7992 21.4237 18.7679 21.3925 17.6917 21.4174C17.6041 21.4174 17.5228 21.4424 17.4352 21.4549C17.2475 21.4861 17.1348 21.6048 17.1348 21.7546C17.1348 22.0481 16.9784 22.3104 16.9972 22.5976C17.0598 23.5592 16.9972 24.5146 17.016 25.4762C17.0347 26.4628 17.1286 27.4369 17.4602 28.3735C17.5353 28.5796 17.6479 28.6733 17.8732 28.667C18.0984 28.667 18.2486 28.6171 18.3299 28.3798C18.4676 27.9802 18.5864 27.5868 18.6615 27.1684C18.8492 26.1381 18.8305 25.0953 18.7929 24.1087L18.7992 24.1212ZM18.9556 15.9725C18.893 16.2534 18.7366 16.3658 18.624 16.5095C18.3987 16.7967 18.455 16.9466 18.7679 17.1276C19.0557 17.2962 19.3247 17.1838 19.6 17.1589C19.8628 17.1339 20.0005 16.9965 19.9942 16.7218C19.9942 16.3658 19.9942 16.0162 19.9942 15.6602C19.9942 15.348 19.8065 15.1732 19.525 15.1732C18.4926 15.1607 17.4602 15.1607 16.4278 15.1732C16.115 15.1732 15.896 15.3231 15.8835 15.6727C15.871 16.0599 15.8647 16.447 15.8584 16.8342C15.8584 16.9341 15.9148 16.9965 15.9898 17.0527C16.3527 17.3087 16.9722 17.265 17.3163 16.959C17.4727 16.8217 17.6417 16.6843 17.8419 16.6156C18.2298 16.4845 18.5739 16.2784 18.9556 15.9787V15.9725ZM17.9357 13.5684C18.3362 13.5684 18.7366 13.5747 19.137 13.5684C19.5125 13.5622 19.744 13.3311 19.7377 13.0064C19.7314 12.688 19.5187 12.5069 19.1245 12.5069C18.3424 12.5069 17.5603 12.5069 16.7782 12.5069C16.3653 12.5069 16.1901 12.663 16.1838 13.0064C16.1775 13.3624 16.3778 13.5622 16.7657 13.5684C17.1536 13.5747 17.5415 13.5684 17.9357 13.5684ZM16.6718 10.4338C16.2026 10.4338 15.896 10.721 15.8835 11.1769C15.871 11.614 16.2276 11.9761 16.6781 11.9699C17.0973 11.9699 17.4602 11.6015 17.4539 11.1894C17.4539 10.7398 17.1348 10.44 16.6718 10.44V10.4338ZM19.2622 10.4338C18.7491 10.4276 18.4676 10.6961 18.4676 11.1956C18.4676 11.6702 18.7616 11.9699 19.2246 11.9761C19.6626 11.9761 19.9817 11.7076 19.988 11.3205C19.9942 10.7897 19.7127 10.4463 19.2622 10.44V10.4338ZM18.4676 8.36071C18.4676 8.08596 18.2486 7.85493 17.9733 7.84244C17.7042 7.82995 17.4727 8.04225 17.4665 8.30451C17.4602 8.59799 17.6229 8.76034 17.942 8.77283C18.2736 8.78532 18.4613 8.63546 18.4676 8.36071Z" fill="#379D8A"/>
</svg>
