<svg width="69" height="32" viewBox="0 0 69 32" fill="none" xmlns="http://www.w3.org/2000/svg">
<path d="M11.3274 79.7278C9.83397 79.793 8.34059 79.8364 6.84721 79.9451C3.86044 80.1623 1.69612 79.2282 0.657244 75.7524C0.0728765 73.8407 0.181094 71.929 0.35424 70.0391C0.462456 68.7791 1.56626 68.0622 2.71335 67.5843C5.18068 66.585 7.62637 65.564 9.96384 64.2823C11.4789 63.4568 12.3879 62.2403 12.7991 60.5459C13.5133 57.4828 12.7558 55.6146 10.0504 53.9636C8.53538 53.0512 6.86886 52.4647 5.20233 51.9216C3.25444 51.2916 1.47969 50.3792 0.419175 48.4892C0.289316 48.272 0.13781 48.0982 0.0945233 47.7941C-0.251768 45.1872 0.375887 42.7108 1.60955 40.5384C2.32378 39.2784 3.86044 38.605 5.41876 38.5615C7.62637 38.4746 9.76905 38.8657 11.955 39.1698C15.5694 39.6694 19.4003 38.6267 20.266 34.3906C20.7205 32.1313 19.7899 30.1545 18.5778 28.3514C17.6039 26.896 16.4135 25.5491 15.353 24.137C13.4484 21.5954 13.4917 19.8792 15.5045 17.381C16.3053 16.3817 17.1494 15.4476 18.1666 14.6655C20.2011 13.1014 22.1923 13.1232 24.0969 14.8611C26.1097 16.6858 28.4472 18.011 30.763 19.3579C34.9401 21.7909 39.5501 18.5758 39.3337 14.1007C39.2471 12.1891 38.8576 10.3643 38.4896 8.51776C38.2732 7.36641 38.2299 6.19333 38.4247 5.06371C38.6411 3.73856 39.3554 2.65238 40.589 1.97895C42.6884 0.849317 44.9393 0.327956 47.3201 0.262785C49.0082 0.219338 50.0904 1.15345 50.718 2.58721C51.4323 4.19476 52.0166 5.86748 52.6659 7.51848C53.1204 8.66983 53.6182 9.77773 54.3325 10.7987C57.0162 14.6438 61.6262 14.5787 64.2883 10.6901C65.3705 9.08258 65.9765 7.23607 66.734 5.47645C67.2751 4.21648 67.7296 2.89134 68.4655 1.71826C69.526 0.0672682 70.8895 -0.388927 72.7292 0.327953C73.7681 0.718978 74.8286 1.06656 75.9108 1.30552C80.1961 2.23963 80.4775 3.84718 80.0013 7.71399C79.7416 9.97325 79.2655 12.1891 79.3737 14.4918C79.6334 19.271 83.9404 21.7909 88.2691 19.7054C90.455 18.6627 92.1432 16.9465 94.0045 15.491C94.2426 15.2955 94.4807 15.1 94.7187 14.9262C97.2293 13.1883 98.2682 13.0146 100.476 15.3824C101.493 16.4686 102.619 17.4896 103.657 18.5758C105.129 20.053 105.259 21.4433 103.939 23.0943C101.991 25.5056 100.389 28.1125 98.8526 30.7845C97.1861 33.652 97.4674 36.0633 99.6101 37.8664C101.536 39.4957 103.809 39.7129 106.168 39.4088C108.202 39.1698 110.237 38.6484 112.271 38.6484C114.241 38.6484 116.016 39.3436 116.838 41.516C117.661 43.6666 118.18 45.8824 117.899 48.1634C117.725 49.532 117.119 50.8354 115.604 51.3133C112.704 52.2257 110.021 53.5726 107.532 55.3539C106.817 55.8536 106.125 56.3532 105.54 57.0701C103.787 59.199 104.112 60.8717 105.713 62.4793C107.943 64.7168 110.432 66.7371 113.635 67.5626C116.773 68.3881 118.028 70.4953 117.444 74.1231C117.184 75.7741 116.708 77.4251 115.929 78.924C115.042 80.6619 113.981 80.9443 112.055 80.5316C108.744 79.8147 105.367 79.4237 102.012 80.0537C98.9392 80.6185 97.0129 83.8553 97.8137 86.788C98.3548 88.7866 99.5885 90.3507 100.93 91.9365C102.489 93.7613 104.22 95.5861 104.307 98.3015C104.328 99.1487 103.831 99.5398 103.506 100.105C102.532 101.821 101.168 103.146 99.4802 104.145C97.554 105.253 95.7143 105.188 94.0261 103.776C92.641 102.625 91.1476 101.625 89.6542 100.648C88.0959 99.6484 86.5376 98.6491 84.6113 98.497C82.6851 98.345 81.1484 99.1488 80.0446 100.669C77.9885 103.537 78.2266 106.687 79.049 109.88C79.352 111.032 79.6334 112.183 79.6334 113.399C79.6334 115.116 78.8326 116.267 77.3392 117.049C75.7376 117.875 73.9845 118.309 72.2747 118.83C70.1753 119.46 68.1408 118.287 67.1885 116.115C66.8206 115.268 66.5825 114.377 66.2362 113.53C65.1974 110.988 63.942 108.577 61.9509 106.622C60.0246 104.775 57.7737 104.775 55.7826 106.557C54.0295 108.142 52.9689 110.184 51.9084 112.226C51.0643 113.856 50.3717 115.594 48.9866 116.897C46.6491 119.091 44.4632 118.917 41.9742 118.048C41.3032 117.809 40.6539 117.418 40.0263 117.049C38.1 115.919 37.7537 115.159 38.1217 112.965C38.2515 112.226 38.4247 111.531 38.2082 110.727C38.0784 110.228 38.7277 109.62 38.7277 108.946C38.7277 107.36 38.8792 105.774 38.7277 104.21C38.4896 101.582 37.3642 99.4094 34.6804 98.6491C32.2564 97.954 30.0488 98.6925 28.1441 100.3C26.5642 101.625 24.9193 102.907 23.1013 103.884C19.9414 105.601 17.6905 104.362 15.5261 101.973C14.8336 101.212 14.3141 100.3 13.838 99.3877C12.9506 97.7584 13.2536 96.3029 14.444 94.8909C16.6949 92.2406 18.4696 89.2862 19.7899 86.0711C20.937 83.2688 18.8808 80.3144 15.8724 80.0537C15.1149 79.9885 14.4007 79.7278 13.6215 79.7713C12.864 79.8364 12.0849 79.7713 11.3057 79.7713L11.3274 79.7278ZM59.0074 38.5398C50.1986 38.5398 41.3898 38.5398 32.581 38.5398C30.8279 38.5398 30.5033 38.8657 30.5033 40.6253C30.5033 51.2264 30.5033 61.8493 30.5033 72.4504C30.5033 74.6228 30.8063 74.9486 32.9489 74.9486C50.3068 74.9486 67.6431 74.9486 85.0009 74.9486C86.9055 74.9486 87.4899 74.3186 87.4899 72.3852C87.4899 67.606 87.4899 62.8268 87.4899 58.0259C87.4899 52.2691 87.4899 46.5341 87.4899 40.7774C87.4899 39.0612 87.0137 38.5398 85.4554 38.5398C76.6466 38.5398 67.8378 38.5398 59.029 38.5398H59.0074ZM87.8578 32.7831C87.5332 32.392 87.425 32.24 87.2951 32.1096C77.0578 21.8995 64.7861 18.0544 50.6531 20.8351C43.2295 22.2905 36.888 26.1139 31.4988 31.4579C31.1742 31.7838 30.6548 32.1748 30.8063 32.5658C30.9794 33.022 31.6287 32.7831 32.0616 32.7831C47.9477 32.7831 63.8122 32.7831 79.6983 32.7831C82.3388 32.7831 84.9793 32.7831 87.8795 32.7831H87.8578ZM92.4029 80.4664C91.6887 80.7488 91.0827 80.7054 90.4767 80.7054C83.8538 80.7054 77.2526 80.7054 70.6298 80.7054C68.5521 80.7054 66.4743 80.6837 64.3966 80.7054C63.2928 80.7054 62.6867 81.2919 62.6435 82.3998C62.5785 83.9422 62.5785 85.4846 62.7517 87.027C63.0763 89.851 64.0719 90.8938 66.8639 91.1544C70.197 91.4586 73.5517 91.3282 76.8847 91.3717C77.7937 91.3717 78.7244 91.4586 79.2438 92.2841C79.72 93.0444 80.1528 92.8489 80.7156 92.4796C84.0053 90.4158 86.7973 87.7873 89.3296 84.8546C90.455 83.5512 91.5372 82.2043 92.3596 80.4664H92.4029ZM39.8315 80.7054C35.6327 80.7054 31.4556 80.7054 27.2568 80.7054C26.1313 80.7054 26.0231 80.8575 26.6291 81.8567C27.7762 83.7901 29.2696 85.4411 30.8279 87.0487C32.7758 89.0255 34.767 90.9372 37.1694 92.371C37.5373 92.5882 37.9269 92.9792 38.3381 92.3927C38.9874 91.4803 39.9613 91.35 41.0002 91.35C44.3333 91.3065 47.688 91.2631 51.021 91.111C53.4667 91.0024 54.5705 89.8945 55.025 87.4832C55.2631 86.1797 55.2415 84.8763 55.1549 83.5729C55.025 81.2702 54.3974 80.7054 52.0599 80.7054C47.991 80.7054 43.9221 80.7054 39.8315 80.7054ZM93.1821 78.924L93.55 78.9892C97.7488 71.4511 99.3287 63.3482 98.3548 54.7457C97.7704 49.5972 94.9785 41.8635 93.2037 40.4949V78.9458L93.1821 78.924ZM24.7245 41.3639C18.7077 46.6645 18.6428 71.4946 24.4864 77.8161C24.8977 65.6944 24.6596 53.6377 24.7245 41.3639ZM69.829 97.2805C68.7252 96.9547 67.7513 96.5419 67.2968 95.434C66.7773 94.174 65.7817 93.6527 64.4831 93.6309C60.7822 93.6309 57.1028 93.6309 53.4018 93.6309C51.9301 93.6309 50.783 94.3261 50.1553 95.6512C49.7225 96.5854 49.1381 97.1719 48.0776 97.2588C55.3497 99.4746 62.5785 99.4529 69.829 97.2588V97.2805Z" fill="#3F75B7"/>
</svg>
