<svg width="79" height="75" viewBox="0 0 79 75" fill="none" xmlns="http://www.w3.org/2000/svg">
<path d="M-27.6726 79.7278C-29.166 79.793 -30.6594 79.8364 -32.1528 79.9451C-35.1396 80.1623 -37.3039 79.2282 -38.3428 75.7524C-38.9271 73.8407 -38.8189 71.929 -38.6458 70.0391C-38.5375 68.7791 -37.4337 68.0622 -36.2866 67.5843C-33.8193 66.585 -31.3736 65.564 -29.0362 64.2823C-27.5211 63.4568 -26.6121 62.2403 -26.2009 60.5459C-25.4867 57.4828 -26.2442 55.6146 -28.9496 53.9636C-30.4646 53.0512 -32.1311 52.4647 -33.7977 51.9216C-35.7456 51.2916 -37.5203 50.3792 -38.5808 48.4892C-38.7107 48.272 -38.8622 48.0982 -38.9055 47.7941C-39.2518 45.1872 -38.6241 42.7108 -37.3904 40.5384C-36.6762 39.2784 -35.1396 38.605 -33.5812 38.5615C-31.3736 38.4746 -29.231 38.8657 -27.045 39.1698C-23.4306 39.6694 -19.5997 38.6267 -18.734 34.3906C-18.2795 32.1313 -19.2101 30.1545 -20.4222 28.3514C-21.3961 26.896 -22.5865 25.5491 -23.647 24.137C-25.5516 21.5954 -25.5083 19.8792 -23.4955 17.381C-22.6947 16.3817 -21.8506 15.4476 -20.8334 14.6655C-18.7989 13.1014 -16.8077 13.1232 -14.9031 14.8611C-12.8903 16.6858 -10.5528 18.011 -8.23701 19.3579C-4.05987 21.7909 0.550133 18.5758 0.333702 14.1007C0.247128 12.1891 -0.142448 10.3643 -0.510384 8.51776C-0.726814 7.36641 -0.7701 6.19333 -0.57531 5.06371C-0.358879 3.73856 0.35535 2.65238 1.58901 1.97895C3.68841 0.849317 5.9393 0.327956 8.32006 0.262785C10.0082 0.219338 11.0904 1.15345 11.718 2.58721C12.4323 4.19476 13.0166 5.86748 13.6659 7.51848C14.1204 8.66983 14.6182 9.77773 15.3325 10.7987C18.0162 14.6438 22.6262 14.5787 25.2883 10.6901C26.3705 9.08258 26.9765 7.23607 27.734 5.47645C28.2751 4.21648 28.7296 2.89134 29.4655 1.71826C30.526 0.0672682 31.8895 -0.388927 33.7292 0.327953C34.7681 0.718978 35.8286 1.06656 36.9108 1.30552C41.1961 2.23963 41.4775 3.84718 41.0013 7.71399C40.7416 9.97325 40.2655 12.1891 40.3737 14.4918C40.6334 19.271 44.9404 21.7909 49.2691 19.7054C51.455 18.6627 53.1432 16.9465 55.0045 15.491C55.2426 15.2955 55.4807 15.1 55.7187 14.9262C58.2293 13.1883 59.2682 13.0146 61.4758 15.3824C62.4931 16.4686 63.6185 17.4896 64.6574 18.5758C66.1291 20.053 66.259 21.4433 64.9387 23.0943C62.9909 25.5056 61.3893 28.1125 59.8526 30.7845C58.1861 33.652 58.4674 36.0633 60.6101 37.8664C62.5363 39.4957 64.8089 39.7129 67.168 39.4088C69.2025 39.1698 71.2369 38.6484 73.2714 38.6484C75.2409 38.6484 77.0157 39.3436 77.8381 41.516C78.6606 43.6666 79.18 45.8824 78.8986 48.1634C78.7255 49.532 78.1195 50.8354 76.6044 51.3133C73.7043 52.2257 71.0205 53.5726 68.5315 55.3539C67.8173 55.8536 67.1247 56.3532 66.5403 57.0701C64.7872 59.199 65.1119 60.8717 66.7135 62.4793C68.9427 64.7168 71.4317 66.7371 74.6349 67.5626C77.7732 68.3881 79.0285 70.4953 78.4441 74.1231C78.1844 75.7741 77.7083 77.4251 76.9291 78.924C76.0417 80.6619 74.9812 80.9443 73.055 80.5316C69.7435 79.8147 66.3672 79.4237 63.0125 80.0537C59.9392 80.6185 58.0129 83.8553 58.8137 86.788C59.3548 88.7866 60.5885 90.3507 61.9303 91.9365C63.4887 93.7613 65.2201 95.5861 65.3067 98.3015C65.3283 99.1487 64.8305 99.5398 64.5059 100.105C63.5319 101.821 62.1684 103.146 60.4802 104.145C58.554 105.253 56.7143 105.188 55.0261 103.776C53.641 102.625 52.1476 101.625 50.6542 100.648C49.0959 99.6484 47.5376 98.6491 45.6113 98.497C43.6851 98.345 42.1484 99.1488 41.0446 100.669C38.9885 103.537 39.2266 106.687 40.049 109.88C40.352 111.032 40.6334 112.183 40.6334 113.399C40.6334 115.116 39.8326 116.267 38.3392 117.049C36.7376 117.875 34.9845 118.309 33.2747 118.83C31.1753 119.46 29.1408 118.287 28.1885 116.115C27.8206 115.268 27.5825 114.377 27.2362 113.53C26.1974 110.988 24.942 108.577 22.9509 106.622C21.0246 104.775 18.7737 104.775 16.7826 106.557C15.0295 108.142 13.9689 110.184 12.9084 112.226C12.0643 113.856 11.3717 115.594 9.98658 116.897C7.64911 119.091 5.46315 118.917 2.97418 118.048C2.30324 117.809 1.65394 117.418 1.02628 117.049C-0.899963 115.919 -1.24625 115.159 -0.878315 112.965C-0.748455 112.226 -0.575325 111.531 -0.791756 110.727C-0.921616 110.228 -0.272305 109.62 -0.272305 108.946C-0.272305 107.36 -0.120804 105.774 -0.272305 104.21C-0.510384 101.582 -1.63584 99.4094 -4.3196 98.6491C-6.74364 97.954 -8.95125 98.6925 -10.8559 100.3C-12.4358 101.625 -14.0807 102.907 -15.8987 103.884C-19.0586 105.601 -21.3095 104.362 -23.4739 101.973C-24.1664 101.212 -24.6859 100.3 -25.162 99.3877C-26.0494 97.7584 -25.7464 96.3029 -24.556 94.8909C-22.3051 92.2406 -20.5304 89.2862 -19.2101 86.0711C-18.063 83.2688 -20.1192 80.3144 -23.1276 80.0537C-23.8851 79.9885 -24.5993 79.7278 -25.3785 79.7713C-26.136 79.8364 -26.9151 79.7713 -27.6943 79.7713L-27.6726 79.7278ZM20.0074 38.5398C11.1986 38.5398 2.3898 38.5398 -6.41899 38.5398C-8.17209 38.5398 -8.49674 38.8657 -8.49674 40.6253C-8.49674 51.2264 -8.49674 61.8493 -8.49674 72.4504C-8.49674 74.6228 -8.19373 74.9486 -6.05105 74.9486C11.3068 74.9486 28.6431 74.9486 46.0009 74.9486C47.9055 74.9486 48.4899 74.3186 48.4899 72.3852C48.4899 67.606 48.4899 62.8268 48.4899 58.0259C48.4899 52.2691 48.4899 46.5341 48.4899 40.7774C48.4899 39.0612 48.0137 38.5398 46.4554 38.5398C37.6466 38.5398 28.8378 38.5398 20.029 38.5398H20.0074ZM48.8578 32.7831C48.5332 32.392 48.425 32.24 48.2951 32.1096C38.0578 21.8995 25.7861 18.0544 11.6531 20.8351C4.22947 22.2905 -2.11199 26.1139 -7.50115 31.4579C-7.8258 31.7838 -8.34524 32.1748 -8.19374 32.5658C-8.02059 33.022 -7.37129 32.7831 -6.93842 32.7831C8.94771 32.7831 24.8122 32.7831 40.6983 32.7831C43.3388 32.7831 45.9793 32.7831 48.8795 32.7831H48.8578ZM53.4029 80.4664C52.6887 80.7488 52.0827 80.7054 51.4767 80.7054C44.8538 80.7054 38.2526 80.7054 31.6298 80.7054C29.5521 80.7054 27.4743 80.6837 25.3966 80.7054C24.2928 80.7054 23.6867 81.2919 23.6435 82.3998C23.5785 83.9422 23.5785 85.4846 23.7517 87.027C24.0763 89.851 25.0719 90.8938 27.8639 91.1544C31.197 91.4586 34.5517 91.3282 37.8847 91.3717C38.7937 91.3717 39.7244 91.4586 40.2438 92.2841C40.72 93.0444 41.1528 92.8489 41.7156 92.4796C45.0053 90.4158 47.7973 87.7873 50.3296 84.8546C51.455 83.5512 52.5372 82.2043 53.3596 80.4664H53.4029ZM0.831486 80.7054C-3.3673 80.7054 -7.54444 80.7054 -11.7432 80.7054C-12.8687 80.7054 -12.9769 80.8575 -12.3709 81.8567C-11.2238 83.7901 -9.7304 85.4411 -8.17209 87.0487C-6.2242 89.0255 -4.23302 90.9372 -1.83062 92.371C-1.46269 92.5882 -1.0731 92.9792 -0.661884 92.3927C-0.0125885 91.4803 0.961349 91.35 2.00022 91.35C5.33328 91.3065 8.68799 91.2631 12.021 91.111C14.4667 91.0024 15.5705 89.8945 16.025 87.4832C16.2631 86.1797 16.2415 84.8763 16.1549 83.5729C16.025 81.2702 15.3974 80.7054 13.0599 80.7054C8.99099 80.7054 4.92206 80.7054 0.831486 80.7054ZM54.1821 78.924L54.55 78.9892C58.7488 71.4511 60.3287 63.3482 59.3548 54.7457C58.7704 49.5972 55.9785 41.8635 54.2037 40.4949V78.9458L54.1821 78.924ZM-14.2755 41.3639C-20.2923 46.6645 -20.3572 71.4946 -14.5136 77.8161C-14.1023 65.6944 -14.3404 53.6377 -14.2755 41.3639ZM30.829 97.2805C29.7252 96.9547 28.7513 96.5419 28.2968 95.434C27.7773 94.174 26.7817 93.6527 25.4831 93.6309C21.7822 93.6309 18.1028 93.6309 14.4018 93.6309C12.9301 93.6309 11.783 94.3261 11.1553 95.6512C10.7225 96.5854 10.1381 97.1719 9.07757 97.2588C16.3497 99.4746 23.5785 99.4529 30.829 97.2588V97.2805Z" fill="#3F75B7"/>
<path d="M40.8717 55.3973C38.9239 55.3973 38.1231 54.5718 38.1447 52.6601C38.1664 50.9005 39.1187 49.923 40.8285 49.923C42.4517 49.923 43.4689 50.9874 43.4473 52.7036C43.4257 54.4198 42.4733 55.3973 40.8717 55.3973ZM40.8285 50.8788C39.8112 50.8788 39.2485 51.4654 39.2269 52.5733C39.2052 53.7681 39.7463 54.3546 40.8068 54.3546C41.7591 54.3546 42.3651 53.7029 42.3868 52.6384C42.4084 51.5957 41.8024 50.9005 40.8068 50.9005L40.8285 50.8788Z" fill="#3F75B7"/>
<path d="M28.9241 52.7253C28.9241 54.3546 27.7553 55.419 25.9373 55.419C24.5088 55.419 23.4267 54.3112 23.405 52.8122C23.405 51.0309 24.379 49.923 26.0022 49.923C27.777 49.923 28.9241 51.0309 28.9457 52.7253H28.9241ZM26.2187 54.3763C27.0844 54.3763 27.8852 53.616 27.9285 52.7036C27.9718 51.8347 27.0844 50.9222 26.197 50.8788C25.2447 50.8571 24.4656 51.6174 24.4656 52.6167C24.4656 53.5725 25.2447 54.3546 26.197 54.3546L26.2187 54.3763Z" fill="#3F75B7"/>
<path d="M1.71906 52.7689C1.67577 54.485 0.485391 55.4843 -1.4625 55.4191C-2.84767 55.3757 -3.92983 53.855 -3.8649 52.052C-3.82161 51.0961 -2.19836 49.7275 -1.1162 49.7275C0.398826 49.7275 1.76234 51.2047 1.71906 52.7689ZM-0.899771 54.3764C0.0308876 54.3764 0.788405 53.5292 0.745119 52.5516C0.701832 51.6827 -0.0773232 50.9658 -1.02963 50.9658C-2.04686 50.9658 -2.7611 51.7044 -2.71781 52.7254C-2.67452 53.6812 -1.89536 54.3981 -0.899771 54.3764Z" fill="#3F75B7"/>
<path d="M15.8742 67.2583C17.4542 67.3017 18.2766 68.2576 18.255 69.9955C18.2334 71.9506 16.9564 72.6892 15.0518 72.5589C13.8181 72.472 12.9524 71.3641 12.9957 69.8217C13.039 68.0186 13.948 67.2149 15.8959 67.28L15.8742 67.2583ZM17.1728 69.8651C17.1728 68.8659 16.6318 68.2359 15.6794 68.1924C14.7488 68.149 14.0562 68.779 14.0129 69.7131C13.9696 70.7993 14.5324 71.451 15.5279 71.4727C16.5885 71.4944 17.1512 70.9513 17.1728 69.8651Z" fill="#3F75B7"/>
<path d="M-3.88686 61.2193C-4.03836 59.2424 -2.73976 58.6124 -1.33295 58.5473C0.268645 58.4604 1.3941 59.6986 1.41575 61.3931C1.41575 62.9354 0.268655 64.0651 -1.28966 64.0433C-3.15098 64.0433 -3.88686 63.2396 -3.88686 61.2193ZM0.290288 61.2193C0.290288 60.1548 -0.294067 59.6117 -1.35459 59.6552C-2.32853 59.6769 -2.97783 60.372 -2.93455 61.3713C-2.91291 62.3706 -2.24196 62.9789 -1.22473 62.9354C-0.207499 62.9137 0.311936 62.3272 0.311936 61.2193H0.290288Z" fill="#3F75B7"/>
<path d="M15.3762 55.3972C13.9044 55.3972 12.9521 54.2459 12.9738 52.5515C12.9954 50.857 13.991 49.8795 15.6575 49.9229C17.1942 49.9446 18.3846 51.1177 18.2331 52.6818C18.0816 54.4197 17.6054 55.419 15.3762 55.419V55.3972ZM15.6142 50.8787C14.5754 50.9005 14.0126 51.5739 14.0559 52.7035C14.0992 53.8766 14.5754 54.3762 15.6142 54.3545C16.6315 54.3545 17.2375 53.7245 17.2158 52.7035C17.2158 51.5739 16.5665 50.857 15.6142 50.8787Z" fill="#3F75B7"/>
<path d="M40.7414 67.2583C42.4512 67.2583 43.4468 68.2576 43.4251 69.952C43.4251 71.5813 42.4079 72.5371 40.7197 72.5371C39.0965 72.5371 38.1226 71.5161 38.1226 69.8651C38.1226 68.0838 38.9666 67.2583 40.7197 67.2583H40.7414ZM40.8063 68.1924C39.854 68.1924 39.2264 68.8007 39.2047 69.7565C39.2047 70.8644 39.7242 71.451 40.7414 71.4727C41.737 71.4727 42.3213 70.9296 42.343 69.952C42.343 68.8876 41.7586 68.2141 40.7847 68.1924H40.8063Z" fill="#3F75B7"/>
<path d="M17.6484 64.0217C16.0468 64.0217 15.2244 63.0876 15.246 61.2845C15.246 59.438 16.3498 58.5039 18.3843 58.5256C19.5747 58.5256 20.6135 59.9159 20.5919 61.4366C20.5703 63.0876 19.4665 64.0434 17.6484 64.0217ZM17.8216 59.6335C16.8043 59.6335 16.1983 60.2852 16.1983 61.2845C16.1983 62.3055 17.0641 63.0876 18.0596 63.0442C18.947 63.0007 19.6829 62.1752 19.6396 61.2628C19.618 60.307 18.8388 59.6118 17.7999 59.6335H17.8216Z" fill="#3F75B7"/>
<path d="M25.8943 61.3932C25.8943 59.6553 26.825 58.5474 28.3183 58.5256C30.0931 58.5256 31.1969 59.5901 31.1969 61.328C31.1969 62.8486 30.0065 63.9783 28.34 63.9783C26.8899 63.9783 25.7211 63.0659 25.9159 61.3932H25.8943ZM30.2229 61.2194C30.2229 60.2635 29.5087 59.6118 28.4915 59.6335C27.431 59.6335 26.8249 60.2635 26.8249 61.2845C26.8249 62.3273 27.5825 63.0224 28.5997 63.0007C29.5087 62.9572 30.2446 62.1969 30.2229 61.2411V61.2194Z" fill="#3F75B7"/>
<path d="M8.57944 61.1975C8.57944 59.59 9.70488 58.4386 11.2632 58.5472C13.0163 58.6776 13.9902 59.6334 14.0552 61.4365C14.1201 63.1092 12.4103 64.065 11.0684 64.0216C9.57503 63.9781 8.5578 62.8268 8.57944 61.1975ZM9.63995 61.1758C9.59667 62.2837 10.1594 62.9571 11.2199 63.044C12.1722 63.1092 12.973 62.3706 13.038 61.3713C13.1029 60.3286 12.4969 59.6986 11.3498 59.6334C10.2676 59.59 9.68324 60.1113 9.63995 61.1541V61.1758Z" fill="#3F75B7"/>
<path d="M8.55828 43.7754C8.45006 42.0158 9.81359 41.2337 11.3719 41.2989C12.9951 41.3858 14.1206 42.4285 14.0773 43.9492C14.034 45.6654 12.822 46.795 11.0905 46.7298C9.55388 46.6647 8.51499 45.4699 8.55828 43.7754ZM13.0384 43.9926C13.0384 43.0585 12.216 42.2765 11.2421 42.2548C10.3114 42.2548 9.48894 43.0803 9.48894 44.0361C9.48894 44.9268 10.2897 45.6654 11.2421 45.6871C12.2376 45.6871 13.0384 44.9485 13.0384 43.9926Z" fill="#3F75B7"/>
<path d="M42.8193 46.6645C41.3692 46.7296 40.4602 45.8172 40.3953 44.2314C40.3303 42.4066 41.1311 41.4073 42.7111 41.3422C44.6806 41.2553 45.6978 42.0591 45.7411 43.7752C45.8061 45.7521 44.9836 46.5776 42.8193 46.6862V46.6645ZM43.1223 45.7086C44.0746 45.7086 44.8321 44.9917 44.8321 44.0794C44.8321 43.0801 44.0962 42.298 43.1439 42.2763C42.17 42.2763 41.3692 43.0366 41.3692 43.9707C41.3692 44.9266 42.17 45.7086 43.1439 45.7086H43.1223Z" fill="#3F75B7"/>
<path d="M45.8063 61.3495C45.763 62.9571 44.5294 64.1084 42.8628 64.0433C41.4777 63.9781 40.1791 62.6095 40.2007 61.2192C40.244 59.6116 41.456 58.4603 43.0793 58.5255C44.6809 58.5689 45.828 59.7854 45.7847 61.3495H45.8063ZM43.0793 59.6334C41.9538 59.6334 41.3262 60.2199 41.3478 61.3061C41.3478 62.2836 42.1486 63.044 43.1225 63.044C44.0532 63.044 44.8324 62.1967 44.8107 61.2192C44.8107 60.2416 44.1398 59.6551 43.0793 59.6551V59.6334Z" fill="#3F75B7"/>
<path d="M-1.31117 72.5807C-2.9777 72.5372 -3.71356 71.69 -3.69192 69.8C-3.69192 68.0839 -2.73961 67.2584 -0.878293 67.2801C0.831523 67.3018 1.74054 68.3011 1.67561 70.1042C1.63232 71.6248 0.441935 72.6024 -1.31117 72.5589V72.5807ZM-1.05144 71.4945C0.0523624 71.4945 0.744946 70.8428 0.723302 69.8652C0.701659 68.9528 -0.0342131 68.2359 -0.986515 68.2142C-1.9821 68.1925 -2.73961 68.9311 -2.73961 69.9304C-2.73961 70.9514 -2.1336 71.5162 -1.05144 71.5162V71.4945Z" fill="#3F75B7"/>
<path d="M17.7565 46.6861C16.0466 46.6426 15.2242 45.7085 15.2675 43.8403C15.3108 42.1893 16.2847 41.2769 17.9945 41.3203C19.423 41.3421 20.7865 42.6672 20.7649 44.0358C20.7432 45.5347 19.3797 46.7295 17.7565 46.6861ZM17.9729 45.7085C18.9252 45.6868 19.6611 44.9482 19.6827 44.0358C19.6827 43.0582 18.9035 42.2762 17.9296 42.2762C16.9124 42.2762 16.1549 43.1017 16.1982 44.1444C16.2414 45.1002 16.9557 45.7302 17.9729 45.7085Z" fill="#3F75B7"/>
<path d="M-1.35445 46.6864C-3.06426 46.6864 -3.88672 45.8175 -3.88672 43.9927C-3.88672 42.2765 -3.02097 41.3424 -1.41938 41.3207C0.312083 41.3207 1.41588 42.3417 1.39423 44.1013C1.39423 45.7957 0.615086 46.5995 -1.35445 46.6864ZM0.290425 44.1013C0.290425 42.9065 -0.272285 42.2548 -1.26787 42.2765C-2.19853 42.2765 -2.91277 43.0151 -2.93441 43.9709C-2.9777 44.992 -2.26346 45.6871 -1.20295 45.7088C-0.185715 45.7088 0.290425 45.1875 0.290425 44.123V44.1013Z" fill="#3F75B7"/>
<path d="M26.327 67.2369C27.8853 67.2369 28.9026 68.2797 28.9026 69.8438C28.9026 71.5382 27.7771 72.6896 26.0673 72.5809C24.6172 72.4941 23.4701 71.7772 23.5134 69.8438C23.5567 68.171 24.5306 67.2369 26.327 67.2587V67.2369ZM26.1322 71.4948C27.236 71.4948 27.907 70.8865 27.907 69.8438C27.907 68.9097 27.1711 68.1928 26.2188 68.1928C25.1799 68.1928 24.4657 68.8879 24.4873 69.8872C24.4873 70.9299 25.0717 71.473 26.1539 71.473L26.1322 71.4948Z" fill="#3F75B7"/>
<path d="M25.8734 43.9491C25.8951 42.1243 26.7175 41.3205 28.5572 41.3422C30.0506 41.3422 31.2626 42.4936 31.176 43.9273C31.0462 45.7956 29.964 46.7514 28.3624 46.7297C26.7608 46.708 25.8518 45.687 25.8734 43.9491ZM30.0722 43.8839C30.0722 42.8629 29.5311 42.2981 28.5572 42.2763C27.6049 42.2763 26.8257 43.0367 26.8257 44.0142C26.8257 45.057 27.4967 45.7304 28.5572 45.7087C29.5961 45.7087 30.0939 45.1004 30.0939 43.8839H30.0722Z" fill="#3F75B7"/>
<path d="M12.0424 69.9957C12.0424 70.5388 12.0207 71.0602 12.0424 71.6033C12.0857 72.1898 11.7827 72.4722 11.2849 72.5374C10.7438 72.6026 10.4841 72.1464 10.5274 71.7336C10.6572 70.5388 10.6139 69.3875 10.4841 68.2144C10.4408 67.7365 10.7221 67.302 11.3065 67.302C11.9125 67.302 12.0424 67.7365 12.0207 68.2578C12.0207 68.8226 12.0207 69.4092 12.0207 69.974L12.0424 69.9957Z" fill="#3F75B7"/>
<path d="M32.1497 61.1758C32.1497 60.5241 32.1497 59.8724 32.1497 59.2207C32.1497 58.7862 32.3661 58.4169 32.734 58.3518C33.0587 58.3083 33.3184 58.6776 33.3617 59.0469C33.5348 60.5024 33.4915 61.9362 33.3833 63.3916C33.3617 63.7392 33.0803 64.0216 32.6691 63.9999C32.193 63.9782 32.1929 63.5872 32.1713 63.2396C32.1713 62.5444 32.1713 61.871 32.1713 61.1758H32.1497Z" fill="#3F75B7"/>
<path d="M10.6583 52.5299C10.6583 51.9216 10.6799 51.3134 10.6583 50.6834C10.6366 50.0751 11.0695 49.9882 11.4807 49.9665C11.9136 49.9231 12.0434 50.2924 12.0434 50.6617C12.0434 51.9216 12.0651 53.1816 12.0651 54.4416C12.0651 54.9412 11.8486 55.2453 11.3076 55.2453C10.7015 55.2453 10.6799 54.8109 10.6799 54.3764C10.6799 53.7681 10.6799 53.1599 10.6799 52.5299H10.6583Z" fill="#3F75B7"/>
<path d="M2.34667 61.3712C2.34667 60.763 2.34667 60.133 2.34667 59.5247C2.34667 59.0902 2.47654 58.7644 2.97433 58.7209C3.47212 58.6775 3.66691 59.0033 3.66691 59.4378C3.68856 60.6761 3.71019 61.8926 3.68854 63.1308C3.68854 63.6088 3.38555 63.9781 2.9094 63.9346C2.47654 63.9129 2.28174 63.5436 2.30338 63.0874C2.30338 62.5008 2.30338 61.936 2.30338 61.3495C2.30338 61.3495 2.32503 61.3495 2.34667 61.3495V61.3712Z" fill="#3F75B7"/>
<path d="M32.1492 44.0361C32.1492 43.341 32.1492 42.6458 32.1492 41.9724C32.1492 41.5814 32.3657 41.3207 32.7985 41.3207C33.1881 41.3207 33.3613 41.6248 33.3613 41.9072C33.4046 43.2541 33.4262 44.5792 33.3829 45.9261C33.3829 46.3388 33.0582 46.643 32.6037 46.6212C32.1276 46.6212 32.106 46.2085 32.106 45.8609C32.106 45.2526 32.106 44.6227 32.106 44.0144L32.1492 44.0361Z" fill="#3F75B7"/>
<path d="M45.1345 73.0803C44.0957 71.3207 44.2255 69.5828 44.5718 67.8014C44.6367 67.4539 44.8315 67.2584 45.1995 67.2801C45.5457 67.3018 45.654 67.5842 45.6756 67.8449C45.7622 69.5611 45.9786 71.3207 45.1345 73.0803Z" fill="#3F75B7"/>
<path d="M45.7413 52.7037C45.7413 53.312 45.7413 53.942 45.7413 54.5502C45.7413 55.0933 45.395 55.2671 44.9188 55.2889C44.2695 55.3323 44.5509 54.7892 44.5509 54.572C44.5076 53.312 44.486 52.0303 44.5509 50.7703C44.5509 50.5314 44.0315 49.9665 44.8323 49.9448C45.395 49.9448 45.7196 50.1838 45.7196 50.7486C45.7196 51.4003 45.7196 52.052 45.7196 52.7037H45.7413Z" fill="#3F75B7"/>
<path d="M9.53229 49.9666C10.0301 51.7479 10.2249 53.4423 9.42406 55.2889C8.62326 54.0941 8.92628 52.8992 8.8397 51.7479C8.75313 50.6834 8.70985 50.6834 9.55394 49.9666H9.53229Z" fill="#3F75B7"/>
<path d="M36.6083 49.9882C37.0845 50.7485 37.1278 51.4871 37.171 52.204C37.2143 52.9208 37.171 53.6594 37.171 54.3763C37.171 54.6587 37.3442 55.028 36.933 55.1584C36.4135 55.2887 36.3919 54.7891 36.327 54.5284C35.9157 53.0512 35.8941 51.574 36.63 50.0099L36.6083 49.9882Z" fill="#3F75B7"/>
<path d="M19.8338 54.7456C19.401 53.2684 19.033 51.7694 19.4659 50.2271C19.5308 49.9881 19.639 49.7709 19.8771 49.7709C20.1152 49.7709 20.3316 49.9664 20.31 50.2053C20.2234 51.7043 20.613 53.2684 19.8122 54.7456H19.8338Z" fill="#3F75B7"/>
<path d="M4.70565 41.7115C5.6796 42.8195 5.33331 44.1446 5.31166 45.4263C5.31166 45.5784 5.1818 45.7087 5.16016 45.8608C5.11687 46.2083 5.59303 46.8166 4.8788 46.7949C4.4243 46.7949 4.53252 46.1432 4.51087 45.7304C4.44594 44.4053 4.35937 43.0801 4.7273 41.7333L4.70565 41.7115Z" fill="#3F75B7"/>
<path d="M35.1584 52.9205C35.0285 53.5288 34.9203 54.137 34.7471 54.7019C34.7039 54.8756 34.6822 55.2232 34.3576 55.1581C34.1411 55.1146 33.968 54.8974 33.9896 54.6367C34.1195 53.5071 33.9896 52.3774 33.9896 51.2478C33.9896 50.9654 34.1195 50.8133 34.3576 50.7264C34.7039 50.6178 34.7039 50.9654 34.7471 51.1392C34.9203 51.7257 35.0285 52.3123 35.1584 52.9205Z" fill="#3F75B7"/>
<path d="M34.833 64.3694C34.0538 62.4795 33.9889 60.8719 34.6598 59.0254C35.5472 60.8502 35.2226 62.4577 34.833 64.3694Z" fill="#3F75B7"/>
<path d="M36.3261 41.6462C37.4949 43.1452 37.4949 45.8606 36.3911 46.8599C36.2396 45.1437 36.2612 43.4927 36.3261 41.6462Z" fill="#3F75B7"/>
<path d="M24.4448 46.8164C23.644 46.4471 23.8605 45.7954 23.8388 45.2523C23.7955 44.405 23.8388 43.5578 23.8388 42.7323C23.8388 42.4282 23.7739 41.9937 24.1202 41.9503C24.5747 41.8851 24.618 42.4065 24.6396 42.6889C24.7695 44.0575 24.8344 45.4478 24.4015 46.8164H24.4448Z" fill="#3F75B7"/>
<path d="M21.7824 61.9795C21.7175 61.2192 21.869 60.5892 21.6093 60.0027C21.4578 59.6768 21.5444 59.3944 21.9123 59.2641C22.3235 59.112 22.475 59.4162 22.5616 59.6986C22.8213 60.7848 22.778 61.8927 22.5616 63.0006C22.4967 63.2395 22.3885 63.5871 22.0422 63.4568C21.7608 63.3481 21.6093 63.1092 21.7608 62.7182C21.869 62.4575 21.8257 62.1099 21.8257 61.9795H21.7824Z" fill="#3F75B7"/>
<path d="M22.2584 41.7114C22.8428 43.1886 22.9077 44.4703 22.4749 45.7955C22.4099 46.0127 22.345 46.2517 22.0204 46.1648C21.7823 46.0996 21.5226 45.991 21.5875 45.7303C21.9122 44.6007 21.6308 43.4493 21.8472 42.3197C21.8689 42.1459 22.042 42.0156 22.2584 41.6897V41.7114Z" fill="#3F75B7"/>
<path d="M38.729 46.1865C37.7767 44.8614 38.4044 43.4059 38.188 42.0808C38.1663 41.8635 38.3395 41.8418 38.491 41.8418C38.7507 41.8418 38.9455 41.907 38.9888 42.1894C39.1835 43.5145 39.4216 44.8614 38.7074 46.1865H38.729Z" fill="#3F75B7"/>
<path d="M3.36348 50.4226C3.94784 51.8129 3.79634 53.0946 3.60155 54.3546C3.57991 54.5501 3.60155 55.0063 3.19033 54.8977C2.93061 54.8325 2.58432 54.637 2.67089 54.246C2.88732 53.2684 2.99554 52.3343 2.67089 51.3567C2.51939 50.944 3.16869 50.8788 3.36348 50.4226Z" fill="#3F75B7"/>
<path d="M2.90897 46.0996C2.36789 44.6876 2.08653 43.2972 2.88733 41.6897C3.7747 43.2755 3.49334 44.6876 2.90897 46.0996Z" fill="#3F75B7"/>
<path d="M7.17325 50.2488C8.1472 51.7043 7.90913 53.2684 7.51955 55.1366C6.43739 53.377 7.15161 51.7912 7.17325 50.2488Z" fill="#3F75B7"/>
<path d="M7.34581 67.932C8.10332 69.3875 7.97346 70.9081 7.56224 72.5809C6.45843 70.9733 6.93459 69.4527 7.34581 67.932Z" fill="#3F75B7"/>
<path d="M34.682 41.4075C35.3962 43.1888 35.3962 44.6443 34.7469 46.317C34.0111 44.6877 34.0544 43.2105 34.682 41.4075Z" fill="#3F75B7"/>
<path d="M38.642 59.2858C39.4861 60.6761 39.2697 62.0664 38.7719 63.6957C37.8412 62.0881 38.3606 60.6761 38.642 59.2858Z" fill="#3F75B7"/>
<path d="M6.97822 46.295C6.17742 44.8612 6.61029 43.4709 6.54536 42.124C6.54536 41.8416 6.76179 41.6896 6.99987 41.7113C7.17301 41.7113 7.3678 41.8851 7.3678 42.1023C7.32451 43.4492 7.73573 44.8395 6.97822 46.295Z" fill="#3F75B7"/>
<path d="M32.387 50.3141C33.4042 51.8999 33.2094 53.3337 32.4952 55.0716C31.9108 53.3554 32.0407 51.9434 32.387 50.3141Z" fill="#3F75B7"/>
<path d="M34.4005 67.4977C35.3961 69.2138 35.0281 70.6259 34.6169 72.3203C33.6862 70.6476 34.2273 69.2356 34.4005 67.4977Z" fill="#3F75B7"/>
<path d="M32.3871 67.2583C33.0581 68.7355 33.2529 70.2344 32.517 72.0158C31.8893 70.2344 32.1707 68.7355 32.3871 67.2583Z" fill="#3F75B7"/>
<path d="M5.333 50.2705C6.04723 51.7043 5.72259 53.0294 5.76588 54.3111C5.76588 54.5283 5.59272 54.7673 5.333 54.7456C5.07328 54.7456 5.13821 54.4632 5.09492 54.2894C4.81356 52.986 4.6837 51.7043 5.333 50.2705Z" fill="#3F75B7"/>
<path d="M6.8266 59.2639C7.69233 60.5022 7.6274 62.6962 6.56688 63.9128C6.56688 62.2401 6.30717 60.7628 6.8266 59.2639Z" fill="#3F75B7"/>
<path d="M9.22945 67.7582C10.1601 68.9095 10.1601 70.7778 9.2511 71.9074C8.73166 70.5388 8.77494 69.2137 9.22945 67.7582Z" fill="#3F75B7"/>
<path d="M36.7159 63.4787C36.1748 62.0449 36.1099 60.6329 36.7159 59.2426C37.3219 60.6546 37.3868 62.0666 36.7159 63.4787Z" fill="#3F75B7"/>
<path d="M30.5259 50.2705C31.067 51.8998 31.1319 53.2901 30.6125 54.7239C29.8766 54.0939 29.79 51.9867 30.5259 50.2705Z" fill="#3F75B7"/>
<path d="M19.8124 67.7146C20.7431 69.257 20.2453 70.6473 19.9856 72.1028C19.2714 71.2556 19.1848 69.1484 19.8124 67.7146Z" fill="#3F75B7"/>
<path d="M24.314 59.0037C24.8334 60.5026 24.8767 61.7191 24.5304 62.9791C24.4871 63.1746 24.4006 63.3484 24.1841 63.3918C23.9893 63.4353 23.8811 63.2832 23.8811 63.1529C23.8811 61.8494 23.5348 60.5243 24.314 59.0254V59.0037Z" fill="#3F75B7"/>
<path d="M21.9556 67.7582C22.3885 69.2137 22.2153 70.604 22.1504 72.0594C21.1332 70.9733 21.0249 68.9747 21.9556 67.7582Z" fill="#3F75B7"/>
<path d="M30.4393 72.1463C29.8766 70.6908 30.093 69.4743 30.1363 68.2795C30.1363 68.1057 30.2661 67.9971 30.4393 67.9971C30.8072 67.9971 30.8722 68.3229 30.8938 68.5619C30.9804 69.6481 31.1319 70.7777 30.4393 72.1246V72.1463Z" fill="#3F75B7"/>
<path d="M5.46295 72.2115C4.72708 70.5605 4.77035 69.1919 5.31143 67.5192C6.09059 69.1702 5.83088 70.5605 5.46295 72.2115Z" fill="#3F75B7"/>
<path d="M36.8459 72.2549C35.7854 70.8646 35.9369 69.4091 36.6295 67.5626C37.2355 69.3222 36.8459 70.7995 36.8459 72.2549Z" fill="#3F75B7"/>
<path d="M5.00873 59.0254C5.54981 60.546 5.35502 61.8929 5.18188 63.3918C4.22958 62.2622 4.16464 60.8936 5.00873 59.0254Z" fill="#3F75B7"/>
<path d="M3.29919 67.7365C3.99177 69.2788 3.86191 70.5388 3.36412 71.9726C2.71482 70.604 2.69318 69.4526 3.29919 67.7365Z" fill="#3F75B7"/>
<path d="M21.9988 54.5717C21.1331 53.2683 21.2846 51.878 21.3495 50.466C21.3495 50.2487 21.501 50.075 21.6958 50.075C22.0205 50.075 21.9988 50.3791 21.9988 50.5963C21.9988 51.9215 21.9988 53.2466 21.9988 54.5717Z" fill="#3F75B7"/>
</svg>
