<svg width="70" height="30" viewBox="0 0 70 30" fill="none" xmlns="http://www.w3.org/2000/svg">
<path d="M-30.963 38.9849C-30.6119 38.7611 -30.6304 38.4067 -30.538 38.0523C-29.6509 34.4523 -28.0431 32.6057 -23.9589 33.1094C-22.3326 33.3145 -20.7248 33.7435 -19.0801 33.6316C-17.6386 33.5384 -16.1232 33.5757 -15.0144 32.3633C-13.1109 30.2928 -12.9445 28.2411 -14.3121 25.4618C-15.1252 23.8204 -16.3819 22.4961 -17.4907 21.0785C-18.4148 19.922 -18.9692 18.7096 -18.7659 17.1615C-18.6365 16.2848 -18.156 15.6133 -17.6571 15.0351C-16.7146 13.9159 -15.7351 12.7968 -14.4784 11.9947C-13.3696 11.2859 -11.6694 11.6217 -10.3757 12.6849C-8.45377 14.2703 -6.36547 15.6506 -4.18477 16.8444C-2.52152 17.7583 0.250557 17.6091 1.71052 15.4454C2.54214 14.2144 2.74543 12.8341 2.63454 11.3232C2.46822 9.1782 1.80292 7.07046 1.93228 4.88812C2.04317 3.07883 3.17048 1.82911 4.83372 1.17627C6.5709 0.504784 8.32654 0.448826 10.1192 0.374216C11.0247 0.336911 11.5976 0.78457 12.0411 1.41876C12.8358 2.61252 13.3163 3.97415 13.7783 5.31713C14.4251 7.23834 15.2013 9.14089 16.6797 10.5025C19.2855 12.9087 23.037 11.5098 24.3861 8.71188C25.421 6.54819 26.1972 4.27259 27.2321 2.1089C28.1931 0.0944293 28.9693 -0.297274 30.9837 0.187691C32.4067 0.542088 33.7742 1.06436 35.1972 1.43741C36.4539 1.77315 37.4334 2.55656 37.6921 3.80628C37.8769 4.7016 37.6921 5.70883 37.5997 6.64145C37.3594 8.67458 36.8605 10.6891 37.0453 12.7408C37.2486 14.7926 38.1541 16.4154 40.15 17.1801C42.1274 17.9449 43.9755 17.4786 45.6387 16.2848C47.2096 15.1283 48.688 13.86 50.2219 12.6476C51.8112 11.3978 53.0124 11.3978 54.4724 12.7222C55.6367 13.7854 56.7455 14.9418 57.8728 16.061C59.148 17.3293 58.9632 18.9708 57.6326 20.3697C55.5997 22.5147 54.2506 25.1261 53.0864 27.7747C51.8482 30.5913 54.2137 33.5757 57.5586 33.7995C59.3697 33.9301 61.1623 33.6503 62.9365 33.3332C64.0268 33.128 65.0987 33.128 66.1706 33.2213C67.5381 33.3518 68.4067 34.2658 68.9611 35.4596C69.8482 37.4367 70.1624 39.5258 69.9221 41.6522C69.7373 43.1817 68.6285 44.0397 67.2609 44.3941C65.0063 44.9723 63.1398 46.2034 61.2363 47.4345C60.5155 47.9008 59.8502 48.4231 59.2958 49.1132C58.15 50.5494 58.0576 51.967 59.2958 53.3287C61.1623 55.3804 63.343 57.0592 66.0597 57.9172C67.0946 58.2343 68.0556 58.6633 68.7948 59.54C69.9775 60.9016 69.571 62.487 69.4786 63.9792C69.4046 65.1357 68.9426 66.2735 68.4806 67.374C67.7414 69.1833 66.7435 69.5004 64.84 69.1273C62.0494 68.5864 59.1849 68.232 56.3574 68.7916C53.4929 69.3512 51.9406 72.3542 52.9385 75.1335C53.6038 76.98 54.9529 78.3603 56.1541 79.8525C56.6161 80.4121 57.0412 80.9903 57.4662 81.5872C58.6675 83.3032 58.4457 85.0379 57.3738 86.6607C56.9118 87.3695 56.1911 88.041 55.4334 88.4327C54.343 89.0109 53.5668 90.2606 52.0884 90.0928C50.9241 89.9622 49.9262 89.6637 49.0391 88.7871C48.1521 87.9104 47.0987 87.183 45.9159 86.642C44.918 86.1944 44.1048 85.3177 43.033 84.9633C39.9282 83.9188 37.304 85.5788 36.5648 88.6379C36.3245 89.6078 36.1028 90.5591 36.2691 91.4917C36.4909 92.6854 36.4724 93.9165 37.0638 95.0543C37.9323 96.7144 37.1007 99.5682 35.4559 100.426C33.8666 101.247 32.1849 101.918 30.3738 101.993C28.267 102.086 27.1212 101.247 26.3635 99.2138C25.5134 96.9009 24.5524 94.644 23.037 92.6854C22.0021 91.3611 20.9303 90.1674 18.9898 90.4285C18.5278 90.5031 18.1397 90.6523 17.7331 90.8948C15.2383 92.4243 14.1479 95.0357 13.0206 97.4791C12.3553 98.9154 11.3758 99.9413 10.3964 101.06C9.93435 101.583 9.21361 101.657 8.60375 101.751C6.1828 102.068 3.98362 101.527 2.22797 99.6615C1.8214 99.2325 1.67355 98.7102 1.61811 98.132C1.52571 97.0501 1.71052 95.9869 1.95076 94.9424C2.43126 92.7414 2.28341 90.5218 2.24645 88.3021C2.24645 87.9664 1.89532 87.6306 1.71052 87.2949C0.065752 84.2545 -2.48456 83.9001 -4.6283 84.8887C-6.55027 85.7654 -8.3244 87.0337 -9.89525 88.5259C-11.2628 89.8316 -13.9425 90.242 -15.5872 89.3466C-16.0308 89.1042 -16.3449 88.6565 -16.7146 88.2835C-17.6016 87.4068 -18.3778 86.4369 -18.9692 85.3364C-19.7084 83.9747 -19.5606 82.7064 -18.5626 81.5872C-16.7146 79.4981 -15.4579 77.0173 -14.1458 74.5925C-12.6119 71.7387 -14.7371 68.717 -17.9528 68.5305C-20.7433 68.3812 -23.5154 68.717 -26.2875 68.6051C-28.0431 68.5305 -29.2444 67.6911 -29.8727 66.031C-30.5565 64.2404 -30.7598 62.3751 -30.5934 60.4726C-30.4825 59.2229 -29.6324 58.4395 -28.5051 58.0664C-26.4723 57.3949 -24.6242 56.3131 -22.6838 55.4364C-22.2772 55.2499 -21.8891 54.9701 -21.5195 54.709C-18.7289 52.8064 -18.8768 48.5163 -21.7597 46.6697C-23.2751 45.6998 -24.9199 45.1029 -26.5832 44.506C-28.0986 43.9651 -29.5955 43.3309 -30.3901 41.7455C-30.5934 41.3538 -30.538 40.8128 -31 40.5517V38.9662L-30.963 38.9849ZM53.456 49.2251C53.0864 49.3743 53.0679 49.5795 52.994 49.7474C51.6264 53.1981 47.8194 54.0375 45.1767 51.5007C44.7886 51.1277 44.4005 50.7733 43.9755 50.4748C41.8687 49.0013 39.4477 49.1878 37.766 51.0904C36.1952 52.881 34.2917 53.31 32.074 52.9743C31.1315 52.8251 30.1705 52.8064 29.228 52.9743C27.0843 53.3846 25.8646 54.8955 24.8666 56.6861C22.8153 60.342 20.3574 63.7368 18.0288 67.2061C17.0678 68.6424 15.8851 69.0154 14.573 68.3999C13.2978 67.803 12.7064 66.4414 13.0576 64.8932C13.5011 62.8601 13.9631 60.8456 14.3882 58.8125C14.7578 57.0405 14.3142 56.4623 12.5586 56.4623C12.2629 56.4623 11.9672 56.4623 11.6715 56.4623C10.8029 56.4623 10.267 56.0333 9.98979 55.2312C9.48465 53.8012 8.46207 53.0862 6.92202 53.0862C6.6633 53.0862 6.40457 53.0862 6.12736 53.0862C4.26083 53.1981 2.78239 52.4147 1.50723 51.109C-0.359301 49.2251 -3.09442 49.0759 -5.14575 50.736C-5.58929 51.0904 -5.9589 51.5007 -6.40243 51.8551C-8.49073 53.5711 -11.3367 53.2727 -13.0739 51.2023C-13.2402 50.9971 -13.3326 50.6241 -13.887 50.8106C-13.3511 63.1212 -8.8049 73.3428 1.93228 79.8339C14.1479 87.2203 26.6407 86.9032 38.5422 79.0505C49.0576 72.1304 53.6408 61.8529 53.4744 49.2065L53.456 49.2251ZM52.8831 46.2594C51.996 39.5818 49.3163 33.7435 44.881 28.782C38.1171 21.2464 29.6531 17.2174 19.5257 17.1428C10.6736 17.0682 2.94871 20.3137 -3.37162 26.4504C-8.63857 31.5612 -12.002 37.8844 -13.2217 45.2894C-12.7412 45.3081 -12.6119 44.9537 -12.3716 44.7485C-10.5051 43.1631 -7.64062 43.2377 -6.18066 45.0843C-5.03487 46.5392 -3.68579 47.136 -1.91166 46.9122C0.32448 46.6324 2.11709 47.4158 3.52161 49.2065C4.22387 50.1204 5.20334 50.5494 6.36761 50.4748C7.5134 50.4002 8.65919 50.3443 9.80499 50.251C10.5442 50.195 11.0062 49.8033 11.2095 49.0759C12.2259 45.4946 13.8153 42.0999 14.9241 38.5559C15.5894 36.4109 17.0678 35.329 19.0822 34.7881C20.2465 34.471 21.4292 34.4523 22.5935 34.6016C24.7557 34.8627 25.8276 36.5228 25.2917 38.6492C25.1808 39.0968 25.0329 39.5258 24.8851 39.9735C24.3861 41.5776 23.9056 43.2004 23.3512 44.7672C23.0186 45.6998 23.4251 45.905 24.1828 45.905C24.8666 45.905 25.5689 45.8677 26.2526 45.905C28.6366 46.0728 29.7085 46.8749 29.5237 49.2065C29.5237 49.2811 29.5237 49.337 29.5237 49.4116C29.4498 50.0831 29.7639 50.2883 30.3923 50.2697C31.2793 50.251 32.1664 50.2697 33.0535 50.307C34.2732 50.3629 35.1972 49.9153 35.9364 48.9267C37.0453 47.4531 38.5422 46.763 40.3902 46.8562C40.8523 46.8749 41.3143 46.8562 41.7763 46.8936C43.2178 47.0241 44.4005 46.5019 45.1397 45.2894C46.5073 43.0698 50.3328 43.275 51.7373 44.9164C52.1069 45.3641 52.495 45.7931 52.8831 46.2221V46.2594ZM15.922 64.4269C16.421 64.2217 16.6058 63.886 16.8091 63.6062C20.0802 59.2975 23.0001 54.7463 26.0494 50.2883C26.1787 50.1018 26.2711 49.878 26.3635 49.6728C26.6777 49.0013 26.5114 48.7028 25.7352 48.7215C24.1274 48.7588 22.5196 48.7588 20.9118 48.7588C19.6366 48.7588 19.267 48.3298 19.729 47.0987C20.6161 44.7858 21.3368 42.417 22.0021 40.0481C22.2054 39.3206 23.1849 38.5559 22.3348 37.8284C21.7064 37.2875 20.7455 37.2689 19.8953 37.2316C19.0452 37.1943 18.3615 37.5487 18.0103 38.388C16.0144 43.2563 14.2773 48.2552 12.4662 53.1981C12.2814 53.7204 12.4292 53.9069 12.9836 53.8882C14.1664 53.8696 15.3491 53.8882 16.5319 53.8882C17.7331 53.8882 18.0473 54.2986 17.7886 55.4924C17.1787 58.4208 16.5504 61.3492 15.922 64.4269ZM48.6695 50.307C49.7783 50.307 50.5915 49.4863 50.61 48.3671C50.61 47.2666 49.6305 46.3153 48.5032 46.3526C47.3944 46.3899 46.6551 47.192 46.6921 48.3671C46.7291 49.5982 47.4683 50.3256 48.6695 50.307ZM-7.52974 48.4044C-7.52974 47.136 -8.25048 46.334 -9.37779 46.3526C-10.5421 46.3713 -11.2813 47.1174 -11.2813 48.2738C-11.2813 49.5422 -10.579 50.2883 -9.39627 50.307C-8.232 50.307 -7.52974 49.6168 -7.52974 48.4044Z" fill="#3F75B7"/>
<path d="M20.392 31.8689C19.4046 31.7542 18.4721 31.9071 17.5396 32.0599C15.8391 32.3273 14.6506 33.378 13.9375 34.9826C12.7307 37.6761 11.853 40.5032 10.7925 43.254C10.3902 44.2856 10.0611 45.3553 9.604 46.3486C8.83604 48.0679 7.4464 48.469 5.92877 47.4375C5.23396 46.9599 4.55742 46.406 3.88089 45.9093C2.60096 44.9733 1.19304 44.4193 -0.379445 44.4575C-0.507438 44.4575 -0.635429 44.4575 -0.763422 44.4575C-2.04335 44.3047 -2.20791 44.0945 -1.80565 42.8147C-0.160027 37.4659 3.29578 33.6072 7.70239 30.6463C11.981 27.7618 16.6619 26.6156 21.7816 27.1123C30.156 27.9146 38.4755 33.4926 41.7302 43.1394C41.785 43.2922 41.8033 43.4641 41.8765 43.617C42.2056 44.4002 41.8399 44.4957 41.2182 44.4002C40.3406 44.2474 39.4812 44.2665 38.6035 44.3811C36.7019 44.6103 35.2757 45.6036 34.1238 47.1319C33.2644 48.2589 32.6793 48.2207 32.0942 46.8644C31.3262 45.0497 30.0646 43.9035 28.2178 43.5215C27.3036 43.3304 27.0842 42.872 27.3219 41.9359C27.6327 40.6752 27.8704 39.3762 28.0532 38.0581C28.5286 34.4477 27.2304 32.5374 23.7746 32.0981C22.6593 31.9644 21.5256 31.7351 20.4285 31.8879L20.392 31.8689Z" fill="#3F75B7"/>
</svg>
