<svg width="65" height="78" viewBox="0 0 65 78" fill="none" xmlns="http://www.w3.org/2000/svg">
<path d="M25.001 0.0190491C26.1271 0.533376 27.3869 0.66672 28.494 1.23819C30.5364 2.26685 31.5289 3.79078 31.3571 6.11477C31.2044 8.43877 31.1472 10.7818 31.0517 13.1058C30.899 17.068 34.9074 18.8205 37.8851 17.3919C39.6793 16.5156 41.1873 15.3155 42.657 14.0392C45.0811 11.9438 48.1161 11.6581 50.3875 14.2678C51.0174 14.9917 51.6664 15.6965 52.1817 16.4965C53.0979 17.9062 53.0025 19.2968 52.0672 20.6112C51.151 21.8684 50.1775 23.0685 49.2231 24.3067C48.3069 25.4877 47.5816 26.745 47.1808 28.2118C46.7799 29.6785 47.3526 30.8596 48.0397 32.0978C49.624 34.879 52.2581 34.7647 54.8349 34.4408C56.7628 34.1932 58.6333 33.7741 60.5994 33.717C62.1073 33.6789 63.577 35.0695 63.8443 36.4219C64.0924 37.8125 64.5123 39.146 64.8177 40.5175C65.3331 42.7653 64.7986 44.0225 62.6608 44.8798C61.1338 45.5084 59.5495 45.9656 57.9844 46.537C56.6673 47.0133 55.4457 47.68 54.4722 48.7086C52.5062 50.7659 52.678 54.1376 54.7204 55.8902C56.4001 57.3188 58.3279 58.2332 60.3703 58.8999C61.2674 59.1857 62.2218 59.5095 63.0235 59.8905C63.6725 60.1953 64.4551 61.1287 64.4932 62.1954C64.5314 63.4908 64.3024 64.7289 63.9397 65.9671C63.7297 66.691 63.7107 67.472 63.4434 68.2149C62.6799 70.3675 61.0956 70.8247 58.9769 70.3484C58.0989 70.1579 57.2209 69.9484 56.3237 69.8913C54.5677 69.777 52.7734 69.777 51.0365 69.8532C49.7194 69.9103 48.5169 70.7866 47.6961 71.9676C46.3218 73.9297 46.5891 75.8917 47.7152 77.8347C48.6505 79.4349 50.0439 80.635 51.1892 82.0637C53.3079 84.6924 53.1361 86.7307 50.6738 89.0547C50.0821 89.6071 49.5285 90.2167 48.9368 90.7691C47.6771 91.9311 46.4745 92.1216 44.9475 91.3596C43.4587 90.6167 42.2371 89.4547 40.9009 88.4832C39.3549 87.3784 37.8469 86.2735 35.8427 86.1021C33.0941 85.8925 30.2882 88.2546 30.0783 91.5692C29.9256 94.0646 30.5173 96.4648 30.9754 98.884C31.338 100.77 30.67 101.989 28.7994 102.484C27.2342 102.903 25.7072 103.418 24.1611 103.837C22.5577 104.256 21.527 103.894 20.7635 102.446C19.9618 100.941 19.2747 99.3793 18.5112 97.8363C17.5759 95.9505 16.5642 94.1218 14.9036 92.7502C13.3575 91.4739 11.8114 91.493 10.3608 92.8836C8.26112 94.8647 6.81045 97.2839 5.87515 100.008C5.28344 101.76 4.51993 103.532 2.40121 103.665C-0.309235 103.837 -2.88606 103.17 -4.79482 101.113C-5.92099 99.9127 -5.67286 98.3316 -5.2911 96.8839C-4.56577 94.1218 -4.71847 91.3977 -5.69194 88.7309C-6.58906 86.2735 -8.45964 85.4353 -10.9601 86.2735C-13.3461 87.0736 -15.5793 88.1594 -17.4308 89.95C-17.7744 90.2738 -18.1752 90.5596 -18.5761 90.8072C-20.1031 91.7597 -21.611 91.9121 -23.1953 90.8072C-24.436 89.95 -25.524 88.9594 -26.3829 87.7213C-27.6618 85.8925 -27.6236 84.3496 -26.1539 82.6542C-24.5314 80.8064 -23.4053 78.6539 -22.1646 76.5775C-20.5803 73.9297 -21.4965 71.3199 -24.1306 69.8913C-25.4285 69.1864 -27.1273 69.2626 -28.7116 69.5484C-30.8876 69.9294 -33.0827 70.1961 -35.2968 69.6627C-37.1102 69.2245 -37.8546 67.7578 -38.5036 66.2719C-38.9808 65.1671 -38.9044 63.9289 -38.9617 62.7478C-39.038 61.1668 -38.3318 60.1 -36.9766 59.3952C-35.2968 58.5189 -33.579 57.757 -31.7847 57.1283C-30.315 56.614 -29.0743 55.6616 -28.2726 54.4043C-26.8028 52.0803 -27.5282 48.1753 -30.6967 46.8609C-32.8918 45.9465 -35.1441 45.1655 -37.3201 44.213C-38.1982 43.8321 -38.9044 43.0701 -38.9808 41.87C-39.0953 39.8127 -38.6944 37.8697 -37.8928 36.0029C-37.1483 34.2503 -35.2587 33.2979 -33.2354 33.5836C-31.4793 33.8122 -29.7423 34.1741 -27.9863 34.3265C-25.6194 34.517 -22.7563 33.8503 -21.6683 31.0501C-21.1338 29.6595 -21.611 26.2497 -22.7372 24.8782C-24.1878 23.0685 -25.6767 21.2588 -26.841 19.2206C-27.3564 18.3253 -27.0701 16.5918 -26.2302 15.8489C-25.0659 14.8202 -23.9397 13.7344 -22.8899 12.5724C-21.7637 11.3342 -19.9122 11.2771 -18.7479 12.3629C-17.6408 13.3915 -16.3619 14.1726 -15.083 14.9536C-14.3386 15.4107 -13.6324 16.0394 -12.8689 16.5156C-11.3228 17.4681 -9.70034 18.0395 -7.86793 17.2966C-5.32928 16.2489 -4.01223 13.2963 -4.58485 10.5913C-5.00478 8.55306 -5.57741 6.5148 -5.38653 4.3813C-5.31018 3.46694 -5.06205 2.70498 -4.20311 2.2097C-3.11512 1.58108 -2.10347 0.800064 -0.786423 0.66672C-0.404671 0.628621 -0.0229111 0.533376 -0.0801773 0.0190491H2.97384C4.61538 0.66672 5.60793 1.92396 6.16147 3.54314C6.25691 3.82888 6.33326 4.11461 6.44779 4.40035C7.11586 6.22907 7.72665 8.09588 8.94826 9.65791C10.9525 12.2295 14.9609 13.3344 17.2896 9.27693C18.3012 7.48631 19.3319 5.71474 20.0954 3.79078C20.7253 2.2097 21.4125 0.704818 23.1304 0H24.9628L25.001 0.0190491ZM28.4176 30.0214C28.5322 30.4215 28.5894 30.6691 28.6658 30.9358C28.933 31.9454 29.143 32.974 29.4865 33.9456C29.7729 34.7647 30.4409 35.2218 31.319 35.0695C32.2161 34.9171 32.8269 34.4789 32.8078 33.355C32.8078 32.4026 32.5787 31.4882 32.5024 30.5548C32.4833 30.2119 32.1015 29.6595 32.4833 29.5643C32.9796 29.4309 33.934 29.5262 34.0485 29.8119C34.4302 30.7072 35.3083 31.2025 35.5946 32.1359C36.0145 33.4884 35.7473 34.7456 35.2701 35.9838C34.7356 37.3553 34.3157 38.765 34.0867 40.2318C33.8767 41.5652 33.6285 42.9177 32.5215 44.0606C30.7845 45.8322 28.6849 46.7466 26.4516 47.5085C25.1155 47.9657 24.6574 48.4038 24.6574 49.7754C24.6574 50.6516 24.5619 51.5279 24.6001 52.4232C24.7146 55.6425 24.6574 58.8428 24.6383 62.0621C24.6383 62.9574 24.3901 63.8336 23.5312 64.2908C22.8059 64.6718 22.5959 65.2623 22.615 65.9481C22.615 71.2819 22.4241 76.6156 22.844 81.9494C22.9013 82.6161 23.054 83.2828 23.0922 83.9495C23.1495 84.8067 23.5694 84.902 24.2947 84.6353C27.5014 83.4352 30.5555 81.9303 33.3804 79.9683C38.6295 76.2918 42.3134 71.358 45.0048 65.6243C46.4363 62.5573 47.1426 59.2618 47.6198 55.9092C47.9825 53.3947 47.9443 50.8612 47.7343 48.3657C47.5625 46.2513 46.6654 44.194 46.2264 42.0795C46.0737 41.3557 45.8065 40.6508 45.5392 39.9651C42.2753 31.6978 36.6062 25.5639 28.8376 21.2969C26.6425 20.0968 24.3329 19.2396 21.8897 18.7062C20.5535 18.4205 19.2747 17.9252 17.9385 17.7157C15.3235 17.2966 12.6894 17.2204 10.0363 17.449C5.35979 17.8681 0.950554 19.0872 -3.15328 21.335C-12.1054 26.2497 -17.8889 33.717 -20.4658 43.5654C-21.6492 48.1181 -21.9164 52.7851 -21.1147 57.4903C-19.9313 64.3289 -17.1827 70.4056 -12.449 75.5298C-8.65052 79.6635 -4.06949 82.6351 1.21778 84.521C1.86676 84.7496 2.09581 84.54 2.22942 83.9876C2.63026 82.2732 3.03111 80.5588 3.05019 78.8063C3.10746 74.5012 3.05019 70.2151 3.08836 65.91C3.08836 65.1861 2.85932 64.5956 2.24852 64.2908C1.29414 63.8146 1.16052 63.0336 1.16052 62.1002C1.17961 57.9094 1.16052 53.7186 1.16052 49.5087C1.16052 49.1658 1.14142 48.842 1.10325 48.4991C1.08416 48.2324 0.893288 47.9848 0.645149 48.1181C0.0152588 48.4229 -0.729164 48.2324 -1.35906 48.6705C-4.05041 50.5564 -4.41307 51.8898 -2.08438 54.0805C0.282482 56.2902 0.358833 58.0427 -1.54993 60.6715C-1.70263 60.881 -1.79807 61.243 -2.14164 61.1096C-2.38978 60.9953 -2.38979 60.6905 -2.44705 60.4238C-2.65702 59.4142 -2.84789 58.3665 -3.19147 57.395C-3.55413 56.3283 -4.22219 56.0235 -5.25292 56.2521C-6.18821 56.4616 -6.74175 57.1664 -6.68449 58.1761C-6.66541 58.6523 -6.51271 59.1095 -6.43636 59.5666C-6.30275 60.4048 -5.95917 61.2239 -6.18822 62.2335C-7.04717 61.6239 -7.82975 61.1096 -8.47873 60.4238C-9.41403 59.4142 -9.79578 58.2903 -9.43311 56.8998C-8.93684 55.0139 -8.07789 53.2423 -7.86793 51.2803C-7.6007 48.861 -6.3791 46.918 -4.33672 45.6798C-0.843685 43.5654 2.95475 42.4224 7.11585 42.9939C7.53578 43.051 7.91754 42.9939 8.31838 42.8796C8.54743 42.8034 8.85283 42.7844 8.85283 42.5177C8.85283 42.2129 8.56652 42.0986 8.29929 42.0224C7.70757 41.8319 7.09676 41.9081 6.48596 41.87C6.04694 41.8509 5.72246 41.7747 5.64611 41.2223C5.5125 39.946 4.86351 38.8412 4.11909 37.8697C3.27924 36.7458 3.16472 35.5647 3.2029 34.2694C3.22198 33.6217 3.4892 33.1645 4.1 32.936C4.84442 32.6693 5.09257 32.1168 5.09257 31.3549C5.11166 27.9832 5.28344 27.8308 8.68103 27.8308C9.90265 27.8308 11.1433 27.8308 12.4413 27.8308C12.2122 27.1641 11.8496 26.8212 11.5251 26.4402C11.1242 26.0021 10.628 25.6401 10.5325 24.9734C10.3989 23.9257 10.9716 22.7256 11.8305 22.3446C12.8231 21.9065 13.7393 22.0779 14.4073 22.8209C15.419 23.9448 15.4762 24.5734 14.7509 25.8116C14.5409 26.1735 14.1783 26.364 13.9492 26.6497C13.7583 26.8783 13.2621 26.9926 13.4148 27.3927C13.5293 27.7355 13.9492 27.6974 14.2164 27.7165C15.1899 27.7927 16.1825 27.8117 17.1559 27.8117C20.0954 27.8117 20.4581 28.1356 20.4963 31.1072C20.4963 31.7168 20.5726 32.3454 21.1262 32.6312C22.8822 33.5265 22.386 35.0123 22.2142 36.441C22.1378 36.9934 21.9088 37.5458 21.3743 37.7554C20.4963 38.0792 20.4772 38.7269 20.5535 39.4508C20.6872 40.6699 20.1527 41.47 18.9884 41.889C18.3776 42.0986 17.7858 41.9843 17.175 42.0414C16.9651 42.0605 16.7551 42.0414 16.6978 42.3081C16.6406 42.5367 16.8124 42.6891 16.9841 42.7844C17.2705 42.9558 17.5759 43.0701 17.9385 43.032C19.6755 42.8986 21.4316 42.8605 23.1304 43.1844C26.967 43.9463 28.5513 42.3081 29.8492 40.1365C30.2691 39.4317 30.1355 38.8793 29.4293 38.3269C28.2077 37.3554 27.3296 36.06 26.4707 34.7837C26.3753 34.6313 26.2798 34.3837 26.318 34.2122C26.6616 32.7074 27.1197 31.2215 28.4176 30.0024V30.0214ZM15.4381 72.6153C15.4381 72.3867 15.4381 72.3295 15.4381 72.2533C15.4381 70.6913 15.4381 69.1483 15.4381 67.5863C15.4381 64.3861 15.3426 64.2908 12.0596 64.367C11.7923 64.367 11.5442 64.4432 11.277 64.4813C10.7043 64.5766 10.3608 64.9385 10.3608 65.3957C10.3608 66.291 9.88356 67.091 9.94083 67.9673C10.1317 70.9009 9.94082 73.8154 9.99809 76.7489C10.0553 79.7587 10.3417 82.7304 11.3533 85.5877C11.5824 86.2164 11.9259 86.5021 12.6131 86.4831C13.3003 86.4831 13.7583 86.3307 14.0065 85.6068C14.4264 84.3876 14.7891 83.1876 15.0181 81.9113C15.5908 78.7682 15.5335 75.587 15.419 72.5772L15.4381 72.6153ZM15.9152 47.7562C15.7244 48.6134 15.2472 48.9563 14.9036 49.3944C14.2164 50.2707 14.3882 50.7278 15.3426 51.2803C16.2206 51.7946 17.0414 51.4517 17.8813 51.3755C18.6829 51.2993 19.1029 50.8802 19.0838 50.0421C19.0838 48.9563 19.0838 47.8895 19.0838 46.8037C19.0838 45.8513 18.5112 45.3179 17.6522 45.3179C14.5028 45.2798 11.3533 45.2798 8.20385 45.3179C7.24947 45.3179 6.58141 45.7751 6.54323 46.8418C6.50505 48.0229 6.48597 49.2039 6.46688 50.385C6.46688 50.6897 6.63866 50.8802 6.86772 51.0517C7.9748 51.8327 9.86446 51.6993 10.9143 50.7659C11.3915 50.3469 11.9068 49.9278 12.5177 49.7182C13.7011 49.3182 14.7509 48.6896 15.9152 47.7752V47.7562ZM12.804 40.4223C14.0256 40.4223 15.2472 40.4413 16.4688 40.4223C17.614 40.4032 18.3203 39.6984 18.3012 38.7078C18.2821 37.7363 17.6331 37.1839 16.4306 37.1839C14.0447 37.1839 11.6587 37.1839 9.27276 37.1839C8.01298 37.1839 7.47852 37.6601 7.45943 38.7078C7.44034 39.7936 8.05115 40.4032 9.23458 40.4223C10.418 40.4413 11.6014 40.4223 12.804 40.4223ZM8.94826 30.8596C7.51669 30.8596 6.58141 31.7359 6.54323 33.1264C6.50505 34.4599 7.59304 35.5647 8.96735 35.5457C10.2462 35.5457 11.3533 34.4218 11.3342 33.1645C11.3342 31.793 10.3607 30.8786 8.94826 30.8786V30.8596ZM16.8505 30.8596C15.2854 30.8405 14.4264 31.6597 14.4264 33.1836C14.4264 34.6313 15.3235 35.5457 16.736 35.5647C18.0721 35.5647 19.0456 34.7456 19.0647 33.5646C19.0838 31.9454 18.2248 30.8977 16.8505 30.8786V30.8596ZM14.4264 24.5353C14.4264 23.6971 13.7583 22.9923 12.9185 22.9542C12.0977 22.9161 11.3915 23.5638 11.3724 24.3638C11.3533 25.2591 11.8496 25.7544 12.823 25.7925C13.8347 25.8306 14.4073 25.3734 14.4264 24.5353Z" fill="#379D8A"/>
</svg>
