<svg width="104" height="28" viewBox="0 0 104 28" fill="none" xmlns="http://www.w3.org/2000/svg">
<path d="M64.001 0.0190491C65.1271 0.533376 66.3869 0.66672 67.494 1.23819C69.5364 2.26685 70.5289 3.79078 70.3571 6.11477C70.2044 8.43877 70.1472 10.7818 70.0517 13.1058C69.899 17.068 73.9074 18.8205 76.8851 17.3919C78.6793 16.5156 80.1873 15.3155 81.657 14.0392C84.0811 11.9438 87.1161 11.6581 89.3875 14.2678C90.0174 14.9917 90.6664 15.6965 91.1817 16.4965C92.0979 17.9062 92.0025 19.2968 91.0672 20.6112C90.151 21.8684 89.1775 23.0685 88.2231 24.3067C87.3069 25.4877 86.5816 26.745 86.1808 28.2118C85.7799 29.6785 86.3526 30.8596 87.0397 32.0978C88.624 34.879 91.2581 34.7647 93.8349 34.4408C95.7628 34.1932 97.6333 33.7741 99.5994 33.717C101.107 33.6789 102.577 35.0695 102.844 36.4219C103.092 37.8125 103.512 39.146 103.818 40.5175C104.333 42.7653 103.799 44.0225 101.661 44.8798C100.134 45.5084 98.5495 45.9656 96.9844 46.537C95.6673 47.0133 94.4457 47.68 93.4722 48.7086C91.5062 50.7659 91.678 54.1376 93.7204 55.8902C95.4001 57.3188 97.3279 58.2332 99.3703 58.8999C100.267 59.1857 101.222 59.5095 102.023 59.8905C102.672 60.1953 103.455 61.1287 103.493 62.1954C103.531 63.4908 103.302 64.7289 102.94 65.9671C102.73 66.691 102.711 67.472 102.443 68.2149C101.68 70.3675 100.096 70.8247 97.9769 70.3484C97.0989 70.1579 96.2209 69.9484 95.3237 69.8913C93.5677 69.777 91.7734 69.777 90.0365 69.8532C88.7194 69.9103 87.5169 70.7866 86.6961 71.9676C85.3218 73.9297 85.5891 75.8917 86.7152 77.8347C87.6505 79.4349 89.0439 80.635 90.1892 82.0637C92.3079 84.6924 92.1361 86.7307 89.6738 89.0547C89.0821 89.6071 88.5285 90.2167 87.9368 90.7691C86.6771 91.9311 85.4745 92.1216 83.9475 91.3596C82.4587 90.6167 81.2371 89.4547 79.9009 88.4832C78.3549 87.3784 76.8469 86.2735 74.8427 86.1021C72.0941 85.8925 69.2882 88.2546 69.0783 91.5692C68.9256 94.0646 69.5173 96.4648 69.9754 98.884C70.338 100.77 69.67 101.989 67.7994 102.484C66.2342 102.903 64.7072 103.418 63.1611 103.837C61.5577 104.256 60.527 103.894 59.7635 102.446C58.9618 100.941 58.2747 99.3793 57.5112 97.8363C56.5759 95.9505 55.5642 94.1218 53.9036 92.7502C52.3575 91.4739 50.8114 91.493 49.3608 92.8836C47.2611 94.8647 45.8104 97.2839 44.8752 100.008C44.2834 101.76 43.5199 103.532 41.4012 103.665C38.6908 103.837 36.1139 103.17 34.2052 101.113C33.079 99.9127 33.3271 98.3316 33.7089 96.8839C34.4342 94.1218 34.2815 91.3977 33.3081 88.7309C32.4109 86.2735 30.5404 85.4353 28.0399 86.2735C25.6539 87.0736 23.4207 88.1594 21.5692 89.95C21.2256 90.2738 20.8248 90.5596 20.4239 90.8072C18.8969 91.7597 17.389 91.9121 15.8047 90.8072C14.564 89.95 13.476 88.9594 12.6171 87.7213C11.3382 85.8925 11.3764 84.3496 12.8461 82.6542C14.4686 80.8064 15.5947 78.6539 16.8354 76.5775C18.4197 73.9297 17.5035 71.3199 14.8694 69.8913C13.5715 69.1864 11.8727 69.2626 10.2884 69.5484C8.11239 69.9294 5.91732 70.1961 3.70316 69.6627C1.88984 69.2245 1.14542 67.7578 0.496438 66.2719C0.0192477 65.1671 0.095595 63.9289 0.0383321 62.7478C-0.0380183 61.1668 0.668226 60.1 2.02345 59.3952C3.70316 58.5189 5.42105 57.757 7.21528 57.1283C8.68503 56.614 9.92572 55.6616 10.7274 54.4043C12.1972 52.0803 11.4718 48.1753 8.30328 46.8609C6.1082 45.9465 3.85586 45.1655 1.67987 44.213C0.801838 43.8321 0.0955982 43.0701 0.0192477 41.87C-0.095278 39.8127 0.305561 37.8697 1.10724 36.0029C1.85166 34.2503 3.74133 33.2979 5.76462 33.5836C7.52068 33.8122 9.25765 34.1741 11.0137 34.3265C13.3806 34.517 16.2437 33.8503 17.3317 31.0501C17.8662 29.6595 17.389 26.2497 16.2628 24.8782C14.8122 23.0685 13.3233 21.2588 12.159 19.2206C11.6436 18.3253 11.9299 16.5918 12.7698 15.8489C13.9341 14.8202 15.0603 13.7344 16.1101 12.5724C17.2363 11.3342 19.0878 11.2771 20.2521 12.3629C21.3592 13.3915 22.6381 14.1726 23.917 14.9536C24.6614 15.4107 25.3676 16.0394 26.1311 16.5156C27.6772 17.4681 29.2997 18.0395 31.1321 17.2966C33.6707 16.2489 34.9878 13.2963 34.4151 10.5913C33.9952 8.55306 33.4226 6.5148 33.6135 4.3813C33.6898 3.46694 33.9379 2.70498 34.7969 2.2097C35.8849 1.58108 36.8965 0.800064 38.2136 0.66672C38.5953 0.628621 38.9771 0.533376 38.9198 0.0190491H41.9738C43.6154 0.66672 44.6079 1.92396 45.1615 3.54314C45.2569 3.82888 45.3333 4.11461 45.4478 4.40035C46.1159 6.22907 46.7267 8.09588 47.9483 9.65791C49.9525 12.2295 53.9609 13.3344 56.2896 9.27693C57.3012 7.48631 58.3319 5.71474 59.0954 3.79078C59.7253 2.2097 60.4125 0.704818 62.1304 0H63.9628L64.001 0.0190491ZM67.4176 30.0214C67.5322 30.4215 67.5894 30.6691 67.6658 30.9358C67.933 31.9454 68.143 32.974 68.4865 33.9456C68.7729 34.7647 69.4409 35.2218 70.319 35.0695C71.2161 34.9171 71.8269 34.4789 71.8078 33.355C71.8078 32.4026 71.5787 31.4882 71.5024 30.5548C71.4833 30.2119 71.1015 29.6595 71.4833 29.5643C71.9796 29.4309 72.934 29.5262 73.0485 29.8119C73.4302 30.7072 74.3083 31.2025 74.5946 32.1359C75.0145 33.4884 74.7473 34.7456 74.2701 35.9838C73.7356 37.3553 73.3157 38.765 73.0867 40.2318C72.8767 41.5652 72.6285 42.9177 71.5215 44.0606C69.7845 45.8322 67.6849 46.7466 65.4516 47.5085C64.1155 47.9657 63.6574 48.4038 63.6574 49.7754C63.6574 50.6516 63.5619 51.5279 63.6001 52.4232C63.7146 55.6425 63.6574 58.8428 63.6383 62.0621C63.6383 62.9574 63.3901 63.8336 62.5312 64.2908C61.8059 64.6718 61.5959 65.2623 61.615 65.9481C61.615 71.2819 61.4241 76.6156 61.844 81.9494C61.9013 82.6161 62.054 83.2828 62.0922 83.9495C62.1495 84.8067 62.5694 84.902 63.2947 84.6353C66.5014 83.4352 69.5555 81.9303 72.3804 79.9683C77.6295 76.2918 81.3134 71.358 84.0048 65.6243C85.4363 62.5573 86.1426 59.2618 86.6198 55.9092C86.9825 53.3947 86.9443 50.8612 86.7343 48.3657C86.5625 46.2513 85.6654 44.194 85.2264 42.0795C85.0737 41.3557 84.8065 40.6508 84.5392 39.9651C81.2753 31.6978 75.6062 25.5639 67.8376 21.2969C65.6425 20.0968 63.3329 19.2396 60.8897 18.7062C59.5535 18.4205 58.2747 17.9252 56.9385 17.7157C54.3235 17.2966 51.6894 17.2204 49.0363 17.449C44.3598 17.8681 39.9506 19.0872 35.8467 21.335C26.8946 26.2497 21.1111 33.717 18.5342 43.5654C17.3508 48.1181 17.0836 52.7851 17.8853 57.4903C19.0687 64.3289 21.8173 70.4056 26.551 75.5298C30.3495 79.6635 34.9305 82.6351 40.2178 84.521C40.8668 84.7496 41.0958 84.54 41.2294 83.9876C41.6303 82.2732 42.0311 80.5588 42.0502 78.8063C42.1075 74.5012 42.0502 70.2151 42.0884 65.91C42.0884 65.1861 41.8593 64.5956 41.2485 64.2908C40.2941 63.8146 40.1605 63.0336 40.1605 62.1002C40.1796 57.9094 40.1605 53.7186 40.1605 49.5087C40.1605 49.1658 40.1414 48.842 40.1032 48.4991C40.0842 48.2324 39.8933 47.9848 39.6451 48.1181C39.0153 48.4229 38.2708 48.2324 37.6409 48.6705C34.9496 50.5564 34.5869 51.8898 36.9156 54.0805C39.2825 56.2902 39.3588 58.0427 37.4501 60.6715C37.2974 60.881 37.2019 61.243 36.8584 61.1096C36.6102 60.9953 36.6102 60.6905 36.5529 60.4238C36.343 59.4142 36.1521 58.3665 35.8085 57.395C35.4459 56.3283 34.7778 56.0235 33.7471 56.2521C32.8118 56.4616 32.2582 57.1664 32.3155 58.1761C32.3346 58.6523 32.4873 59.1095 32.5636 59.5666C32.6973 60.4048 33.0408 61.2239 32.8118 62.2335C31.9528 61.6239 31.1702 61.1096 30.5213 60.4238C29.586 59.4142 29.2042 58.2903 29.5669 56.8998C30.0632 55.0139 30.9221 53.2423 31.1321 51.2803C31.3993 48.861 32.6209 46.918 34.6633 45.6798C38.1563 43.5654 41.9548 42.4224 46.1159 42.9939C46.5358 43.051 46.9175 42.9939 47.3184 42.8796C47.5474 42.8034 47.8528 42.7844 47.8528 42.5177C47.8528 42.2129 47.5665 42.0986 47.2993 42.0224C46.7076 41.8319 46.0968 41.9081 45.486 41.87C45.0469 41.8509 44.7225 41.7747 44.6461 41.2223C44.5125 39.946 43.8635 38.8412 43.1191 37.8697C42.2792 36.7458 42.1647 35.5647 42.2029 34.2694C42.222 33.6217 42.4892 33.1645 43.1 32.936C43.8444 32.6693 44.0926 32.1168 44.0926 31.3549C44.1117 27.9832 44.2834 27.8308 47.681 27.8308C48.9026 27.8308 50.1433 27.8308 51.4413 27.8308C51.2122 27.1641 50.8496 26.8212 50.5251 26.4402C50.1242 26.0021 49.628 25.6401 49.5325 24.9734C49.3989 23.9257 49.9716 22.7256 50.8305 22.3446C51.8231 21.9065 52.7393 22.0779 53.4073 22.8209C54.419 23.9448 54.4762 24.5734 53.7509 25.8116C53.5409 26.1735 53.1783 26.364 52.9492 26.6497C52.7583 26.8783 52.2621 26.9926 52.4148 27.3927C52.5293 27.7355 52.9492 27.6974 53.2164 27.7165C54.1899 27.7927 55.1825 27.8117 56.1559 27.8117C59.0954 27.8117 59.4581 28.1356 59.4963 31.1072C59.4963 31.7168 59.5726 32.3454 60.1262 32.6312C61.8822 33.5265 61.386 35.0123 61.2142 36.441C61.1378 36.9934 60.9088 37.5458 60.3743 37.7554C59.4963 38.0792 59.4772 38.7269 59.5535 39.4508C59.6872 40.6699 59.1527 41.47 57.9884 41.889C57.3776 42.0986 56.7858 41.9843 56.175 42.0414C55.9651 42.0605 55.7551 42.0414 55.6978 42.3081C55.6406 42.5367 55.8124 42.6891 55.9841 42.7844C56.2705 42.9558 56.5759 43.0701 56.9385 43.032C58.6755 42.8986 60.4316 42.8605 62.1304 43.1844C65.967 43.9463 67.5513 42.3081 68.8492 40.1365C69.2691 39.4317 69.1355 38.8793 68.4293 38.3269C67.2077 37.3554 66.3296 36.06 65.4707 34.7837C65.3753 34.6313 65.2798 34.3837 65.318 34.2122C65.6616 32.7074 66.1197 31.2215 67.4176 30.0024V30.0214ZM54.4381 72.6153C54.4381 72.3867 54.4381 72.3295 54.4381 72.2533C54.4381 70.6913 54.4381 69.1483 54.4381 67.5863C54.4381 64.3861 54.3426 64.2908 51.0596 64.367C50.7923 64.367 50.5442 64.4432 50.277 64.4813C49.7043 64.5766 49.3608 64.9385 49.3608 65.3957C49.3608 66.291 48.8836 67.091 48.9408 67.9673C49.1317 70.9009 48.9408 73.8154 48.9981 76.7489C49.0553 79.7587 49.3417 82.7304 50.3533 85.5877C50.5824 86.2164 50.9259 86.5021 51.6131 86.4831C52.3003 86.4831 52.7583 86.3307 53.0065 85.6068C53.4264 84.3876 53.7891 83.1876 54.0181 81.9113C54.5908 78.7682 54.5335 75.587 54.419 72.5772L54.4381 72.6153ZM54.9152 47.7562C54.7244 48.6134 54.2472 48.9563 53.9036 49.3944C53.2164 50.2707 53.3882 50.7278 54.3426 51.2803C55.2206 51.7946 56.0414 51.4517 56.8813 51.3755C57.6829 51.2993 58.1029 50.8802 58.0838 50.0421C58.0838 48.9563 58.0838 47.8895 58.0838 46.8037C58.0838 45.8513 57.5112 45.3179 56.6522 45.3179C53.5028 45.2798 50.3533 45.2798 47.2038 45.3179C46.2495 45.3179 45.5814 45.7751 45.5432 46.8418C45.5051 48.0229 45.486 49.2039 45.4669 50.385C45.4669 50.6897 45.6387 50.8802 45.8677 51.0517C46.9748 51.8327 48.8645 51.6993 49.9143 50.7659C50.3915 50.3469 50.9068 49.9278 51.5177 49.7182C52.7011 49.3182 53.7509 48.6896 54.9152 47.7752V47.7562ZM51.804 40.4223C53.0256 40.4223 54.2472 40.4413 55.4688 40.4223C56.614 40.4032 57.3203 39.6984 57.3012 38.7078C57.2821 37.7363 56.6331 37.1839 55.4306 37.1839C53.0447 37.1839 50.6587 37.1839 48.2728 37.1839C47.013 37.1839 46.4785 37.6601 46.4594 38.7078C46.4403 39.7936 47.0511 40.4032 48.2346 40.4223C49.418 40.4413 50.6014 40.4223 51.804 40.4223ZM47.9483 30.8596C46.5167 30.8596 45.5814 31.7359 45.5432 33.1264C45.5051 34.4599 46.593 35.5647 47.9674 35.5457C49.2462 35.5457 50.3533 34.4218 50.3342 33.1645C50.3342 31.793 49.3607 30.8786 47.9483 30.8786V30.8596ZM55.8505 30.8596C54.2854 30.8405 53.4264 31.6597 53.4264 33.1836C53.4264 34.6313 54.3235 35.5457 55.736 35.5647C57.0721 35.5647 58.0456 34.7456 58.0647 33.5646C58.0838 31.9454 57.2248 30.8977 55.8505 30.8786V30.8596ZM53.4264 24.5353C53.4264 23.6971 52.7583 22.9923 51.9185 22.9542C51.0977 22.9161 50.3915 23.5638 50.3724 24.3638C50.3533 25.2591 50.8496 25.7544 51.823 25.7925C52.8347 25.8306 53.4073 25.3734 53.4264 24.5353Z" fill="#379D8A"/>
</svg>
