<svg width="150" height="150" viewBox="0 0 150 150" fill="none" xmlns="http://www.w3.org/2000/svg">
<g clip-path="url(#clip0_125_176)">
<rect width="150" height="150" fill="white"/>
<circle cx="115.5" cy="68.5" r="1.5" fill="#D9D9D9"/>
<circle cx="115.5" cy="59.5" r="1.5" fill="#D9D9D9"/>
<circle cx="115.5" cy="50.5" r="1.5" fill="#D9D9D9"/>
<path d="M150 42L124 68H150V42Z" fill="#2FB9C9"/>
<rect x="63.7603" y="-2.3009" width="108.981" height="50.4862" transform="rotate(135 63.7603 -2.3009)" fill="#10A3A3"/>
<path d="M9 42L52 -1" stroke="#264C8B" stroke-linecap="round"/>
<rect x="32.7603" y="-19.3009" width="108.981" height="50.4862" transform="rotate(135 32.7603 -19.3009)" fill="#131C3B"/>
<circle cx="24" cy="3" r="1" fill="white"/>
<circle cx="18" cy="3" r="1" fill="white"/>
<circle cx="12" cy="3" r="1" fill="white"/>
<circle cx="6" cy="3" r="1" fill="white"/>
<path opacity="0.8" d="M93 0L58 35H26L61 0H93Z" fill="url(#paint0_linear_125_176)"/>
<path opacity="0.8" d="M45 150L80 115L112 115L77 150L45 150Z" fill="url(#paint1_linear_125_176)"/>
<path d="M36 35L61.5 9.5" stroke="white" stroke-width="0.5" stroke-linecap="round"/>
<path d="M38 137V152.5H53.5L38 137Z" fill="#01998C"/>
<rect width="108.981" height="50.4862" transform="matrix(-0.707107 -0.707107 -0.707107 0.707107 58.7603 169.061)" fill="url(#paint2_linear_125_176)"/>
<path d="M61 144.5L124.5 81" stroke="#54BCCA" stroke-linecap="round"/>
<rect x="77" y="151.061" width="108.981" height="50.4862" transform="rotate(-45 77 151.061)" fill="url(#paint3_linear_125_176)"/>
<circle cx="130" cy="116" r="1" fill="#D9D9D9"/>
<circle cx="136" cy="116" r="1" fill="#D9D9D9"/>
<circle cx="142" cy="116" r="1" fill="#D9D9D9"/>
<circle cx="147" cy="116" r="1" fill="#D9D9D9"/>
<circle cx="147.5" cy="126.5" r="0.5" fill="#17A1A4"/>
<circle cx="145.5" cy="126.5" r="0.5" fill="#17A1A4"/>
<circle cx="143.5" cy="126.5" r="0.5" fill="#17A1A4"/>
<circle cx="141.5" cy="126.5" r="0.5" fill="#17A1A4"/>
<circle cx="147.5" cy="128.5" r="0.5" fill="#17A1A4"/>
<circle cx="145.5" cy="128.5" r="0.5" fill="#17A1A4"/>
<circle cx="143.5" cy="128.5" r="0.5" fill="#17A1A4"/>
<circle cx="141.5" cy="128.5" r="0.5" fill="#17A1A4"/>
<circle cx="147.5" cy="130.5" r="0.5" fill="#17A1A4"/>
<circle cx="145.5" cy="130.5" r="0.5" fill="#17A1A4"/>
<circle cx="143.5" cy="130.5" r="0.5" fill="#17A1A4"/>
<circle cx="141.5" cy="130.5" r="0.5" fill="#17A1A4"/>
<circle cx="147.5" cy="132.5" r="0.5" fill="#17A1A4"/>
<circle cx="145.5" cy="132.5" r="0.5" fill="#17A1A4"/>
<circle cx="143.5" cy="132.5" r="0.5" fill="#17A1A4"/>
<circle cx="141.5" cy="132.5" r="0.5" fill="#17A1A4"/>
<g clip-path="url(#clip1_125_176)">
<path d="M94.4221 8.18825C94.5668 8.25471 94.7286 8.27194 94.8708 8.34579C95.1331 8.47871 95.2606 8.67563 95.2386 8.97593C95.219 9.27623 95.2116 9.57899 95.1993 9.87929C95.1797 10.3913 95.6946 10.6177 96.0771 10.4331C96.3076 10.3199 96.5013 10.1648 96.6901 9.99991C97.0015 9.72914 97.3913 9.69222 97.6831 10.0294C97.764 10.123 97.8474 10.2141 97.9136 10.3174C98.0312 10.4996 98.019 10.6793 97.8988 10.8491C97.7812 11.0116 97.6561 11.1667 97.5335 11.3266C97.4158 11.4793 97.3227 11.6417 97.2712 11.8313C97.2197 12.0208 97.2932 12.1734 97.3815 12.3334C97.585 12.6928 97.9234 12.678 98.2544 12.6362C98.502 12.6042 98.7423 12.55 98.9948 12.5426C99.1885 12.5377 99.3773 12.7174 99.4116 12.8922C99.4435 13.0718 99.4975 13.2441 99.5367 13.4214C99.6029 13.7118 99.5342 13.8743 99.2596 13.9851C99.0635 14.0663 98.86 14.1254 98.6589 14.1992C98.4897 14.2607 98.3328 14.3469 98.2078 14.4798C97.9552 14.7457 97.9773 15.1813 98.2396 15.4078C98.4554 15.5924 98.7031 15.7106 98.9654 15.7967C99.0806 15.8336 99.2032 15.8755 99.3062 15.9247C99.3896 15.9641 99.4901 16.0847 99.495 16.2225C99.4999 16.3899 99.4705 16.5499 99.4239 16.7099C99.3969 16.8035 99.3945 16.9044 99.3602 17.0004C99.2621 17.2785 99.0586 17.3376 98.7864 17.2761C98.6736 17.2514 98.5608 17.2244 98.4456 17.217C98.22 17.2022 97.9896 17.2022 97.7664 17.2121C97.5973 17.2194 97.4428 17.3327 97.3374 17.4853C97.1608 17.7388 97.1952 17.9923 97.3398 18.2434C97.46 18.4502 97.6389 18.6053 97.7861 18.7899C98.0582 19.1296 98.0361 19.3929 97.7199 19.6932C97.6438 19.7646 97.5727 19.8434 97.4967 19.9148C97.3349 20.0649 97.1804 20.0895 96.9843 19.9911C96.7931 19.8951 96.6361 19.7449 96.4645 19.6194C96.2659 19.4766 96.0722 19.3339 95.8148 19.3117C95.4617 19.2846 95.1013 19.5899 95.0743 20.0182C95.0547 20.3406 95.1307 20.6508 95.1895 20.9634C95.2361 21.2071 95.1503 21.3646 94.91 21.4286C94.709 21.4827 94.5128 21.5492 94.3142 21.6033C94.1083 21.6575 93.9759 21.6107 93.8778 21.4237C93.7748 21.2292 93.6865 21.0274 93.5885 20.828C93.4683 20.5843 93.3384 20.348 93.1251 20.1708C92.9265 20.0058 92.7279 20.0083 92.5415 20.188C92.2718 20.444 92.0855 20.7566 91.9653 21.1086C91.8893 21.335 91.7913 21.564 91.5191 21.5812C91.1709 21.6033 90.8399 21.5172 90.5947 21.2514C90.4501 21.0963 90.482 20.892 90.531 20.7049C90.6242 20.348 90.6046 19.996 90.4795 19.6514C90.3643 19.3339 90.124 19.2256 89.8028 19.3339C89.4963 19.4372 89.2094 19.5775 88.9716 19.8089C88.9275 19.8508 88.876 19.8877 88.8245 19.9197C88.6284 20.0428 88.4347 20.0625 88.2312 19.9197C88.0718 19.8089 87.932 19.6809 87.8217 19.5209C87.6574 19.2846 87.6623 19.0852 87.8511 18.8662C88.0595 18.6274 88.2042 18.3493 88.3636 18.081C88.5671 17.7388 88.4494 17.4016 88.111 17.217C87.9443 17.1259 87.7261 17.1358 87.5226 17.1727C87.243 17.2219 86.9611 17.2564 86.6767 17.1874C86.4437 17.1308 86.3481 16.9413 86.2648 16.7493C86.2035 16.6065 86.2133 16.4465 86.2059 16.2939C86.1961 16.0896 86.2868 15.9518 86.4609 15.8607C86.6767 15.7475 86.8973 15.649 87.1278 15.5678C87.3166 15.5013 87.476 15.3783 87.579 15.2158C87.7677 14.9155 87.6746 14.4109 87.2676 14.241C86.9856 14.1229 86.6963 14.022 86.4168 13.8989C86.304 13.8497 86.2133 13.7512 86.2035 13.5961C86.1888 13.3303 86.2402 13.0792 86.3432 12.838C86.4388 12.6115 86.6816 12.4885 86.9415 12.5254C87.167 12.5549 87.3902 12.6017 87.6157 12.6214C87.9198 12.646 88.2875 12.5599 88.4273 12.198C88.496 12.0183 88.4347 11.5777 88.29 11.4005C88.1037 11.1667 87.9124 10.9328 87.7628 10.6694C87.6966 10.5537 87.7334 10.3297 87.8413 10.2337C87.9909 10.1008 88.1355 9.96052 88.2704 9.81037C88.415 9.65038 88.6529 9.64299 88.8024 9.7833C88.9446 9.91622 89.1089 10.0171 89.2732 10.1181C89.3688 10.1771 89.4595 10.2584 89.5576 10.3199C89.7562 10.443 89.9646 10.5168 90.2 10.4208C90.5261 10.2854 90.6953 9.90391 90.6217 9.55438C90.5678 9.291 90.4942 9.02762 90.5187 8.75193C90.5285 8.63378 90.5604 8.53532 90.6708 8.47132C90.8105 8.39009 90.9405 8.28917 91.1096 8.27194C91.1587 8.26702 91.2077 8.25471 91.2004 8.18825H91.5927C91.8035 8.27194 91.931 8.4344 92.0021 8.64363C92.0144 8.68055 92.0242 8.71747 92.0389 8.75439C92.1247 8.9907 92.2032 9.23192 92.3601 9.43376C92.6175 9.76607 93.1324 9.90883 93.4315 9.38453C93.5615 9.15316 93.6939 8.92424 93.792 8.67563C93.8729 8.47132 93.9612 8.27687 94.1818 8.18579H94.4172L94.4221 8.18825ZM94.861 12.0651C94.8757 12.1168 94.8831 12.1488 94.8929 12.1832C94.9272 12.3137 94.9542 12.4466 94.9983 12.5722C95.0351 12.678 95.1209 12.7371 95.2337 12.7174C95.3489 12.6977 95.4274 12.6411 95.4249 12.4959C95.4249 12.3728 95.3955 12.2546 95.3857 12.134C95.3832 12.0897 95.3342 12.0183 95.3832 12.006C95.447 11.9888 95.5696 12.0011 95.5843 12.038C95.6333 12.1537 95.7461 12.2177 95.7829 12.3383C95.8368 12.5131 95.8025 12.6755 95.7412 12.8355C95.6726 13.0128 95.6186 13.1949 95.5892 13.3844C95.5622 13.5568 95.5303 13.7315 95.3881 13.8792C95.165 14.1081 94.8953 14.2263 94.6084 14.3247C94.4368 14.3838 94.378 14.4404 94.378 14.6177C94.378 14.7309 94.3657 14.8441 94.3706 14.9598C94.3853 15.3758 94.378 15.7893 94.3755 16.2053C94.3755 16.321 94.3436 16.4342 94.2333 16.4933C94.1401 16.5425 94.1132 16.6188 94.1156 16.7075C94.1156 17.3967 94.0911 18.0859 94.145 18.7751C94.1524 18.8613 94.172 18.9474 94.1769 19.0336C94.1843 19.1443 94.2382 19.1566 94.3314 19.1222C94.7433 18.9671 95.1356 18.7726 95.4985 18.5191C96.1727 18.044 96.6459 17.4065 96.9917 16.6656C97.1755 16.2693 97.2663 15.8435 97.3276 15.4103C97.3741 15.0853 97.3692 14.758 97.3423 14.4355C97.3202 14.1623 97.205 13.8964 97.1486 13.6232C97.129 13.5297 97.0946 13.4386 97.0603 13.35C96.641 12.2817 95.9128 11.4891 94.9149 10.9377C94.633 10.7827 94.3363 10.6719 94.0224 10.603C93.8508 10.566 93.6865 10.502 93.5149 10.475C93.179 10.4208 92.8407 10.411 92.4998 10.4405C91.8991 10.4947 91.3328 10.6522 90.8056 10.9427C89.6557 11.5777 88.9128 12.5426 88.5818 13.8152C88.4298 14.4035 88.3954 15.0066 88.4984 15.6146C88.6504 16.4982 89.0035 17.2834 89.6115 17.9456C90.0995 18.4797 90.6879 18.8637 91.3671 19.1074C91.4504 19.1369 91.4799 19.1099 91.497 19.0385C91.5485 18.8169 91.6 18.5954 91.6025 18.369C91.6098 17.8127 91.6025 17.2588 91.6074 16.7025C91.6074 16.609 91.5779 16.5327 91.4995 16.4933C91.3769 16.4318 91.3597 16.3308 91.3597 16.2102C91.3622 15.6687 91.3597 15.1272 91.3597 14.5832C91.3597 14.5389 91.3573 14.497 91.3524 14.4527C91.3499 14.4183 91.3254 14.3863 91.2935 14.4035C91.2126 14.4429 91.117 14.4183 91.0361 14.4749C90.6904 14.7186 90.6438 14.8909 90.9429 15.1739C91.2469 15.4595 91.2567 15.6859 91.0116 16.0256C90.9919 16.0527 90.9797 16.0995 90.9356 16.0822C90.9037 16.0675 90.9037 16.0281 90.8963 15.9936C90.8694 15.8632 90.8448 15.7278 90.8007 15.6022C90.7541 15.4644 90.6683 15.425 90.5359 15.4546C90.4158 15.4816 90.3447 15.5727 90.352 15.7032C90.3545 15.7647 90.3741 15.8238 90.3839 15.8829C90.401 15.9912 90.4452 16.097 90.4158 16.2275C90.3054 16.1487 90.2049 16.0822 90.1215 15.9936C90.0014 15.8632 89.9524 15.7179 89.9989 15.5382C90.0627 15.2946 90.173 15.0656 90.2 14.8121C90.2343 14.4995 90.3912 14.2484 90.6536 14.0884C91.1023 13.8152 91.5902 13.6675 92.1247 13.7414C92.1786 13.7487 92.2277 13.7414 92.2792 13.7266C92.3086 13.7167 92.3478 13.7143 92.3478 13.6798C92.3478 13.6404 92.311 13.6257 92.2767 13.6158C92.2007 13.5912 92.1223 13.6011 92.0438 13.5961C91.9874 13.5937 91.9457 13.5838 91.9359 13.5124C91.9188 13.3475 91.8354 13.2048 91.7398 13.0792C91.6319 12.934 91.6172 12.7814 91.6221 12.614C91.6245 12.5303 91.6589 12.4712 91.7373 12.4417C91.8329 12.4072 91.8648 12.3359 91.8648 12.2374C91.8673 11.8017 91.8893 11.782 92.3258 11.782C92.4827 11.782 92.642 11.782 92.8088 11.782C92.7794 11.6959 92.7328 11.6516 92.6911 11.6023C92.6396 11.5457 92.5758 11.499 92.5636 11.4128C92.5464 11.2774 92.62 11.1223 92.7303 11.0731C92.8578 11.0165 92.9755 11.0387 93.0613 11.1347C93.1913 11.2799 93.1986 11.3611 93.1055 11.5211C93.0785 11.5679 93.0319 11.5925 93.0025 11.6294C92.978 11.6589 92.9142 11.6737 92.9338 11.7254C92.9485 11.7697 93.0025 11.7648 93.0368 11.7673C93.1618 11.7771 93.2893 11.7796 93.4144 11.7796C93.792 11.7796 93.8386 11.8214 93.8435 12.2054C93.8435 12.2842 93.8533 12.3654 93.9244 12.4023C94.1499 12.518 94.0862 12.71 94.0641 12.8946C94.0543 12.966 94.0249 13.0374 93.9562 13.0645C93.8435 13.1063 93.841 13.19 93.8508 13.2835C93.868 13.4411 93.7993 13.5444 93.6498 13.5986C93.5713 13.6257 93.4953 13.6109 93.4168 13.6183C93.3899 13.6208 93.3629 13.6183 93.3555 13.6528C93.3482 13.6823 93.3703 13.702 93.3923 13.7143C93.4291 13.7364 93.4683 13.7512 93.5149 13.7463C93.738 13.7291 93.9636 13.7241 94.1818 13.766C94.6746 13.8644 94.8781 13.6528 95.0449 13.3721C95.0988 13.2811 95.0817 13.2097 94.9909 13.1383C94.834 13.0128 94.7212 12.8454 94.6109 12.6805C94.5986 12.6608 94.5864 12.6288 94.5913 12.6066C94.6354 12.4122 94.6943 12.2202 94.861 12.0626V12.0651ZM93.1937 17.569C93.1937 17.5394 93.1937 17.5321 93.1937 17.5222C93.1937 17.3204 93.1937 17.121 93.1937 16.9191C93.1937 16.5056 93.1815 16.4933 92.7597 16.5032C92.7254 16.5032 92.6935 16.513 92.6592 16.5179C92.5857 16.5302 92.5415 16.577 92.5415 16.6361C92.5415 16.7518 92.4802 16.8551 92.4876 16.9684C92.5121 17.3474 92.4876 17.724 92.4949 18.1031C92.5023 18.492 92.5391 18.876 92.669 19.2452C92.6984 19.3265 92.7426 19.3634 92.8308 19.3609C92.9191 19.3609 92.978 19.3412 93.0098 19.2477C93.0638 19.0902 93.1104 18.9351 93.1398 18.7702C93.2133 18.364 93.206 17.953 93.1913 17.5641L93.1937 17.569ZM93.255 14.3567C93.2305 14.4675 93.1692 14.5118 93.1251 14.5684C93.0368 14.6817 93.0589 14.7407 93.1815 14.8121C93.2942 14.8786 93.3997 14.8343 93.5076 14.8244C93.6105 14.8146 93.6645 14.7604 93.662 14.6521C93.662 14.5118 93.662 14.374 93.662 14.2337C93.662 14.1106 93.5885 14.0417 93.4781 14.0417C93.0736 14.0367 92.669 14.0367 92.2645 14.0417C92.1419 14.0417 92.0561 14.1007 92.0512 14.2386C92.0462 14.3912 92.0438 14.5438 92.0413 14.6964C92.0413 14.7358 92.0634 14.7604 92.0928 14.7826C92.235 14.8835 92.4778 14.8663 92.6126 14.7457C92.6739 14.6915 92.7401 14.6373 92.8186 14.6103C92.9706 14.5586 93.1055 14.4773 93.255 14.3592V14.3567ZM92.8554 13.4091C93.0123 13.4091 93.1692 13.4115 93.3261 13.4091C93.4732 13.4066 93.5639 13.3155 93.5615 13.1875C93.559 13.062 93.4757 12.9906 93.3212 12.9906C93.0147 12.9906 92.7083 12.9906 92.4018 12.9906C92.2399 12.9906 92.1713 13.0521 92.1688 13.1875C92.1664 13.3278 92.2448 13.4066 92.3969 13.4091C92.5489 13.4115 92.7009 13.4091 92.8554 13.4091ZM92.3601 12.1734C92.1762 12.1734 92.0561 12.2866 92.0512 12.4663C92.0462 12.6386 92.186 12.7814 92.3625 12.7789C92.5268 12.7789 92.669 12.6337 92.6666 12.4712C92.6666 12.294 92.5415 12.1759 92.3601 12.1759V12.1734ZM93.3752 12.1734C93.1741 12.1709 93.0638 12.2768 93.0638 12.4737C93.0638 12.6608 93.179 12.7789 93.3604 12.7814C93.5321 12.7814 93.6571 12.6755 93.6596 12.5229C93.662 12.3137 93.5517 12.1783 93.3752 12.1759V12.1734ZM93.0638 11.3562C93.0638 11.2479 92.978 11.1568 92.8701 11.1519C92.7646 11.147 92.6739 11.2306 92.6715 11.334C92.669 11.4497 92.7328 11.5137 92.8578 11.5186C92.9878 11.5236 93.0613 11.4645 93.0638 11.3562Z" fill="#379D8A"/>
<path d="M74.3414 20.0182C74.3879 19.9887 74.3855 19.9419 74.3978 19.8951C74.5154 19.4201 74.7288 19.1764 75.2706 19.2428C75.4864 19.2699 75.6997 19.3265 75.9179 19.3117C76.1092 19.2994 76.3102 19.3044 76.4573 19.1444C76.7099 18.8711 76.7319 18.6004 76.5505 18.2336C76.4426 18.017 76.2759 17.8422 76.1288 17.6552C76.0062 17.5026 75.9326 17.3426 75.9596 17.1383C75.9768 17.0226 76.0405 16.934 76.1067 16.8576C76.2317 16.71 76.3617 16.5623 76.5284 16.4564C76.6755 16.3629 76.9011 16.4072 77.0727 16.5475C77.3277 16.7567 77.6048 16.9389 77.8941 17.0964C78.1148 17.217 78.4826 17.1973 78.6763 16.9118C78.7866 16.7493 78.8136 16.5672 78.7988 16.3678C78.7768 16.0847 78.6885 15.8066 78.7057 15.5186C78.7204 15.2798 78.8699 15.1149 79.0906 15.0288C79.3211 14.9401 79.554 14.9328 79.7918 14.9229C79.912 14.918 79.988 14.9771 80.0468 15.0608C80.1523 15.2183 80.216 15.398 80.2773 15.5752C80.3631 15.8287 80.4661 16.0798 80.6623 16.2595C81.008 16.577 81.5057 16.3924 81.6847 16.0232C81.822 15.7377 81.925 15.4374 82.0623 15.1518C82.1898 14.886 82.2927 14.8343 82.56 14.8983C82.7488 14.9451 82.9302 15.014 83.119 15.0632C83.2858 15.1075 83.4157 15.2109 83.45 15.3758C83.4745 15.494 83.45 15.6269 83.4378 15.75C83.4059 16.0183 83.3397 16.2841 83.3642 16.5549C83.3912 16.8256 83.5113 17.0398 83.7761 17.1407C84.0385 17.2416 84.2837 17.1801 84.5043 17.0226C84.7127 16.87 84.9089 16.7026 85.1124 16.5426C85.3232 16.3777 85.4826 16.3777 85.6763 16.5524C85.8308 16.6927 85.9779 16.8453 86.1275 16.993C86.2966 17.1604 86.2721 17.377 86.0956 17.5616C85.8259 17.8447 85.6469 18.1893 85.4924 18.5388C85.3282 18.9105 85.642 19.3044 86.0858 19.3339C86.3261 19.3511 86.5639 19.3142 86.7993 19.2724C86.9439 19.2453 87.0861 19.2453 87.2283 19.2576C87.4098 19.2748 87.525 19.3954 87.5986 19.553C87.7163 19.8139 87.7579 20.0896 87.7261 20.3702C87.7016 20.572 87.5544 20.6853 87.373 20.732C87.0739 20.8083 86.8262 20.9708 86.5737 21.1332C86.4781 21.1948 86.3898 21.2637 86.3163 21.3548C86.1642 21.5443 86.152 21.7314 86.3163 21.9111C86.5639 22.1818 86.8532 22.4034 87.2136 22.5166C87.3509 22.5584 87.4784 22.6151 87.5765 22.7308C87.7334 22.9104 87.6795 23.1197 87.6672 23.3166C87.6574 23.4692 87.5961 23.6193 87.5348 23.7646C87.4368 24.0033 87.3044 24.0452 87.0518 23.996C86.6816 23.9246 86.3015 23.8778 85.9264 23.9516C85.5464 24.0255 85.3404 24.4218 85.4728 24.7886C85.5611 25.0322 85.7401 25.2144 85.8994 25.4113C85.9607 25.4852 86.0171 25.5615 86.0735 25.6402C86.2329 25.8667 86.2035 26.0956 86.0613 26.3098C86 26.4033 85.9043 26.4919 85.8038 26.5436C85.6592 26.6199 85.5562 26.7848 85.36 26.7627C85.2056 26.7454 85.0732 26.7061 84.9555 26.5904C84.8378 26.4747 84.698 26.3787 84.5411 26.3073C84.4087 26.2482 84.3008 26.1325 84.1586 26.0858C83.7467 25.9479 83.3985 26.167 83.3005 26.5707C83.2686 26.6987 83.2392 26.8242 83.2612 26.9473C83.2907 27.1048 83.2882 27.2673 83.3667 27.4174C83.4819 27.6365 83.3716 28.0131 83.1534 28.1263C82.9425 28.2346 82.7194 28.3232 82.4791 28.3331C82.1996 28.3454 82.0476 28.2346 81.947 27.9663C81.8342 27.6611 81.7068 27.3633 81.5057 27.1048C81.3684 26.93 81.2262 26.7725 80.9687 26.807C80.9074 26.8168 80.856 26.8365 80.802 26.8685C80.471 27.0704 80.3264 27.415 80.1768 27.7374C80.0885 27.9269 79.9586 28.0623 79.8286 28.21C79.7673 28.2789 79.6717 28.2888 79.5908 28.3011C79.2696 28.3429 78.9778 28.2716 78.7449 28.0254C78.691 27.9688 78.6713 27.8999 78.664 27.8236C78.6517 27.6808 78.6763 27.5405 78.7081 27.4027C78.7719 27.1122 78.7523 26.8193 78.7474 26.5264C78.7474 26.4821 78.7008 26.4377 78.6763 26.3934C78.458 25.9922 78.1197 25.9455 77.8353 26.0759C77.5803 26.1916 77.3449 26.359 77.1365 26.5559C76.955 26.7282 76.5995 26.7824 76.3813 26.6642C76.3225 26.6322 76.2808 26.5731 76.2317 26.5239C76.1141 26.4082 76.0111 26.2802 75.9326 26.135C75.8345 25.9553 75.8542 25.7879 75.9866 25.6402C76.2317 25.3645 76.3985 25.0372 76.5726 24.7172C76.7761 24.3406 76.4941 23.9418 76.0675 23.9172C75.6972 23.8975 75.3295 23.9418 74.9617 23.927C74.7288 23.9172 74.5694 23.8064 74.486 23.5873C74.3953 23.351 74.3683 23.1049 74.3904 22.8538C74.4051 22.6889 74.5179 22.5855 74.6675 22.5363C74.9372 22.4477 75.1823 22.3049 75.4398 22.1892C75.4937 22.1646 75.5452 22.1277 75.5943 22.0932C75.9645 21.8422 75.9449 21.276 75.5624 21.0323C75.3613 20.9043 75.1431 20.8256 74.9225 20.7468C74.7214 20.6754 74.5228 20.5917 74.4174 20.3825C74.3904 20.3308 74.3978 20.2594 74.3365 20.225V20.0157L74.3414 20.0182ZM85.5415 21.3695C85.4924 21.3892 85.49 21.4163 85.4802 21.4385C85.2987 21.8938 84.7936 22.0046 84.443 21.6699C84.3915 21.6206 84.3401 21.5739 84.2837 21.5345C84.0041 21.34 83.683 21.3646 83.4598 21.6157C83.2514 21.852 82.9989 21.9086 82.7047 21.8643C82.5796 21.8446 82.4521 21.8422 82.3271 21.8643C82.0427 21.9185 81.8808 22.1178 81.7484 22.3541C81.4763 22.8366 81.1502 23.2846 80.8412 23.7424C80.7137 23.932 80.5568 23.9812 80.3827 23.9C80.2136 23.8212 80.1351 23.6415 80.1817 23.4372C80.2405 23.1689 80.3018 22.9031 80.3582 22.6348C80.4073 22.4009 80.3484 22.3246 80.1155 22.3246C80.0763 22.3246 80.037 22.3246 79.9978 22.3246C79.8826 22.3246 79.8115 22.268 79.7747 22.1621C79.7077 21.9734 79.572 21.8791 79.3677 21.8791C79.3334 21.8791 79.299 21.8791 79.2622 21.8791C79.0146 21.8938 78.8185 21.7905 78.6493 21.6182C78.4016 21.3695 78.0388 21.3499 77.7666 21.5689C77.7078 21.6157 77.6587 21.6699 77.5999 21.7166C77.3228 21.9431 76.9452 21.9037 76.7148 21.6305C76.6927 21.6034 76.6804 21.5542 76.6069 21.5788C76.678 23.2034 77.2811 24.5523 78.7057 25.4088C80.3264 26.3836 81.9838 26.3418 83.5628 25.3055C84.9579 24.3923 85.566 23.036 85.5439 21.3671L85.5415 21.3695ZM85.4655 20.9782C85.3478 20.097 84.9922 19.3265 84.4038 18.6718C83.5064 17.6773 82.3835 17.1456 81.0398 17.1358C79.8654 17.1259 78.8405 17.5542 78.002 18.3641C77.3032 19.0385 76.857 19.873 76.6951 20.8502C76.7589 20.8526 76.7761 20.8059 76.8079 20.7788C77.0556 20.5696 77.4356 20.5794 77.6293 20.8231C77.7813 21.0151 77.9603 21.0939 78.1957 21.0643C78.4924 21.0274 78.7302 21.1308 78.9165 21.3671C79.0097 21.4877 79.1397 21.5443 79.2941 21.5345C79.4461 21.5246 79.5982 21.5172 79.7502 21.5049C79.8482 21.4975 79.9095 21.4459 79.9365 21.3499C80.0714 20.8773 80.2822 20.4293 80.4293 19.9616C80.5176 19.6785 80.7137 19.5357 80.981 19.4644C81.1355 19.4225 81.2924 19.4201 81.4469 19.4397C81.7337 19.4742 81.8759 19.6933 81.8048 19.9739C81.7901 20.033 81.7705 20.0896 81.7509 20.1487C81.6847 20.3603 81.6209 20.5745 81.5474 20.7813C81.5032 20.9043 81.5572 20.9314 81.6577 20.9314C81.7484 20.9314 81.8416 20.9265 81.9323 20.9314C82.2486 20.9536 82.3908 21.0594 82.3663 21.3671C82.3663 21.3769 82.3663 21.3843 82.3663 21.3942C82.3565 21.4828 82.3982 21.5099 82.4815 21.5074C82.5992 21.5049 82.7169 21.5074 82.8346 21.5123C82.9964 21.5197 83.119 21.4606 83.2171 21.3302C83.3642 21.1357 83.5628 21.0446 83.808 21.0569C83.8693 21.0594 83.9306 21.0569 83.9919 21.0619C84.1831 21.0791 84.3401 21.0102 84.4381 20.8502C84.6196 20.5573 85.1271 20.5843 85.3134 20.8009C85.3625 20.86 85.414 20.9166 85.4655 20.9732V20.9782ZM80.5617 23.3757C80.6279 23.3486 80.6525 23.3043 80.6794 23.2674C81.1134 22.6988 81.5008 22.0981 81.9054 21.5099C81.9225 21.4852 81.9348 21.4557 81.947 21.4286C81.9887 21.34 81.9667 21.3006 81.8637 21.3031C81.6504 21.308 81.437 21.308 81.2237 21.308C81.0546 21.308 81.0055 21.2514 81.0668 21.0889C81.1845 20.7837 81.2801 20.4711 81.3684 20.1585C81.3954 20.0625 81.5253 19.9616 81.4125 19.8656C81.3292 19.7942 81.2017 19.7917 81.0889 19.7868C80.9761 19.7819 80.8854 19.8287 80.8388 19.9394C80.574 20.5819 80.3435 21.2416 80.1032 21.8938C80.0787 21.9628 80.0983 21.9874 80.1719 21.9849C80.3288 21.9825 80.4857 21.9849 80.6426 21.9849C80.802 21.9849 80.8437 22.0391 80.8094 22.1966C80.7285 22.5831 80.6451 22.9695 80.5617 23.3757ZM84.9064 21.5123C85.0535 21.5123 85.1614 21.404 85.1639 21.2563C85.1639 21.1111 85.0339 20.9856 84.8844 20.9905C84.7373 20.9954 84.6392 21.1012 84.6441 21.2563C84.649 21.4188 84.7471 21.5148 84.9064 21.5123ZM77.4503 21.2612C77.4503 21.0939 77.3547 20.988 77.2051 20.9905C77.0507 20.9929 76.9526 21.0914 76.9526 21.244C76.9526 21.4114 77.0458 21.5099 77.2027 21.5123C77.3572 21.5123 77.4503 21.4212 77.4503 21.2612Z" fill="#3F75B7"/>
<path d="M87.3608 30.8463C87.1916 30.8537 87.0224 30.8586 86.8532 30.8709C86.5149 30.8955 86.2697 30.7897 86.152 30.3958C86.0858 30.1792 86.098 29.9626 86.1177 29.7484C86.1299 29.6057 86.255 29.5245 86.3849 29.4703C86.6644 29.3571 86.9415 29.2414 87.2063 29.0962C87.3779 29.0026 87.4809 28.8648 87.5275 28.6728C87.6084 28.3257 87.5226 28.114 87.2161 27.9269C87.0445 27.8236 86.8557 27.7571 86.6669 27.6956C86.4462 27.6242 86.2452 27.5208 86.125 27.3067C86.1103 27.282 86.0931 27.2623 86.0882 27.2279C86.049 26.9325 86.1201 26.6519 86.2599 26.4057C86.3408 26.263 86.5149 26.1867 86.6914 26.1818C86.9415 26.1719 87.1842 26.2162 87.4319 26.2507C87.8413 26.3073 88.2753 26.1891 88.3734 25.7091C88.4249 25.4532 88.3194 25.2292 88.1821 25.0249C88.0718 24.8599 87.9369 24.7073 87.8168 24.5473C87.601 24.2593 87.6059 24.0649 87.834 23.7818C87.9247 23.6686 88.0203 23.5627 88.1355 23.4741C88.366 23.2969 88.5916 23.2994 88.8074 23.4963C89.0354 23.703 89.3002 23.8532 89.5625 24.0058C90.0357 24.2815 90.558 23.9172 90.5335 23.4101C90.5237 23.1935 90.4795 22.9867 90.4378 22.7775C90.4133 22.6471 90.4084 22.5141 90.4305 22.3861C90.455 22.236 90.5359 22.1129 90.6757 22.0366C90.9135 21.9086 91.1685 21.8495 91.4382 21.8422C91.6294 21.8372 91.752 21.9431 91.8231 22.1055C91.9041 22.2877 91.9703 22.4772 92.0438 22.6643C92.0953 22.7947 92.1517 22.9203 92.2326 23.036C92.5366 23.4717 93.0589 23.4643 93.3605 23.0237C93.4831 22.8415 93.5517 22.6323 93.6375 22.4329C93.6988 22.2901 93.7503 22.14 93.8337 22.0071C93.9538 21.82 94.1083 21.7683 94.3167 21.8495C94.4344 21.8938 94.5545 21.9332 94.6771 21.9603C95.1626 22.0661 95.1945 22.2483 95.1405 22.6864C95.1111 22.9424 95.0571 23.1935 95.0694 23.4544C95.0988 23.996 95.5868 24.2815 96.0771 24.0452C96.3248 23.927 96.516 23.7326 96.7269 23.5677C96.7538 23.5455 96.7808 23.5233 96.8078 23.5037C97.0922 23.3067 97.2099 23.287 97.46 23.5553C97.5752 23.6784 97.7027 23.7941 97.8204 23.9172C97.9871 24.0846 98.0018 24.2421 97.8523 24.4292C97.6316 24.7024 97.4502 24.9978 97.2761 25.3005C97.0873 25.6255 97.1192 25.8987 97.3619 26.103C97.5801 26.2876 97.8376 26.3122 98.1048 26.2778C98.3353 26.2507 98.5658 26.1916 98.7962 26.1916C99.0194 26.1916 99.2204 26.2704 99.3136 26.5165C99.4068 26.7602 99.4656 27.0113 99.4337 27.2697C99.4141 27.4248 99.3455 27.5725 99.1738 27.6266C98.8453 27.73 98.5412 27.8826 98.2593 28.0845C98.1784 28.1411 98.0999 28.1977 98.0337 28.2789C97.8351 28.5202 97.8719 28.7097 98.0533 28.8918C98.3059 29.1454 98.5878 29.3743 98.9507 29.4678C99.3062 29.5614 99.4484 29.8001 99.3822 30.2112C99.3528 30.3983 99.2989 30.5854 99.2106 30.7552C99.1101 30.9521 98.9899 30.9841 98.7717 30.9373C98.3966 30.8561 98.0141 30.8118 97.6341 30.8832C97.2859 30.9472 97.0677 31.314 97.1584 31.6463C97.2197 31.8727 97.3594 32.0499 97.5115 32.2296C97.688 32.4364 97.8841 32.6432 97.894 32.9508C97.8964 33.0468 97.84 33.0911 97.8032 33.1551C97.6929 33.3496 97.5384 33.4998 97.3472 33.613C97.129 33.7385 96.9206 33.7311 96.7293 33.5711C96.5724 33.4407 96.4032 33.3274 96.234 33.2167C96.0575 33.1035 95.881 32.9902 95.6628 32.973C95.4445 32.9558 95.2705 33.0468 95.1454 33.2191C94.9125 33.5441 94.9395 33.901 95.0326 34.2628C95.067 34.3933 95.0988 34.5237 95.0988 34.6616C95.0988 34.856 95.0081 34.9865 94.8389 35.0751C94.6575 35.1686 94.4589 35.2179 94.2652 35.2769C94.0274 35.3483 93.7969 35.2154 93.689 34.9693C93.6473 34.8733 93.6204 34.7723 93.5811 34.6763C93.4634 34.3883 93.3212 34.1151 93.0957 33.8936C92.8774 33.6844 92.6224 33.6844 92.3969 33.8862C92.1983 34.0659 92.0781 34.2973 91.958 34.5287C91.8624 34.7133 91.7839 34.9102 91.627 35.0579C91.3622 35.3065 91.1146 35.2868 90.8326 35.1883C90.7566 35.1613 90.683 35.1169 90.6119 35.0751C90.3937 34.9471 90.3545 34.861 90.3962 34.6123C90.4109 34.5287 90.4305 34.4499 90.406 34.3588C90.3913 34.3022 90.4648 34.2333 90.4648 34.157C90.4648 33.9773 90.482 33.7976 90.4648 33.6204C90.4378 33.3225 90.3103 33.0764 90.0063 32.9902C89.7317 32.9115 89.4816 32.9951 89.2659 33.1773C89.0869 33.3274 88.9005 33.4727 88.6946 33.5834C88.3366 33.7779 88.0816 33.6376 87.8364 33.3668C87.758 33.2807 87.6991 33.1773 87.6452 33.0739C87.5446 32.8893 87.579 32.7244 87.7138 32.5644C87.9688 32.2641 88.1699 31.9293 88.3194 31.565C88.4494 31.2475 88.2165 30.9127 87.8756 30.8832C87.7898 30.8758 87.7089 30.8463 87.6207 30.8512C87.5348 30.8586 87.4466 30.8512 87.3583 30.8512L87.3608 30.8463ZM92.7622 26.1793C91.7643 26.1793 90.7664 26.1793 89.7685 26.1793C89.5699 26.1793 89.5331 26.2162 89.5331 26.4156C89.5331 27.6168 89.5331 28.8205 89.5331 30.0217C89.5331 30.2678 89.5674 30.3047 89.8102 30.3047C91.7766 30.3047 93.7405 30.3047 95.7069 30.3047C95.9227 30.3047 95.9889 30.2334 95.9889 30.0143C95.9889 29.4728 95.9889 28.9312 95.9889 28.3872C95.9889 27.735 95.9889 27.0851 95.9889 26.4328C95.9889 26.2384 95.9349 26.1793 95.7584 26.1793C94.7605 26.1793 93.7626 26.1793 92.7647 26.1793H92.7622ZM96.0305 25.527C95.9938 25.4827 95.9815 25.4655 95.9668 25.4507C94.8071 24.2938 93.4169 23.8581 91.8158 24.1732C90.9748 24.3381 90.2564 24.7713 89.6459 25.3768C89.6091 25.4138 89.5503 25.4581 89.5674 25.5024C89.587 25.5541 89.6606 25.527 89.7096 25.527C91.5093 25.527 93.3065 25.527 95.1062 25.527C95.4053 25.527 95.7044 25.527 96.033 25.527H96.0305ZM96.5454 30.93C96.4645 30.962 96.3959 30.957 96.3272 30.957C95.5769 30.957 94.8291 30.957 94.0789 30.957C93.8435 30.957 93.6081 30.9546 93.3727 30.957C93.2477 30.957 93.179 31.0235 93.1741 31.149C93.1668 31.3238 93.1668 31.4986 93.1864 31.6733C93.2232 31.9933 93.3359 32.1115 93.6522 32.141C94.0298 32.1755 94.4099 32.1607 94.7874 32.1656C94.8904 32.1656 94.9959 32.1755 95.0547 32.269C95.1086 32.3552 95.1577 32.333 95.2214 32.2912C95.5941 32.0573 95.9104 31.7595 96.1973 31.4272C96.3248 31.2795 96.4474 31.1269 96.5405 30.93H96.5454ZM90.5899 30.957C90.1142 30.957 89.641 30.957 89.1653 30.957C89.0378 30.957 89.0256 30.9743 89.0942 31.0875C89.2242 31.3066 89.3933 31.4936 89.5699 31.6758C89.7905 31.8998 90.0161 32.1164 90.2883 32.2789C90.33 32.3035 90.3741 32.3478 90.4207 32.2813C90.4942 32.1779 90.6046 32.1632 90.7223 32.1632C91.0998 32.1582 91.4799 32.1533 91.8575 32.1361C92.1345 32.1238 92.2596 31.9982 92.3111 31.725C92.338 31.5773 92.3356 31.4296 92.3258 31.282C92.3111 31.021 92.24 30.957 91.9752 30.957C91.5142 30.957 91.0533 30.957 90.5899 30.957ZM96.6337 30.7552L96.6754 30.7626C97.151 29.9084 97.33 28.9903 97.2197 28.0156C97.1535 27.4322 96.8372 26.5559 96.6361 26.4008V30.7577L96.6337 30.7552ZM88.8785 26.4993C88.1968 27.0999 88.1895 29.9134 88.8515 30.6297C88.8981 29.2561 88.8711 27.89 88.8785 26.4993ZM93.9881 32.8351C93.8631 32.7982 93.7528 32.7515 93.7013 32.6259C93.6424 32.4832 93.5296 32.4241 93.3825 32.4216C92.9633 32.4216 92.5464 32.4216 92.1272 32.4216C91.9604 32.4216 91.8305 32.5004 91.7594 32.6505C91.7104 32.7564 91.6442 32.8228 91.524 32.8327C92.3478 33.0838 93.1668 33.0813 93.9881 32.8327V32.8351Z" fill="#3F75B7"/>
<path d="M129.773 18.2903C129.729 18.3395 129.749 18.3936 129.749 18.4429C129.749 20.9733 129.746 23.5061 129.744 26.0366C129.744 26.2138 129.744 26.3885 129.687 26.5608C129.611 26.7898 129.378 26.8759 129.165 26.775C129.045 26.7184 128.984 26.6347 128.917 26.5313C128.876 26.4673 128.908 26.4255 128.908 26.3762C128.905 24.2963 128.905 22.2139 128.905 20.1339C128.905 19.2035 128.905 18.2706 128.905 17.3401C128.905 17.2195 128.898 17.0964 128.888 16.9758C128.873 16.7838 128.935 16.6386 129.116 16.55C129.324 16.4491 129.516 16.486 129.68 16.6337C129.805 16.7469 129.898 16.8872 129.991 17.0324C130.222 17.3894 130.45 17.7487 130.697 18.0933C130.803 18.2386 130.886 18.4035 130.987 18.5561C131.796 19.8065 132.607 21.057 133.421 22.3074C133.466 22.3763 133.517 22.4452 133.571 22.5043C133.686 22.6299 133.779 22.6299 133.885 22.4945C133.978 22.3763 134.059 22.2483 134.142 22.1228C134.309 21.8693 134.476 21.6157 134.633 21.3573C134.949 20.8354 135.292 20.3333 135.621 19.8188C135.92 19.3487 136.231 18.8859 136.538 18.4183C136.754 18.0884 136.957 17.7512 137.18 17.4263C137.362 17.1654 137.472 16.8503 137.742 16.6484C137.896 16.5303 138.097 16.4983 138.271 16.5869C138.404 16.6558 138.44 16.7444 138.44 16.8946C138.435 20.0773 138.435 23.26 138.44 26.4427C138.44 26.583 138.318 26.7775 138.203 26.8095C138.011 26.8612 137.764 26.7553 137.678 26.6052C137.658 26.5682 137.683 26.551 137.683 26.5264C137.678 23.9738 137.675 21.4213 137.675 18.8662C137.675 18.7382 137.663 18.6127 137.624 18.4921C137.612 18.4576 137.612 18.4035 137.568 18.3986C137.526 18.3936 137.509 18.4429 137.487 18.4749C137.207 18.8958 136.928 19.3142 136.648 19.7351C135.878 20.897 135.111 22.0613 134.343 23.2231C134.26 23.3511 134.172 23.4741 134.056 23.5775C133.819 23.7941 133.573 23.7941 133.338 23.5701C133.233 23.4717 133.149 23.3535 133.071 23.2329C132.502 22.3689 131.936 21.5074 131.367 20.6459C130.879 19.9075 130.391 19.169 129.901 18.433C129.866 18.3813 129.839 18.3198 129.778 18.2853L129.773 18.2903Z" fill="#379D8A"/>
<path d="M100.14 21.7436C100.14 20.1929 100.14 18.6397 100.135 17.0889C100.135 16.9831 100.128 16.8846 100.167 16.7812C100.253 16.5523 100.422 16.4539 100.655 16.4514C101.037 16.4465 101.422 16.4514 101.805 16.4514C103.121 16.4514 104.435 16.4514 105.752 16.4514C106.032 16.4514 106.311 16.4514 106.591 16.4539C106.708 16.4539 106.821 16.4834 106.917 16.5597C107.074 16.6828 107.032 16.86 107.022 17.02C107.012 17.1652 106.9 17.2415 106.77 17.2859C106.669 17.3203 106.569 17.3351 106.456 17.3055C106.395 17.2883 106.316 17.3228 106.243 17.3228C104.668 17.3228 103.097 17.3228 101.523 17.3228C101.432 17.3228 101.341 17.3203 101.251 17.3498C101.123 17.3917 101.054 17.4754 101.037 17.6132C101.018 17.7658 101.032 17.9185 101.035 18.0711C101.042 18.94 101.049 19.8113 101.027 20.6802C101.027 20.6975 101.027 20.7147 101.027 20.7319C101.035 21.0495 101.106 21.1258 101.422 21.1282C102.42 21.1307 103.418 21.1282 104.416 21.1332C104.534 21.1332 104.651 21.1455 104.766 21.1528C104.943 21.1652 105.107 21.2685 105.124 21.4162C105.142 21.5516 105.169 21.7313 105.068 21.8691C104.972 21.9996 104.833 22.0464 104.681 22.0464C104.009 22.0488 103.34 22.0488 102.668 22.0488C102.246 22.0488 101.822 22.0488 101.4 22.0488C101.128 22.0488 100.993 22.1867 101.015 22.4574C101.04 22.7577 101.037 23.0605 101.037 23.3608C101.035 24.1091 101.054 24.8549 101.015 25.6032C101.005 25.7829 101.099 25.938 101.297 25.965C101.454 25.9872 101.611 25.9798 101.765 25.9798C103.085 25.9847 104.406 25.9847 105.725 25.9897C105.983 25.9897 106.24 25.9946 106.495 26.0069C106.62 26.0143 106.748 26.0192 106.86 26.093C107.123 26.2629 107.076 26.701 106.794 26.8684C106.772 26.8832 106.735 26.8758 106.706 26.8758C106.184 26.8783 105.661 26.8832 105.137 26.8856C103.693 26.8856 102.251 26.8856 100.807 26.8856C100.728 26.8856 100.65 26.8832 100.571 26.8807C100.304 26.8709 100.145 26.6813 100.145 26.4253C100.14 24.9312 100.14 23.4346 100.137 21.9405C100.137 21.879 100.137 21.8174 100.137 21.7559L100.14 21.7436Z" fill="#3F75B7"/>
<path d="M111.857 21.7929C111.867 22.6495 111.838 23.4126 111.892 24.1707C111.941 24.855 112.193 25.5048 112.992 25.7953C113.387 25.9381 113.797 25.9578 114.209 25.9651C115.096 25.9799 115.986 25.9947 116.874 25.9405C117.17 25.9233 117.474 25.879 117.737 25.7018C118.053 25.4876 118.203 25.1701 118.291 24.8181C118.33 24.6581 118.328 24.4784 118.367 24.3233C118.411 24.1387 118.472 23.9221 118.683 23.8163C118.852 23.7326 119.139 23.8433 119.23 24.023C119.291 24.1436 119.262 24.2618 119.267 24.3824C119.282 24.6975 119.232 24.9978 119.117 25.2882C118.825 26.0119 118.298 26.4697 117.56 26.706C117.212 26.8168 116.862 26.871 116.496 26.866C115.873 26.8562 115.251 26.903 114.628 26.8931C114.319 26.8882 114.012 26.8439 113.704 26.8365C113.402 26.8291 113.113 26.7528 112.831 26.6642C111.882 26.3664 111.335 25.6968 111.109 24.7442C110.989 24.2372 110.96 23.7178 110.957 23.1984C110.953 22.1351 110.95 21.0742 110.957 20.0108C110.96 19.5185 110.997 19.0262 111.109 18.5438C111.232 18.0195 111.448 17.5469 111.847 17.1629C112.151 16.8699 112.524 16.7493 112.909 16.6312C113.049 16.5893 113.196 16.577 113.336 16.5278C113.397 16.5057 113.488 16.5106 113.566 16.5032C113.721 16.4884 113.88 16.4933 114.025 16.4515C114.177 16.4072 114.334 16.4121 114.476 16.4121C114.657 16.4121 114.836 16.3875 115.015 16.3973C115.305 16.4121 115.596 16.3973 115.888 16.4146C116.055 16.4244 116.231 16.4146 116.398 16.4293C116.555 16.4441 116.717 16.4564 116.874 16.4884C117.016 16.5155 117.161 16.5155 117.298 16.5598C117.592 16.6509 117.894 16.7124 118.166 16.8921C118.347 17.0103 118.524 17.1259 118.666 17.2884C118.953 17.6182 119.147 17.9899 119.223 18.4281C119.267 18.6841 119.284 18.9327 119.247 19.1887C119.225 19.3413 119.1 19.4767 118.96 19.4939C118.732 19.5234 118.541 19.4471 118.485 19.2896C118.384 18.9942 118.291 18.6964 118.2 18.3985C118.144 18.2139 118.063 18.0416 117.957 17.8792C117.732 17.5321 117.379 17.409 116.996 17.3721C116.133 17.2909 115.265 17.3155 114.397 17.3253C114.199 17.3253 113.998 17.3253 113.799 17.3475C113.404 17.3893 113.005 17.4484 112.666 17.6699C112.399 17.8447 112.188 18.0835 112.068 18.3961C111.963 18.6718 111.909 18.9524 111.892 19.2453C111.84 20.1265 111.877 21.0102 111.86 21.7954L111.857 21.7929Z" fill="#3F75B7"/>
<path d="M127.603 22.8439C127.603 23.3116 127.608 23.7793 127.603 24.247C127.598 24.6063 127.53 24.9559 127.382 25.2857C127.074 25.9749 126.519 26.3515 125.808 26.5238C125.119 26.6912 124.421 26.7134 123.717 26.6888C123.464 26.6789 123.212 26.6691 122.957 26.6691C122.837 26.6691 122.699 26.6297 122.577 26.5903C122.393 26.5312 122.202 26.5263 122.018 26.4598C121.559 26.2974 121.184 26.0389 120.917 25.6254C120.684 25.2685 120.608 24.8648 120.549 24.4562C120.461 23.8236 120.422 23.1885 120.444 22.5485C120.466 21.8938 120.493 21.239 120.659 20.6015C120.775 20.1634 121.013 19.7966 121.378 19.5135C121.768 19.2108 122.226 19.1222 122.692 19.0458C123.339 18.9425 123.989 18.9252 124.639 18.9695C125.112 19.0015 125.583 19.0532 126.039 19.1911C126.843 19.4372 127.333 19.9861 127.527 20.8033C127.584 21.0446 127.608 21.2932 127.608 21.5443C127.608 21.9775 127.608 22.4107 127.608 22.8415L127.603 22.8439ZM121.383 22.8587C121.4 23.3854 121.348 23.9442 121.434 24.5005C121.52 25.0543 121.807 25.4457 122.346 25.6352C122.594 25.7214 122.849 25.7386 123.104 25.7583C123.886 25.8174 124.668 25.81 125.45 25.7116C126.11 25.6279 126.51 25.266 126.64 24.6162C126.745 24.0894 126.784 23.5528 126.792 23.0162C126.804 22.3738 126.755 21.7338 126.664 21.0987C126.581 20.5129 126.193 20.0994 125.622 19.9886C125.186 19.9049 124.742 19.8778 124.3 19.8631C123.778 19.8458 123.258 19.8828 122.741 19.9418C122.474 19.9714 122.211 20.0354 121.981 20.1929C121.574 20.4686 121.454 20.887 121.41 21.3449C121.363 21.8372 121.397 22.3319 121.383 22.8587Z" fill="#3F75B7"/>
<path d="M109.143 21.6304C109.143 20.1019 109.143 18.5708 109.143 17.0422C109.143 16.897 109.163 16.7616 109.236 16.6336C109.305 16.5106 109.396 16.4835 109.533 16.4662C109.695 16.4466 109.81 16.4884 109.906 16.5992C110.009 16.7198 110.058 16.865 110.038 17.0299C110.031 17.0988 110.05 17.1678 110.05 17.2367C110.05 20.1068 110.05 22.9793 110.05 25.8494C110.05 26.0463 110.07 26.2433 110.033 26.4377C109.972 26.7651 109.697 26.9842 109.361 26.8143C109.28 26.7749 109.219 26.7159 109.195 26.615C109.165 26.487 109.141 26.3639 109.141 26.231C109.141 24.6975 109.141 23.1639 109.141 21.6304H109.143Z" fill="#3F75B7"/>
<path d="M137.587 28.722C137.474 28.722 137.362 28.7171 137.249 28.722C137.173 28.7269 137.151 28.69 137.134 28.6285C137.121 28.5842 137.107 28.5399 137.151 28.5103C137.205 28.4734 137.254 28.4931 137.305 28.5251C137.469 28.626 137.653 28.5596 137.827 28.5669C137.876 28.5669 137.884 28.5103 137.881 28.4636C137.879 28.4094 137.852 28.3848 137.798 28.3848C137.653 28.3848 137.511 28.3848 137.366 28.3848C137.183 28.3823 137.148 28.3454 137.148 28.1608C137.148 28.0993 137.121 28.0106 137.151 27.9811C137.21 27.922 137.305 27.9122 137.393 27.9146C137.541 27.9196 137.69 27.9146 137.837 27.9146C137.901 27.9146 137.957 27.9294 138.004 27.9737C138.048 28.018 138.055 28.0722 138.004 28.1066C137.967 28.1313 137.911 28.1953 137.869 28.1017C137.849 28.055 137.805 28.05 137.759 28.05C137.653 28.05 137.55 28.0525 137.445 28.05C137.354 28.0476 137.335 28.1091 137.33 28.1756C137.325 28.2568 137.396 28.2273 137.435 28.2297C137.575 28.2346 137.715 28.2297 137.854 28.2346C138.024 28.242 138.104 28.3528 138.07 28.5202C138.042 28.6547 137.959 28.7228 137.82 28.7245C137.742 28.7245 137.663 28.7245 137.585 28.7245C137.585 28.7245 137.585 28.7196 137.585 28.7171L137.587 28.722Z" fill="#379D8A"/>
<path d="M121.954 27.9417C122.06 27.9417 122.162 27.9417 122.268 27.9417C122.376 27.9417 122.427 27.9958 122.427 28.1016C122.427 28.1509 122.427 28.1976 122.427 28.2469C122.432 28.3355 122.405 28.397 122.314 28.429C122.216 28.4635 122.238 28.5176 122.302 28.5693C122.314 28.5792 122.344 28.5816 122.346 28.5915C122.366 28.653 122.464 28.6604 122.449 28.7392C122.442 28.7712 122.246 28.7687 122.207 28.7293C122.138 28.6604 122.042 28.6235 121.986 28.5398C121.966 28.5103 121.927 28.4906 121.893 28.4733C121.751 28.4019 121.721 28.4216 121.716 28.5816C121.716 28.6604 121.728 28.7466 121.608 28.7515C121.55 28.7539 121.515 28.7416 121.518 28.6776C121.518 28.4635 121.518 28.2493 121.518 28.0352C121.518 27.9687 121.55 27.9441 121.616 27.9466C121.728 27.949 121.841 27.9466 121.954 27.9466V27.9417ZM121.974 28.0721C121.934 28.0721 121.895 28.0721 121.856 28.0721C121.778 28.0672 121.714 28.0647 121.711 28.1804C121.711 28.2986 121.773 28.3084 121.861 28.3035C121.952 28.301 122.045 28.3035 122.136 28.3035C122.216 28.301 122.248 28.2543 122.246 28.1755C122.246 28.0943 122.204 28.0696 122.131 28.0721C122.079 28.0746 122.025 28.0721 121.974 28.0721Z" fill="#3F75B7"/>
<path d="M132.85 28.722C132.725 28.722 132.598 28.7146 132.473 28.7245C132.409 28.7294 132.382 28.7072 132.377 28.6531C132.352 28.4488 132.357 28.242 132.372 28.0377C132.377 27.9589 132.443 27.9196 132.522 27.9196C132.769 27.9196 133.017 27.9196 133.267 27.9196C133.348 27.9196 133.382 27.9762 133.385 28.0402C133.392 28.2322 133.39 28.4242 133.385 28.6162C133.385 28.6851 133.345 28.7318 133.257 28.7245C133.122 28.7146 132.987 28.7245 132.853 28.7245C132.853 28.7245 132.853 28.7245 132.853 28.722H132.85ZM132.877 28.5743C132.951 28.5743 133.027 28.5694 133.1 28.5743C133.179 28.5792 133.211 28.5522 133.206 28.4709C133.201 28.37 133.198 28.2691 133.206 28.1706C133.213 28.0746 133.166 28.0476 133.081 28.0525C132.973 28.0574 132.862 28.0525 132.755 28.0549C132.62 28.0566 132.553 28.1239 132.553 28.2568C132.553 28.4734 132.662 28.5801 132.88 28.5768L132.877 28.5743Z" fill="#379D8A"/>
<path d="M124.308 28.2051C124.185 28.2937 124.136 28.3995 124.07 28.4906C124.019 28.5644 123.95 28.6457 123.874 28.6014C123.822 28.5718 123.756 28.5152 123.722 28.4389C123.69 28.3651 123.641 28.2912 123.545 28.2272C123.545 28.3724 123.545 28.498 123.545 28.6211C123.545 28.6752 123.54 28.7269 123.464 28.7294C123.379 28.7318 123.393 28.6727 123.393 28.6235C123.393 28.4315 123.393 28.2395 123.393 28.0475C123.393 28.0032 123.369 27.9417 123.43 27.922C123.486 27.9048 123.543 27.9294 123.582 27.9737C123.668 28.0746 123.751 28.1804 123.835 28.2838C123.938 28.4118 123.938 28.4143 124.036 28.2888C124.119 28.1829 124.205 28.0771 124.274 27.9638C124.32 27.8875 124.379 27.9269 124.433 27.922C124.499 27.9171 124.489 27.9761 124.489 28.0155C124.489 28.2198 124.489 28.4266 124.489 28.6309C124.489 28.7023 124.462 28.7318 124.389 28.7318C124.31 28.7318 124.31 28.6826 124.31 28.6284C124.31 28.498 124.31 28.37 124.31 28.2075L124.308 28.2051Z" fill="#379D8A"/>
<path d="M115.314 28.2051C115.314 28.3798 115.314 28.5226 115.314 28.6654C115.314 28.7048 115.329 28.7564 115.251 28.7491C115.194 28.7441 115.155 28.7417 115.157 28.6654C115.162 28.4635 115.157 28.2641 115.16 28.0623C115.16 28.0229 115.133 27.9638 115.187 27.9466C115.243 27.9294 115.31 27.9269 115.356 27.9811C115.442 28.0845 115.53 28.1878 115.611 28.2961C115.704 28.4168 115.714 28.4143 115.805 28.2863C115.886 28.1755 115.984 28.0771 116.077 27.9737C116.116 27.9294 116.173 27.9318 116.224 27.9466C116.276 27.9614 116.258 28.0106 116.258 28.0475C116.258 28.2445 116.256 28.4414 116.261 28.6358C116.261 28.7195 116.224 28.7343 116.153 28.7417C116.06 28.7515 116.079 28.69 116.077 28.6432C116.074 28.5768 116.077 28.5128 116.077 28.4463C116.077 28.3995 116.097 28.338 116.043 28.3183C115.984 28.2961 115.959 28.3651 115.92 28.3921C115.851 28.4414 115.846 28.53 115.773 28.5841C115.704 28.6334 115.68 28.626 115.626 28.5768C115.513 28.4758 115.466 28.3208 115.317 28.2051H115.314Z" fill="#3F75B7"/>
<path d="M114.226 27.9416C114.348 27.9416 114.469 27.9416 114.591 27.9416C114.684 27.9416 114.741 27.9835 114.75 28.077C114.77 28.2518 114.77 28.4265 114.75 28.5989C114.738 28.6998 114.697 28.7589 114.562 28.7441C114.339 28.7219 114.111 28.7342 113.885 28.7367C113.765 28.7367 113.713 28.6949 113.721 28.5669C113.73 28.4069 113.723 28.2444 113.721 28.0819C113.721 27.9859 113.76 27.9367 113.86 27.9392C113.983 27.9416 114.103 27.9392 114.226 27.9392V27.9416ZM114.223 28.5964C114.446 28.5964 114.557 28.484 114.557 28.2592C114.557 28.2321 114.557 28.2075 114.557 28.1804C114.564 28.1016 114.527 28.0696 114.451 28.0721C114.339 28.0746 114.226 28.0721 114.111 28.0721C113.975 28.0721 113.907 28.141 113.907 28.2789C113.907 28.4905 114.012 28.5964 114.223 28.5964Z" fill="#3F75B7"/>
<path d="M131.683 28.4217C131.761 28.4881 131.811 28.5325 131.864 28.5743C131.916 28.6137 131.97 28.6481 132.014 28.7195C131.862 28.7343 131.725 28.7589 131.624 28.6063C131.587 28.5497 131.531 28.5054 131.48 28.4561C131.423 28.4045 131.352 28.3995 131.283 28.4241C131.21 28.4512 131.244 28.5201 131.239 28.5743C131.234 28.6506 131.274 28.7515 131.129 28.7318C131.082 28.7245 131.058 28.7146 131.058 28.6629C131.058 28.4315 131.053 28.2026 131.05 27.9712C131.05 27.9171 131.087 27.9195 131.119 27.9195C131.35 27.9195 131.58 27.9146 131.811 27.9195C131.909 27.922 131.975 27.9737 131.97 28.0845C131.97 28.1288 131.97 28.1706 131.97 28.2149C131.967 28.3725 131.936 28.4045 131.781 28.4118C131.759 28.4118 131.739 28.4143 131.683 28.4192V28.4217ZM131.506 28.2814C131.563 28.2814 131.619 28.2789 131.676 28.2814C131.754 28.2863 131.786 28.2469 131.786 28.1731C131.786 28.0943 131.757 28.0475 131.673 28.0475C131.573 28.0475 131.472 28.05 131.372 28.0475C131.276 28.0426 131.239 28.0771 131.239 28.1755C131.239 28.2765 131.293 28.2912 131.374 28.2838C131.418 28.2814 131.462 28.2838 131.504 28.2838L131.506 28.2814Z" fill="#379D8A"/>
<path d="M106.9 28.3405C107.02 28.439 107.125 28.5251 107.245 28.626C107.11 28.6679 107.005 28.6679 106.902 28.5719C106.824 28.4956 106.767 28.3947 106.647 28.3577C106.485 28.311 106.456 28.3282 106.451 28.4907C106.451 28.5424 106.48 28.6088 106.426 28.6457C106.363 28.69 106.277 28.6359 106.274 28.5547C106.272 28.3504 106.274 28.1461 106.274 27.9393C106.274 27.8531 106.311 27.8261 106.392 27.8285C106.583 27.8334 106.775 27.8285 106.966 27.8285C107.14 27.8285 107.186 27.8777 107.186 28.0525C107.186 28.2962 107.157 28.3282 106.902 28.338L106.9 28.3405ZM106.743 28.1928C106.787 28.1928 106.831 28.1879 106.873 28.1928C106.995 28.215 107.03 28.1731 107.003 28.0501C106.988 27.9811 106.958 27.9664 106.897 27.9664C106.794 27.9664 106.689 27.9664 106.586 27.9664C106.51 27.9664 106.456 27.9713 106.451 28.0747C106.446 28.1879 106.51 28.1928 106.588 28.1904C106.64 28.1904 106.691 28.1904 106.745 28.1904L106.743 28.1928Z" fill="#3F75B7"/>
<path d="M133.985 28.21C133.985 28.3478 133.983 28.4856 133.985 28.6235C133.985 28.7023 133.961 28.7539 133.877 28.7515C133.789 28.7515 133.806 28.6776 133.806 28.6235C133.804 28.4093 133.806 28.1952 133.801 27.981C133.799 27.8801 133.873 27.9121 133.904 27.922C133.973 27.9417 134.052 27.9687 134.096 28.0204C134.221 28.173 134.405 28.2518 134.535 28.397C134.554 28.4167 134.581 28.4192 134.608 28.4069C134.638 28.3921 134.63 28.3626 134.63 28.338C134.63 28.2296 134.63 28.1189 134.63 28.0106C134.63 27.949 134.645 27.9121 134.718 27.9146C134.785 27.9146 134.797 27.9515 134.797 28.0081C134.797 28.2173 134.797 28.4266 134.797 28.6383C134.797 28.7441 134.736 28.781 134.65 28.7195C134.476 28.5939 134.309 28.461 134.15 28.3207C134.105 28.2813 134.054 28.2493 134.02 28.2001L133.988 28.2124L133.985 28.21Z" fill="#379D8A"/>
<path d="M136.273 28.7245C136.172 28.7245 136.072 28.7245 135.974 28.7245C135.898 28.7245 135.868 28.7023 135.856 28.6186C135.827 28.4168 135.886 28.2125 135.824 28.0131C135.814 27.9836 135.839 27.9786 135.859 27.9688C135.912 27.9417 135.969 27.9196 136.03 27.9196C136.226 27.9196 136.422 27.9245 136.619 27.9196C136.731 27.9196 136.741 28.0008 136.766 28.0771C136.783 28.1337 136.766 28.1731 136.712 28.1903C136.636 28.2149 136.567 28.21 136.53 28.1214C136.503 28.0549 136.442 28.0623 136.386 28.0623C135.996 28.0672 136.052 28.0082 136.05 28.3897C136.05 28.5718 136.05 28.5718 136.239 28.5768C136.307 28.5768 136.378 28.5743 136.447 28.5768C136.523 28.5792 136.589 28.5768 136.577 28.4685C136.572 28.4291 136.594 28.4045 136.631 28.4192C136.68 28.4365 136.751 28.4192 136.773 28.4906C136.81 28.6038 136.724 28.7195 136.604 28.7294C136.594 28.7294 136.587 28.7294 136.577 28.7294C136.476 28.7294 136.376 28.7294 136.275 28.7294C136.275 28.7294 136.275 28.7269 136.275 28.7245H136.273Z" fill="#379D8A"/>
<path d="M126.6 27.9196C126.706 27.9196 126.809 27.9122 126.914 27.9196C127.022 27.927 127.027 28.0131 127.032 28.0993C127.037 28.1903 126.973 28.1928 126.914 28.2002C126.882 28.2051 126.848 28.1953 126.85 28.1559C126.855 28.0525 126.787 28.0599 126.72 28.0599C126.642 28.0599 126.564 28.0673 126.485 28.0599C126.372 28.0451 126.34 28.1091 126.323 28.1977C126.323 28.21 126.323 28.2248 126.323 28.2371C126.333 28.3454 126.274 28.498 126.348 28.5497C126.446 28.6186 126.6 28.5669 126.73 28.5719C126.77 28.5719 126.792 28.5473 126.799 28.5079C126.811 28.4414 126.86 28.4094 126.922 28.4217C126.973 28.4316 127.039 28.4439 127.037 28.5226C127.034 28.5891 127.054 28.6703 126.968 28.7023C126.931 28.7171 126.892 28.7245 126.855 28.7245C126.659 28.7245 126.463 28.7196 126.267 28.7245C126.179 28.7245 126.142 28.6876 126.137 28.6039C126.122 28.4193 126.127 28.2371 126.134 28.0525C126.139 27.9614 126.196 27.9196 126.279 27.9171C126.387 27.9146 126.497 27.9171 126.605 27.9171L126.6 27.9196Z" fill="#379D8A"/>
<path d="M104.394 27.8334C104.502 27.8334 104.612 27.8284 104.72 27.8334C104.823 27.8383 104.852 27.9121 104.857 28.0032C104.865 28.1041 104.784 28.0943 104.727 28.1115C104.686 28.1238 104.649 28.1115 104.651 28.0574C104.654 27.986 104.617 27.9687 104.553 27.9712C104.445 27.9712 104.335 27.9712 104.227 27.9712C104.154 27.9712 104.127 28.0032 104.129 28.0746C104.144 28.589 104.041 28.4733 104.519 28.4881C104.592 28.4881 104.664 28.493 104.651 28.3847C104.646 28.3207 104.713 28.3183 104.742 28.3133C104.786 28.306 104.83 28.3478 104.85 28.3872C104.899 28.4783 104.828 28.6112 104.725 28.626C104.497 28.6604 104.264 28.6333 104.033 28.6383C103.992 28.6383 103.948 28.6112 103.938 28.5497C103.908 28.3577 103.911 28.1681 103.928 27.9761C103.935 27.8777 103.992 27.8284 104.092 27.8309C104.193 27.8309 104.293 27.8309 104.394 27.8309V27.8334Z" fill="#3F75B7"/>
<path d="M108.621 28.6407C108.53 28.6407 108.437 28.6284 108.346 28.6432C108.241 28.6604 108.206 28.5964 108.204 28.5226C108.197 28.3306 108.199 28.1386 108.204 27.9466C108.204 27.8703 108.253 27.8334 108.332 27.8334C108.54 27.8334 108.748 27.8334 108.957 27.8334C109.074 27.8334 109.119 27.8974 109.121 28.018C109.121 28.1066 109.065 28.1017 109.011 28.1091C108.959 28.1164 108.9 28.1288 108.91 28.0401C108.918 27.9737 108.871 27.9737 108.824 27.9737C108.716 27.9737 108.606 27.9737 108.498 27.9737C108.432 27.9737 108.4 27.9983 108.405 28.0648C108.405 28.0697 108.405 28.0746 108.405 28.0771C108.385 28.5054 108.405 28.5226 108.832 28.4881C108.891 28.4832 108.925 28.466 108.925 28.4069C108.925 28.3429 108.952 28.3281 109.013 28.3281C109.082 28.3281 109.119 28.3626 109.133 28.4217C109.155 28.5103 109.089 28.6087 108.996 28.6284C108.871 28.6555 108.743 28.6334 108.618 28.6383L108.621 28.6407Z" fill="#3F75B7"/>
<path d="M127.449 28.3133C127.449 28.2075 127.451 28.1041 127.449 27.9983C127.449 27.9367 127.466 27.9121 127.53 27.9146C127.586 27.917 127.628 27.917 127.637 27.9933C127.664 28.2321 127.667 28.2321 127.915 28.2321C127.954 28.2321 127.993 28.2321 128.032 28.2321C128.201 28.2321 128.253 28.1878 128.26 28.013C128.263 27.9466 128.27 27.9096 128.351 27.9121C128.424 27.9121 128.451 27.9392 128.451 28.013C128.449 28.2173 128.449 28.4241 128.451 28.6284C128.451 28.7121 128.415 28.7515 128.336 28.7515C128.248 28.7515 128.263 28.6825 128.263 28.6259C128.255 28.4142 128.223 28.3822 128.01 28.3822C127.983 28.3822 127.959 28.3822 127.932 28.3822C127.66 28.3847 127.657 28.3822 127.635 28.653C127.63 28.7293 127.586 28.749 127.527 28.7515C127.461 28.7539 127.454 28.7022 127.451 28.653C127.451 28.6481 127.451 28.6432 127.451 28.6407C127.451 28.5324 127.451 28.4216 127.451 28.3133H127.449Z" fill="#379D8A"/>
<path d="M117.109 27.9417C117.222 27.9417 117.335 27.9417 117.448 27.9417C117.521 27.9417 117.573 27.9712 117.58 28.0401C117.59 28.1435 117.585 28.2493 117.585 28.3527C117.585 28.4069 117.536 28.4044 117.499 28.4143C117.357 28.4512 117.215 28.4339 117.07 28.4364C116.898 28.4389 116.884 28.4512 116.879 28.621C116.879 28.6776 116.871 28.7342 116.815 28.7515C116.746 28.7712 116.68 28.7662 116.68 28.6678C116.68 28.4536 116.68 28.2395 116.68 28.0253C116.68 27.9638 116.712 27.9417 116.771 27.9441C116.884 27.9466 116.996 27.9441 117.109 27.9441V27.9417ZM117.134 28.2887C117.19 28.2887 117.246 28.2887 117.303 28.2887C117.386 28.2912 117.406 28.2469 117.406 28.173C117.406 28.1016 117.376 28.0696 117.303 28.0721C117.197 28.0746 117.094 28.077 116.989 28.0721C116.906 28.0672 116.874 28.0967 116.871 28.1829C116.871 28.2715 116.906 28.2986 116.987 28.2912C117.033 28.2863 117.082 28.2912 117.131 28.2912L117.134 28.2887Z" fill="#3F75B7"/>
<path d="M103.153 27.8309C103.254 27.8309 103.354 27.826 103.452 27.8309C103.496 27.8334 103.568 27.7964 103.572 27.885C103.575 27.9786 103.504 27.9687 103.443 27.9687C103.298 27.9687 103.156 27.9712 103.011 27.9687C102.945 27.9687 102.898 27.981 102.901 28.0574C102.903 28.1263 102.935 28.1558 103.009 28.1509C103.077 28.1435 103.148 28.1509 103.217 28.1509C103.251 28.1509 103.308 28.1164 103.305 28.1804C103.305 28.2223 103.295 28.2887 103.219 28.2863C103.158 28.2863 103.097 28.2863 103.036 28.2863C102.95 28.2863 102.893 28.3306 102.896 28.4167C102.896 28.5127 102.977 28.4881 103.033 28.4906C103.185 28.493 103.337 28.4906 103.489 28.4906C103.538 28.4906 103.575 28.4955 103.58 28.557C103.582 28.621 103.546 28.6432 103.492 28.6456C103.256 28.6456 103.021 28.6456 102.785 28.6456C102.736 28.6456 102.705 28.626 102.705 28.5669C102.705 28.3478 102.707 28.1312 102.705 27.9121C102.705 27.8407 102.744 27.8358 102.795 27.8358C102.913 27.8358 103.031 27.8358 103.148 27.8358L103.153 27.8309Z" fill="#3F75B7"/>
<path d="M112.818 28.7392C112.713 28.7392 112.61 28.7392 112.505 28.7392C112.436 28.7392 112.389 28.6875 112.394 28.6383C112.419 28.4463 112.392 28.2567 112.409 28.0647C112.416 27.986 112.453 27.9417 112.532 27.9417C112.75 27.9417 112.968 27.9417 113.184 27.9417C113.299 27.9417 113.309 28.0327 113.316 28.1164C113.324 28.2001 113.257 28.2124 113.194 28.2124C113.162 28.2124 113.127 28.205 113.125 28.1681C113.125 28.0696 113.056 28.0721 112.99 28.0746C112.89 28.0746 112.789 28.0746 112.691 28.0746C112.627 28.0746 112.593 28.1016 112.598 28.1681C112.598 28.178 112.598 28.1853 112.598 28.1952C112.586 28.6259 112.605 28.6407 113.037 28.5989C113.098 28.5939 113.122 28.5693 113.127 28.5127C113.132 28.4512 113.172 28.4339 113.228 28.4413C113.284 28.4487 113.314 28.4807 113.324 28.5324C113.343 28.6383 113.279 28.7318 113.162 28.7392C113.049 28.749 112.936 28.7392 112.823 28.7392H112.818Z" fill="#3F75B7"/>
<path d="M125.328 28.7269C125.215 28.7269 125.102 28.7245 124.989 28.7269C124.926 28.7269 124.904 28.7023 124.904 28.6432C124.904 28.4291 124.904 28.2149 124.904 28.0008C124.904 27.9319 124.938 27.9122 125.002 27.9146C125.227 27.9146 125.453 27.9146 125.681 27.9146C125.72 27.9146 125.774 27.9023 125.767 27.9737C125.762 28.0303 125.73 28.0451 125.678 28.0451C125.521 28.0451 125.365 28.0451 125.208 28.0451C125.139 28.0451 125.092 28.0525 125.09 28.1435C125.087 28.2445 125.151 28.2297 125.208 28.2322C125.269 28.2322 125.33 28.2322 125.389 28.2346C125.431 28.2346 125.47 28.2617 125.47 28.3035C125.47 28.3478 125.438 28.3823 125.384 28.3848C125.318 28.3848 125.254 28.3897 125.188 28.3848C125.122 28.3798 125.088 28.3922 125.085 28.4734C125.085 28.5595 125.119 28.5743 125.193 28.5743C125.355 28.5743 125.514 28.5743 125.676 28.5743C125.725 28.5743 125.774 28.5694 125.769 28.6457C125.764 28.7072 125.735 28.7269 125.676 28.7269C125.558 28.7269 125.441 28.7269 125.323 28.7269H125.328Z" fill="#379D8A"/>
<path d="M100.78 27.8309C100.88 27.8309 100.981 27.826 101.079 27.8309C101.13 27.8334 101.219 27.7989 101.214 27.8998C101.209 27.9934 101.126 27.9638 101.072 27.9663C100.937 27.9687 100.802 27.9687 100.667 27.9663C100.598 27.9663 100.544 27.9687 100.547 28.0598C100.549 28.1484 100.606 28.1509 100.672 28.1484C100.738 28.146 100.802 28.1484 100.868 28.1484C100.907 28.1484 100.937 28.1533 100.934 28.205C100.934 28.2493 100.924 28.2838 100.871 28.2838C100.797 28.2838 100.721 28.2887 100.647 28.2838C100.571 28.2789 100.547 28.3109 100.544 28.3798C100.544 28.4537 100.564 28.493 100.65 28.4906C100.812 28.4857 100.971 28.4906 101.133 28.4906C101.179 28.4906 101.219 28.4906 101.221 28.5546C101.224 28.621 101.189 28.6407 101.135 28.6407C100.895 28.6407 100.657 28.6407 100.417 28.6407C100.375 28.6407 100.353 28.626 100.353 28.5792C100.353 28.3527 100.353 28.1238 100.353 27.8974C100.353 27.8334 100.392 27.8309 100.439 27.8309C100.552 27.8309 100.665 27.8309 100.78 27.8309Z" fill="#3F75B7"/>
<path d="M120.704 27.9417C120.821 27.9417 120.939 27.9417 121.057 27.9417C121.098 27.9417 121.138 27.9466 121.14 27.9983C121.142 28.0549 121.106 28.0721 121.057 28.0721C120.895 28.0721 120.735 28.0721 120.574 28.0721C120.505 28.0721 120.466 28.0894 120.466 28.1657C120.466 28.237 120.512 28.2518 120.569 28.2518C120.642 28.2518 120.716 28.2518 120.792 28.2518C120.831 28.2518 120.858 28.2592 120.858 28.3084C120.858 28.3577 120.841 28.3823 120.789 28.3823C120.711 28.3823 120.633 28.3847 120.554 28.3823C120.483 28.3823 120.463 28.4143 120.463 28.4783C120.463 28.5423 120.473 28.5915 120.552 28.5915C120.713 28.5915 120.873 28.5915 121.035 28.5915C121.091 28.5915 121.142 28.594 121.14 28.6703C121.14 28.7416 121.084 28.7392 121.037 28.7392C120.819 28.7392 120.601 28.7392 120.385 28.7392C120.314 28.7392 120.272 28.7195 120.275 28.6333C120.279 28.4315 120.277 28.2321 120.275 28.0303C120.275 27.9564 120.299 27.9294 120.373 27.9343C120.48 27.9392 120.591 27.9343 120.699 27.9343L120.704 27.9417Z" fill="#3F75B7"/>
<path d="M110.369 28.6506C110.288 28.6629 110.249 28.6063 110.219 28.5472C110.188 28.4832 110.143 28.4611 110.075 28.466C109.989 28.4709 109.901 28.4709 109.815 28.466C109.705 28.4586 109.611 28.466 109.567 28.594C109.538 28.6777 109.459 28.6506 109.4 28.6383C109.354 28.6285 109.339 28.6014 109.374 28.5546C109.467 28.4242 109.53 28.2789 109.604 28.1386C109.655 28.0426 109.731 27.9516 109.798 27.858C109.834 27.8063 110.013 27.8309 110.048 27.8876C110.178 28.1042 110.305 28.3232 110.438 28.5398C110.489 28.6235 110.47 28.6605 110.371 28.6531L110.369 28.6506ZM109.881 28.3331C109.908 28.3331 109.933 28.3331 109.96 28.3331C110.065 28.3331 110.085 28.2863 110.028 28.2051C109.986 28.146 109.977 28.0377 109.908 28.0352C109.849 28.0328 109.834 28.1386 109.795 28.1952C109.781 28.2174 109.771 28.242 109.754 28.2617C109.714 28.3134 109.739 28.3306 109.79 28.3331C109.82 28.3331 109.852 28.3331 109.881 28.3331Z" fill="#3F75B7"/>
<path d="M118.342 28.7343C118.235 28.7343 118.124 28.7343 118.016 28.7343C117.935 28.7343 117.884 28.6949 117.874 28.6112C117.85 28.4118 117.864 28.21 117.864 28.0106C117.864 27.9442 117.916 27.9417 117.967 27.9417C118.021 27.9417 118.06 27.9515 118.06 28.018C118.06 28.1706 118.065 28.3232 118.06 28.4758C118.058 28.5669 118.092 28.6014 118.183 28.5989C118.291 28.594 118.401 28.5915 118.509 28.5989C118.605 28.6038 118.629 28.562 118.627 28.4758C118.624 28.3306 118.627 28.1878 118.627 28.0426C118.627 27.9786 118.637 27.9368 118.72 27.9368C118.794 27.9368 118.821 27.9589 118.821 28.0352C118.816 28.21 118.821 28.3848 118.821 28.5595C118.821 28.6777 118.764 28.7367 118.644 28.7343C118.543 28.7343 118.443 28.7343 118.345 28.7343H118.342Z" fill="#3F75B7"/>
<path d="M129.3 27.917C129.408 27.8924 129.442 27.9908 129.481 28.0499C129.596 28.2247 129.695 28.4093 129.795 28.5914C129.815 28.6284 129.886 28.685 129.822 28.717C129.763 28.7465 129.655 28.7514 129.626 28.6751C129.577 28.5422 129.486 28.5373 129.378 28.5422C129.31 28.5447 129.239 28.5471 129.17 28.5422C129.072 28.5348 128.991 28.5496 128.957 28.6628C128.947 28.6948 128.915 28.7219 128.878 28.7244C128.839 28.7268 128.792 28.7416 128.765 28.712C128.738 28.6825 128.77 28.6407 128.787 28.6161C128.93 28.4093 129.035 28.1828 129.163 27.9687C129.194 27.917 129.243 27.9071 129.3 27.9145V27.917ZM129.121 28.4117C129.221 28.4117 129.307 28.4117 129.393 28.4117C129.452 28.4117 129.474 28.3871 129.44 28.3305C129.391 28.2518 129.359 28.1631 129.285 28.0868C129.221 28.1902 129.16 28.2813 129.118 28.4117H129.121Z" fill="#379D8A"/>
<path d="M119.556 27.9392C119.686 27.9392 119.816 27.9392 119.948 27.9392C119.99 27.9392 120.029 27.9392 120.039 27.9909C120.051 28.0475 120.01 28.0672 119.968 28.0844C119.892 28.114 119.814 28.0992 119.738 28.0967C119.666 28.0943 119.647 28.1213 119.649 28.1853C119.649 28.3281 119.649 28.4733 119.649 28.6161C119.649 28.7023 119.62 28.7441 119.527 28.7441C119.421 28.7441 119.451 28.6678 119.448 28.6161C119.443 28.4758 119.443 28.338 119.448 28.1977C119.451 28.1189 119.431 28.0844 119.348 28.0943C119.289 28.1017 119.225 28.0943 119.166 28.0943C119.107 28.0943 119.063 28.0721 119.063 28.0057C119.063 27.9367 119.115 27.9367 119.164 27.9392C119.294 27.9392 119.424 27.9392 119.556 27.9392Z" fill="#3F75B7"/>
<path d="M130.337 27.9171C130.464 27.9171 130.59 27.9171 130.717 27.9171C130.768 27.9171 130.818 27.9221 130.82 27.9885C130.82 28.0501 130.771 28.0624 130.724 28.0722C130.707 28.0747 130.69 28.0722 130.673 28.0722C130.513 28.0755 130.433 28.1592 130.433 28.3233C130.433 28.4242 130.433 28.5251 130.433 28.626C130.433 28.6974 130.408 28.727 130.335 28.7294C130.249 28.7343 130.246 28.6851 130.246 28.6236C130.246 28.4784 130.244 28.3356 130.246 28.1904C130.246 28.1042 130.224 28.0574 130.126 28.0697C130.065 28.0771 130.004 28.0697 129.942 28.0697C129.883 28.0697 129.852 28.0451 129.854 27.9836C129.854 27.9221 129.898 27.9147 129.945 27.9147C130.075 27.9147 130.207 27.9147 130.337 27.9147V27.9171Z" fill="#379D8A"/>
<path d="M110.764 28.242C110.764 28.1387 110.766 28.0328 110.764 27.9294C110.761 27.8531 110.791 27.831 110.862 27.8334C110.93 27.8334 110.97 27.8507 110.97 27.927C110.97 28.0673 110.977 28.2051 110.97 28.3454C110.962 28.4562 110.992 28.5054 111.112 28.4956C111.242 28.4857 111.372 28.4956 111.502 28.4931C111.556 28.4931 111.597 28.503 111.6 28.567C111.6 28.6334 111.558 28.6457 111.504 28.6457C111.284 28.6457 111.06 28.6457 110.84 28.6457C110.764 28.6457 110.754 28.6186 110.761 28.5448C110.774 28.4463 110.764 28.3454 110.764 28.2445V28.242Z" fill="#3F75B7"/>
<path d="M101.964 28.6408C101.861 28.626 101.682 28.6999 101.606 28.6112C101.54 28.5349 101.586 28.3602 101.586 28.2297C101.586 28.1288 101.589 28.0279 101.586 27.9294C101.584 27.858 101.606 27.8285 101.682 27.8285C101.756 27.8285 101.795 27.8506 101.795 27.9319C101.792 28.0796 101.8 28.2273 101.795 28.3774C101.792 28.4636 101.824 28.4931 101.908 28.4906C102.043 28.4857 102.177 28.4906 102.312 28.4906C102.364 28.4906 102.423 28.4783 102.425 28.5596C102.427 28.6457 102.364 28.6408 102.307 28.6432C102.202 28.6432 102.099 28.6432 101.967 28.6432L101.964 28.6408Z" fill="#3F75B7"/>
<path d="M105.554 27.831C105.683 27.831 105.816 27.831 105.946 27.831C105.99 27.831 106.034 27.826 106.037 27.8925C106.039 27.9565 106 27.9762 105.953 27.9909C105.934 27.9983 105.909 27.9909 105.889 27.9909C105.731 27.9942 105.651 28.0738 105.649 28.2297C105.649 28.3356 105.644 28.4389 105.649 28.5448C105.652 28.6309 105.595 28.6408 105.531 28.6482C105.448 28.658 105.455 28.6014 105.455 28.5497C105.455 28.3922 105.451 28.2346 105.455 28.0771C105.455 27.9983 105.426 27.9663 105.348 27.9688C105.279 27.9713 105.208 27.9688 105.139 27.9688C105.093 27.9688 105.066 27.954 105.066 27.8999C105.066 27.8482 105.09 27.8285 105.137 27.8285C105.276 27.8285 105.416 27.8285 105.556 27.8285L105.554 27.831Z" fill="#3F75B7"/>
<path d="M107.596 28.2321C107.596 28.1312 107.596 28.0303 107.596 27.9318C107.596 27.8629 107.616 27.8309 107.692 27.8334C107.763 27.8334 107.792 27.8531 107.79 27.9294C107.785 28.1337 107.787 28.3404 107.79 28.5448C107.79 28.6211 107.763 28.6531 107.682 28.6555C107.591 28.6604 107.596 28.6063 107.596 28.5472C107.596 28.4414 107.596 28.338 107.596 28.2321Z" fill="#3F75B7"/>
<path d="M135.427 28.3207C135.427 28.429 135.427 28.5373 135.427 28.6481C135.427 28.7096 135.4 28.7318 135.339 28.7293C135.277 28.7293 135.238 28.717 135.238 28.6456C135.238 28.4315 135.238 28.2198 135.238 28.0056C135.238 27.9342 135.273 27.9195 135.336 27.9146C135.407 27.9121 135.427 27.9466 135.427 28.0081C135.427 28.1115 135.427 28.2173 135.427 28.3207Z" fill="#379D8A"/>
<path d="M81.0423 24.7417C79.5711 24.7491 78.252 23.6611 77.975 22.2113C77.9652 22.1645 77.9578 22.1178 77.948 22.071C77.9308 21.9824 77.8867 21.8815 77.9848 21.8199C78.0927 21.7535 78.2153 21.7485 78.3354 21.8076C78.3942 21.8372 78.4335 21.8913 78.4776 21.9405C78.6443 22.1399 78.8454 22.2679 79.1126 22.2728C79.147 22.2728 79.1813 22.2728 79.2156 22.2605C79.3309 22.2236 79.4191 22.2605 79.478 22.3688C79.5123 22.4353 79.5564 22.487 79.6324 22.519C79.8972 22.6322 79.9659 22.775 79.9095 23.0605C79.8776 23.2205 79.8163 23.3781 79.8163 23.5454C79.8163 23.8851 79.9953 24.1534 80.2871 24.2568C80.574 24.3577 80.878 24.2666 81.0913 24.0107C81.1649 23.9196 81.2335 23.8236 81.2973 23.7251C81.567 23.319 81.8367 22.9128 82.099 22.4993C82.2093 22.3245 82.3442 22.2285 82.56 22.2482C82.7071 22.263 82.8566 22.2458 83.0037 22.2556C83.2636 22.2728 83.4573 22.1645 83.6118 21.9652C83.7197 21.8273 83.8496 21.751 84.0311 21.7805C84.1586 21.8002 84.2003 21.8495 84.1782 21.975C84.0458 22.6741 83.781 23.3091 83.2735 23.8236C82.7635 24.343 82.1456 24.6408 81.4223 24.722C81.3585 24.7294 81.2973 24.754 81.2311 24.7466C81.1698 24.7417 81.1085 24.7466 81.0472 24.7466L81.0423 24.7417Z" fill="#3F75B7"/>
<path d="M81.1232 19.1074C80.9908 19.0926 80.8658 19.1123 80.7407 19.132C80.5127 19.1664 80.3533 19.3018 80.2577 19.5086C80.0959 19.8557 79.9782 20.22 79.836 20.5744C79.782 20.7073 79.7379 20.8452 79.6766 20.9732C79.5736 21.1947 79.3873 21.2464 79.1838 21.1135C79.0906 21.0519 78.9999 20.9806 78.9092 20.9166C78.7375 20.7959 78.5487 20.7246 78.3379 20.7295C78.3207 20.7295 78.3036 20.7295 78.2864 20.7295C78.1148 20.7098 78.0927 20.6827 78.1466 20.5178C78.3673 19.8286 78.8307 19.3314 79.4216 18.9498C79.9953 18.5781 80.623 18.4305 81.3095 18.4944C82.4325 18.5978 83.5481 19.3166 83.9845 20.5596C83.9919 20.5793 83.9943 20.6015 84.0041 20.6212C84.0483 20.7221 83.9992 20.7344 83.9159 20.7221C83.7982 20.7024 83.6829 20.7049 83.5653 20.7196C83.3103 20.7492 83.119 20.8772 82.9645 21.0741C82.8493 21.2193 82.7708 21.2144 82.6924 21.0396C82.5894 20.8058 82.4202 20.6581 82.1726 20.6089C82.05 20.5843 82.0206 20.5252 82.0525 20.4046C82.0941 20.2421 82.126 20.0747 82.1505 19.9049C82.2143 19.4397 82.0402 19.1935 81.5768 19.1369C81.4272 19.1197 81.2752 19.0901 81.1281 19.1098L81.1232 19.1074Z" fill="#3F75B7"/>
<path d="M95.1258 28.0894C94.9051 28.0894 94.8144 27.9959 94.8169 27.7793C94.8193 27.5799 94.9272 27.4691 95.1209 27.4691C95.3048 27.4691 95.42 27.5897 95.4176 27.7842C95.4151 27.9786 95.3073 28.0894 95.1258 28.0894ZM95.1209 27.5774C95.0057 27.5774 94.9419 27.6439 94.9395 27.7694C94.937 27.9048 94.9983 27.9713 95.1185 27.9713C95.2263 27.9713 95.295 27.8974 95.2974 27.7768C95.2999 27.6587 95.2312 27.5799 95.1185 27.5799L95.1209 27.5774Z" fill="#3F75B7"/>
<path d="M93.7723 27.7866C93.7723 27.9713 93.6399 28.0919 93.434 28.0919C93.2722 28.0919 93.1496 27.9663 93.1471 27.7965C93.1471 27.5947 93.2574 27.4691 93.4413 27.4691C93.6424 27.4691 93.7723 27.5947 93.7748 27.7866H93.7723ZM93.4659 27.9737C93.5639 27.9737 93.6546 27.8876 93.6596 27.7842C93.6645 27.6857 93.5639 27.5823 93.4634 27.5774C93.3555 27.575 93.2673 27.6611 93.2673 27.7743C93.2673 27.8826 93.3555 27.9713 93.4634 27.9713L93.4659 27.9737Z" fill="#3F75B7"/>
<path d="M90.6904 27.7915C90.6855 27.986 90.5506 28.0992 90.33 28.0918C90.173 28.0869 90.0505 27.9146 90.0578 27.7103C90.0627 27.602 90.2466 27.4469 90.3692 27.4469C90.5408 27.4469 90.6953 27.6143 90.6904 27.7915ZM90.3937 27.9737C90.4991 27.9737 90.585 27.8777 90.5801 27.7669C90.5752 27.6684 90.4869 27.5872 90.379 27.5872C90.2638 27.5872 90.1829 27.6709 90.1878 27.7866C90.1927 27.8949 90.2809 27.9761 90.3937 27.9737Z" fill="#3F75B7"/>
<path d="M92.2939 29.4333C92.4729 29.4383 92.566 29.5466 92.5636 29.7435C92.5611 29.965 92.4165 30.0487 92.2007 30.034C92.0609 30.0241 91.9629 29.8986 91.9678 29.7238C91.9727 29.5195 92.0756 29.4284 92.2963 29.4358L92.2939 29.4333ZM92.441 29.7287C92.441 29.6155 92.3797 29.5441 92.2718 29.5392C92.1664 29.5343 92.0879 29.6057 92.083 29.7115C92.0781 29.8346 92.1418 29.9084 92.2546 29.9109C92.3748 29.9133 92.4385 29.8518 92.441 29.7287Z" fill="#3F75B7"/>
<path d="M90.0554 28.7491C90.0382 28.5251 90.1853 28.4537 90.3447 28.4463C90.5261 28.4364 90.6536 28.5767 90.6561 28.7687C90.6561 28.9435 90.5261 29.0715 90.3496 29.069C90.1387 29.069 90.0554 28.978 90.0554 28.7491ZM90.5286 28.7491C90.5286 28.6284 90.4624 28.5669 90.3422 28.5718C90.2319 28.5743 90.1583 28.6531 90.1632 28.7663C90.1657 28.8795 90.2417 28.9484 90.3569 28.9435C90.4722 28.941 90.531 28.8746 90.531 28.7491H90.5286Z" fill="#3F75B7"/>
<path d="M92.2375 28.0893C92.0708 28.0893 91.9629 27.9589 91.9654 27.7669C91.9678 27.5749 92.0806 27.4641 92.2694 27.469C92.4435 27.4715 92.5783 27.6044 92.5612 27.7816C92.544 27.9786 92.4901 28.0918 92.2375 28.0918V28.0893ZM92.2645 27.5773C92.1468 27.5798 92.083 27.6561 92.088 27.7841C92.0929 27.917 92.1468 27.9736 92.2645 27.9712C92.3797 27.9712 92.4484 27.8998 92.4459 27.7841C92.4459 27.6561 92.3724 27.5749 92.2645 27.5773Z" fill="#3F75B7"/>
<path d="M95.1111 29.4333C95.3048 29.4333 95.4176 29.5466 95.4151 29.7386C95.4151 29.9232 95.2999 30.0315 95.1086 30.0315C94.9248 30.0315 94.8144 29.9158 94.8144 29.7287C94.8144 29.5269 94.91 29.4333 95.1086 29.4333H95.1111ZM95.1185 29.5392C95.0106 29.5392 94.9395 29.6081 94.937 29.7164C94.937 29.842 94.9959 29.9084 95.1111 29.9109C95.2239 29.9109 95.2901 29.8493 95.2925 29.7386C95.2925 29.618 95.2263 29.5417 95.116 29.5392H95.1185Z" fill="#3F75B7"/>
<path d="M92.4949 29.0665C92.3135 29.0665 92.2203 28.9607 92.2228 28.7564C92.2228 28.5471 92.3478 28.4413 92.5783 28.4438C92.7131 28.4438 92.8308 28.6013 92.8284 28.7736C92.8259 28.9607 92.7009 29.069 92.4949 29.0665ZM92.5145 28.5693C92.3993 28.5693 92.3306 28.6431 92.3306 28.7564C92.3306 28.8721 92.4287 28.9607 92.5415 28.9558C92.642 28.9508 92.7254 28.8573 92.7205 28.7539C92.718 28.6456 92.6298 28.5668 92.5121 28.5693H92.5145Z" fill="#3F75B7"/>
<path d="M93.4291 28.7688C93.4291 28.5718 93.5346 28.4463 93.7037 28.4438C93.9048 28.4438 94.0298 28.5645 94.0298 28.7614C94.0298 28.9337 93.895 29.0617 93.7062 29.0617C93.5419 29.0617 93.4095 28.9583 93.4316 28.7688H93.4291ZM93.9195 28.7491C93.9195 28.6408 93.8386 28.5669 93.7233 28.5694C93.6032 28.5694 93.5346 28.6408 93.5346 28.7565C93.5346 28.8746 93.6204 28.9534 93.7356 28.9509C93.8386 28.946 93.9219 28.8598 93.9195 28.7515V28.7491Z" fill="#3F75B7"/>
<path d="M91.4676 28.7465C91.4676 28.5644 91.5951 28.4339 91.7716 28.4462C91.9702 28.461 92.0805 28.5693 92.0879 28.7736C92.0953 28.9631 91.9016 29.0715 91.7495 29.0665C91.5804 29.0616 91.4651 28.9311 91.4676 28.7465ZM91.5877 28.7441C91.5828 28.8696 91.6466 28.9459 91.7667 28.9558C91.8746 28.9631 91.9653 28.8795 91.9727 28.7662C91.98 28.6481 91.9114 28.5767 91.7814 28.5693C91.6588 28.5644 91.5926 28.6235 91.5877 28.7416V28.7441Z" fill="#3F75B7"/>
<path d="M91.4652 26.7725C91.4529 26.5731 91.6074 26.4845 91.7839 26.4919C91.9678 26.5017 92.0953 26.6199 92.0904 26.7922C92.0855 26.9866 91.9482 27.1146 91.7521 27.1073C91.578 27.0999 91.4603 26.9645 91.4652 26.7725ZM91.9727 26.7971C91.9727 26.6913 91.8796 26.6026 91.7692 26.6002C91.6638 26.6002 91.5706 26.6937 91.5706 26.802C91.5706 26.9029 91.6613 26.9866 91.7692 26.9891C91.882 26.9891 91.9727 26.9054 91.9727 26.7971Z" fill="#3F75B7"/>
<path d="M95.3464 27.0999C95.1821 27.1073 95.0792 27.0039 95.0718 26.8242C95.0645 26.6174 95.1552 26.5042 95.3342 26.4968C95.5573 26.487 95.6725 26.578 95.6774 26.7725C95.6848 26.9965 95.5916 27.09 95.3464 27.1023V27.0999ZM95.3807 26.9916C95.4886 26.9916 95.5744 26.9103 95.5744 26.807C95.5744 26.6937 95.4911 26.6051 95.3832 26.6027C95.2729 26.6027 95.1821 26.6888 95.1821 26.7947C95.1821 26.903 95.2729 26.9916 95.3832 26.9916H95.3807Z" fill="#3F75B7"/>
<path d="M95.6848 28.7638C95.6799 28.9459 95.5402 29.0764 95.3514 29.069C95.1944 29.0616 95.0473 28.9065 95.0498 28.749C95.0547 28.5669 95.192 28.4364 95.3759 28.4438C95.5573 28.4487 95.6873 28.5865 95.6824 28.7638H95.6848ZM95.3759 28.5693C95.2484 28.5693 95.1773 28.6358 95.1797 28.7588C95.1797 28.8696 95.2705 28.9558 95.3808 28.9558C95.4862 28.9558 95.5745 28.8598 95.572 28.749C95.572 28.6382 95.496 28.5718 95.3759 28.5718V28.5693Z" fill="#3F75B7"/>
<path d="M90.3471 30.0364C90.1583 30.0315 90.0749 29.9355 90.0774 29.7214C90.0774 29.5269 90.1853 29.4334 90.3961 29.4358C90.5898 29.4383 90.6928 29.5515 90.6855 29.7558C90.6806 29.9281 90.5457 30.0389 90.3471 30.034V30.0364ZM90.3765 29.9134C90.5016 29.9134 90.58 29.8395 90.5776 29.7288C90.5751 29.6254 90.4918 29.5441 90.3839 29.5417C90.2711 29.5392 90.1853 29.6229 90.1853 29.7361C90.1853 29.8518 90.2539 29.9158 90.3765 29.9158V29.9134Z" fill="#3F75B7"/>
<path d="M92.5072 27.1023C92.3135 27.0974 92.2203 26.9915 92.2252 26.7798C92.2301 26.5928 92.3405 26.4894 92.5342 26.4943C92.696 26.4968 92.8505 26.6469 92.848 26.802C92.8456 26.9718 92.6911 27.1072 92.5072 27.1023ZM92.5317 26.9915C92.6396 26.9891 92.723 26.9054 92.7254 26.802C92.7254 26.6912 92.6371 26.6026 92.5268 26.6026C92.4116 26.6026 92.3258 26.6961 92.3307 26.8143C92.3356 26.9226 92.4165 26.994 92.5317 26.9915Z" fill="#3F75B7"/>
<path d="M90.3422 27.1024C90.1485 27.1024 90.0554 27.0039 90.0554 26.7971C90.0554 26.6027 90.1534 26.4968 90.3349 26.4944C90.531 26.4944 90.6561 26.6101 90.6536 26.8095C90.6536 27.0015 90.5653 27.0925 90.3422 27.1024ZM90.5286 26.8095C90.5286 26.6741 90.4648 26.6002 90.352 26.6027C90.2466 26.6027 90.1657 26.6864 90.1632 26.7947C90.1583 26.9104 90.2392 26.9891 90.3594 26.9916C90.4746 26.9916 90.5286 26.9325 90.5286 26.8119V26.8095Z" fill="#3F75B7"/>
<path d="M93.4781 29.4309C93.6547 29.4309 93.7699 29.5491 93.7699 29.7263C93.7699 29.9183 93.6424 30.0487 93.4487 30.0364C93.2844 30.0266 93.1545 29.9454 93.1594 29.7263C93.1643 29.5368 93.2746 29.4309 93.4781 29.4334V29.4309ZM93.4561 29.9134C93.5811 29.9134 93.6571 29.8444 93.6571 29.7263C93.6571 29.6204 93.5737 29.5392 93.4659 29.5392C93.3482 29.5392 93.2673 29.618 93.2697 29.7312C93.2697 29.8494 93.3359 29.9109 93.4585 29.9109L93.4561 29.9134Z" fill="#3F75B7"/>
<path d="M93.4266 26.7921C93.4291 26.5854 93.5222 26.4943 93.7306 26.4968C93.8998 26.4968 94.0371 26.6272 94.0273 26.7897C94.0126 27.0014 93.89 27.1097 93.7086 27.1072C93.5271 27.1047 93.4242 26.9891 93.4266 26.7921ZM93.9023 26.7847C93.9023 26.6691 93.841 26.6051 93.7306 26.6026C93.6228 26.6026 93.5345 26.6887 93.5345 26.7995C93.5345 26.9177 93.6105 26.994 93.7306 26.9915C93.8483 26.9915 93.9047 26.9226 93.9047 26.7847H93.9023Z" fill="#3F75B7"/>
<path d="M91.8599 29.7435C91.8599 29.805 91.8575 29.8641 91.8599 29.9256C91.8648 29.9921 91.8305 30.0241 91.7741 30.0314C91.7128 30.0388 91.6834 29.9871 91.6883 29.9404C91.703 29.805 91.6981 29.6745 91.6834 29.5416C91.6785 29.4875 91.7104 29.4382 91.7766 29.4382C91.8452 29.4382 91.8599 29.4875 91.8575 29.5465C91.8575 29.6105 91.8575 29.677 91.8575 29.741L91.8599 29.7435Z" fill="#3F75B7"/>
<path d="M94.1377 28.7441C94.1377 28.6703 94.1377 28.5964 94.1377 28.5226C94.1377 28.4733 94.1622 28.4315 94.2039 28.4241C94.2407 28.4192 94.2701 28.461 94.275 28.5029C94.2946 28.6678 94.2897 28.8302 94.2775 28.9952C94.275 29.0346 94.2431 29.0665 94.1965 29.0641C94.1426 29.0616 94.1426 29.0173 94.1401 28.9779C94.1401 28.8992 94.1401 28.8229 94.1401 28.7441H94.1377Z" fill="#3F75B7"/>
<path d="M91.703 27.7645C91.703 27.6956 91.7054 27.6266 91.703 27.5553C91.7005 27.4863 91.7496 27.4765 91.7961 27.474C91.8452 27.4691 91.8599 27.511 91.8599 27.5528C91.8599 27.6956 91.8623 27.8383 91.8623 27.9811C91.8623 28.0377 91.8378 28.0722 91.7765 28.0722C91.7079 28.0722 91.7054 28.0229 91.7054 27.9737C91.7054 27.9048 91.7054 27.8359 91.7054 27.7645H91.703Z" fill="#3F75B7"/>
<path d="M90.7614 28.7663C90.7614 28.6974 90.7614 28.626 90.7614 28.5571C90.7614 28.5079 90.7761 28.4709 90.8325 28.466C90.8889 28.4611 90.911 28.498 90.911 28.5472C90.9135 28.6876 90.9159 28.8254 90.9135 28.9657C90.9135 29.0199 90.8791 29.0617 90.8252 29.0568C90.7761 29.0543 90.7541 29.0125 90.7565 28.9608C90.7565 28.8943 90.7565 28.8303 90.7565 28.7639C90.7565 28.7639 90.759 28.7639 90.7614 28.7639V28.7663Z" fill="#3F75B7"/>
<path d="M94.1377 26.8021C94.1377 26.7233 94.1377 26.6445 94.1377 26.5682C94.1377 26.5239 94.1622 26.4944 94.2113 26.4944C94.2554 26.4944 94.275 26.5288 94.275 26.5608C94.2799 26.7135 94.2824 26.8636 94.2775 27.0162C94.2775 27.063 94.2407 27.0974 94.1892 27.095C94.1352 27.095 94.1328 27.0482 94.1328 27.0088C94.1328 26.9399 94.1328 26.8685 94.1328 26.7996L94.1377 26.8021Z" fill="#3F75B7"/>
<path d="M95.6088 30.0929C95.4911 29.8936 95.5058 29.6966 95.545 29.4948C95.5524 29.4554 95.5745 29.4333 95.6161 29.4357C95.6554 29.4382 95.6676 29.4702 95.6701 29.4997C95.6799 29.6942 95.7044 29.8936 95.6088 30.0929Z" fill="#3F75B7"/>
<path d="M95.6774 27.7842C95.6774 27.8531 95.6774 27.9245 95.6774 27.9934C95.6774 28.0549 95.6382 28.0746 95.5843 28.0771C95.5107 28.082 95.5426 28.0205 95.5426 27.9959C95.5377 27.8531 95.5352 27.7079 95.5426 27.5651C95.5426 27.538 95.4837 27.474 95.5744 27.4716C95.6382 27.4716 95.675 27.4986 95.675 27.5626C95.675 27.6365 95.675 27.7103 95.675 27.7842H95.6774Z" fill="#3F75B7"/>
<path d="M91.5755 27.474C91.6318 27.6758 91.6539 27.8678 91.5632 28.0771C91.4725 27.9417 91.5068 27.8063 91.497 27.6758C91.4872 27.5552 91.4823 27.5552 91.5779 27.474H91.5755Z" fill="#3F75B7"/>
<path d="M94.6428 27.4764C94.6967 27.5626 94.7016 27.6463 94.7065 27.7275C94.7114 27.8087 94.7065 27.8924 94.7065 27.9737C94.7065 28.0057 94.7261 28.0475 94.6796 28.0623C94.6207 28.077 94.6183 28.0204 94.6109 27.9909C94.5643 27.8235 94.5619 27.6561 94.6452 27.4789L94.6428 27.4764Z" fill="#3F75B7"/>
<path d="M89.8763 29.1059C89.7905 28.9459 89.8298 28.7908 89.7783 28.6505C89.7685 28.621 89.8249 28.5324 89.8567 28.5275C89.9254 28.5201 89.918 28.5988 89.9205 28.6456C89.9278 28.7908 89.9327 28.9385 89.8739 29.1059H89.8763Z" fill="#3F75B7"/>
<path d="M92.7426 28.0155C92.6936 27.8481 92.6519 27.6782 92.7009 27.5035C92.7083 27.4764 92.7205 27.4518 92.7475 27.4518C92.7745 27.4518 92.799 27.4739 92.7965 27.501C92.7867 27.6709 92.8309 27.8481 92.7402 28.0155H92.7426Z" fill="#3F75B7"/>
<path d="M91.0287 26.5386C91.1391 26.6641 91.0998 26.8143 91.0974 26.9595C91.0974 26.9767 91.0827 26.9915 91.0802 27.0087C91.0753 27.0481 91.1293 27.117 91.0483 27.1146C90.9969 27.1146 91.0091 27.0407 91.0067 26.9939C90.9993 26.8438 90.9895 26.6936 91.0312 26.541L91.0287 26.5386Z" fill="#3F75B7"/>
<path d="M94.4785 27.8088C94.4638 27.8777 94.4515 27.9467 94.4319 28.0106C94.427 28.0303 94.4245 28.0697 94.3878 28.0623C94.3632 28.0574 94.3436 28.0328 94.3461 28.0033C94.3608 27.8753 94.3461 27.7473 94.3461 27.6193C94.3461 27.5873 94.3608 27.57 94.3878 27.5602C94.427 27.5479 94.427 27.5873 94.4319 27.607C94.4515 27.6734 94.4638 27.7399 94.4785 27.8088Z" fill="#3F75B7"/>
<path d="M94.4417 29.1059C94.3534 28.8917 94.3461 28.7096 94.4221 28.5004C94.5226 28.7071 94.4858 28.8893 94.4417 29.1059Z" fill="#3F75B7"/>
<path d="M94.6109 26.5312C94.7433 26.7011 94.7433 27.0088 94.6182 27.122C94.6011 26.9275 94.6035 26.7405 94.6109 26.5312Z" fill="#3F75B7"/>
<path d="M93.2648 27.1171C93.1741 27.0752 93.1986 27.0014 93.1962 26.9398C93.1913 26.8438 93.1962 26.7478 93.1962 26.6543C93.1962 26.6198 93.1888 26.5706 93.228 26.5657C93.2795 26.5583 93.2844 26.6174 93.2869 26.6494C93.3016 26.8045 93.309 26.962 93.2599 27.1171H93.2648Z" fill="#3F75B7"/>
<path d="M92.9632 28.8352C92.9558 28.7491 92.973 28.6777 92.9436 28.6112C92.9264 28.5743 92.9362 28.5423 92.9779 28.5275C93.0245 28.5103 93.0417 28.5448 93.0515 28.5768C93.0809 28.6999 93.076 28.8254 93.0515 28.9509C93.0441 28.978 93.0319 29.0174 92.9926 29.0026C92.9607 28.9903 92.9436 28.9632 92.9607 28.9189C92.973 28.8894 92.9681 28.85 92.9681 28.8352H92.9632Z" fill="#3F75B7"/>
<path d="M93.0172 26.5386C93.0834 26.706 93.0907 26.8512 93.0417 27.0014C93.0343 27.026 93.027 27.053 92.9902 27.0432C92.9632 27.0358 92.9338 27.0235 92.9412 26.994C92.978 26.866 92.9461 26.7355 92.9706 26.6075C92.9731 26.5878 92.9927 26.5731 93.0172 26.5361V26.5386Z" fill="#3F75B7"/>
<path d="M94.883 27.0456C94.7752 26.8955 94.8463 26.7306 94.8217 26.5804C94.8193 26.5558 94.8389 26.5533 94.8561 26.5533C94.8855 26.5533 94.9076 26.5607 94.9125 26.5927C94.9345 26.7429 94.9615 26.8955 94.8806 27.0456H94.883Z" fill="#3F75B7"/>
<path d="M90.8767 27.5256C90.9429 27.6832 90.9258 27.8284 90.9037 27.9712C90.9013 27.9933 90.9037 28.045 90.8571 28.0327C90.8277 28.0253 90.7885 28.0032 90.7983 27.9589C90.8228 27.8481 90.8351 27.7422 90.7983 27.6315C90.7811 27.5847 90.8547 27.5773 90.8767 27.5256Z" fill="#3F75B7"/>
<path d="M90.8252 27.0358C90.7639 26.8758 90.7321 26.7183 90.8228 26.5361C90.9233 26.7158 90.8914 26.8758 90.8252 27.0358Z" fill="#3F75B7"/>
<path d="M91.3082 27.506C91.4186 27.6709 91.3916 27.8481 91.3475 28.0598C91.2249 27.8604 91.3058 27.6807 91.3082 27.506Z" fill="#3F75B7"/>
<path d="M91.3278 29.5096C91.4137 29.6746 91.3989 29.8469 91.3524 30.0364C91.2273 29.8543 91.2813 29.6819 91.3278 29.5096Z" fill="#3F75B7"/>
<path d="M94.4245 26.5042C94.5054 26.706 94.5054 26.8709 94.4319 27.0604C94.3485 26.8758 94.3534 26.7085 94.4245 26.5042Z" fill="#3F75B7"/>
<path d="M94.8732 28.53C94.9689 28.6876 94.9443 28.8451 94.8879 29.0297C94.7825 28.8476 94.8414 28.6876 94.8732 28.53Z" fill="#3F75B7"/>
<path d="M91.2862 27.0579C91.1955 26.8955 91.2445 26.7379 91.2372 26.5853C91.2372 26.5533 91.2617 26.5361 91.2886 26.5386C91.3083 26.5386 91.3303 26.5583 91.3303 26.5829C91.3254 26.7355 91.372 26.893 91.2862 27.0579Z" fill="#3F75B7"/>
<path d="M89.8665 26.514C89.945 26.6863 89.9376 26.834 89.9008 26.9817C89.8959 27.0063 89.9008 27.0408 89.8616 27.0383C89.8346 27.0359 89.8224 27.0113 89.8224 26.9793C89.8224 26.8316 89.7979 26.6839 89.8641 26.514H89.8665Z" fill="#3F75B7"/>
<path d="M94.1646 27.5134C94.2799 27.6931 94.2578 27.8556 94.1769 28.0525C94.1107 27.858 94.1254 27.698 94.1646 27.5134Z" fill="#3F75B7"/>
<path d="M94.3927 29.4604C94.5055 29.6549 94.4638 29.8149 94.4172 30.0069C94.3118 29.8174 94.3731 29.6574 94.3927 29.4604Z" fill="#3F75B7"/>
<path d="M94.1647 29.4333C94.2407 29.6007 94.2628 29.7706 94.1794 29.9724C94.1083 29.7706 94.1402 29.6007 94.1647 29.4333Z" fill="#3F75B7"/>
<path d="M91.0998 27.5084C91.1808 27.6709 91.144 27.821 91.1489 27.9663C91.1489 27.9909 91.1293 28.018 91.0998 28.0155C91.0704 28.0155 91.0778 27.9835 91.0729 27.9638C91.041 27.8161 91.0263 27.6709 91.0998 27.5084Z" fill="#3F75B7"/>
<path d="M91.269 28.5275C91.367 28.6678 91.3597 28.9164 91.2395 29.0542C91.2395 28.8647 91.2101 28.6973 91.269 28.5275Z" fill="#3F75B7"/>
<path d="M91.5412 29.49C91.6466 29.6204 91.6466 29.8321 91.5436 29.9601C91.4848 29.8051 91.4897 29.6549 91.5412 29.49Z" fill="#3F75B7"/>
<path d="M94.655 29.005C94.5937 28.8426 94.5863 28.6826 94.655 28.525C94.7237 28.685 94.731 28.845 94.655 29.005Z" fill="#3F75B7"/>
<path d="M93.9538 27.5084C94.0151 27.693 94.0224 27.8506 93.9636 28.013C93.8802 27.9416 93.8704 27.7029 93.9538 27.5084Z" fill="#3F75B7"/>
<path d="M92.7402 29.485C92.8456 29.6598 92.7892 29.8173 92.7598 29.9822C92.6789 29.8862 92.6691 29.6474 92.7402 29.485Z" fill="#3F75B7"/>
<path d="M93.2501 28.4979C93.309 28.6678 93.3139 28.8056 93.2746 28.9484C93.2697 28.9705 93.2599 28.9902 93.2354 28.9951C93.2133 29.0001 93.2011 28.9828 93.2011 28.9681C93.2011 28.8204 93.1619 28.6702 93.2501 28.5004V28.4979Z" fill="#3F75B7"/>
<path d="M92.9829 29.49C93.0319 29.6549 93.0123 29.8124 93.005 29.9774C92.8897 29.8543 92.8775 29.6278 92.9829 29.49Z" fill="#3F75B7"/>
<path d="M93.944 29.9871C93.8803 29.8222 93.9048 29.6843 93.9097 29.549C93.9097 29.5293 93.9244 29.517 93.944 29.517C93.9857 29.517 93.9931 29.5539 93.9955 29.581C94.0053 29.704 94.0225 29.832 93.944 29.9847V29.9871Z" fill="#3F75B7"/>
<path d="M91.1145 29.9946C91.0312 29.8075 91.0361 29.6524 91.0974 29.4629C91.1856 29.65 91.1562 29.8075 91.1145 29.9946Z" fill="#3F75B7"/>
<path d="M94.6698 29.9995C94.5496 29.8419 94.5668 29.677 94.6452 29.4678C94.7139 29.6672 94.6698 29.8345 94.6698 29.9995Z" fill="#3F75B7"/>
<path d="M89.8862 27.5208C89.9892 27.6881 89.9352 27.8506 89.9156 28.0106C89.8347 27.949 89.8175 27.698 89.8862 27.5208Z" fill="#3F75B7"/>
<path d="M91.0631 28.5004C91.1244 28.6727 91.1023 28.8253 91.0827 28.9951C90.9748 28.8671 90.9675 28.7121 91.0631 28.5004Z" fill="#3F75B7"/>
<path d="M89.8764 30.0093C89.8371 29.8198 89.8249 29.6697 89.8886 29.4924C89.9622 29.6697 89.9695 29.8198 89.8764 30.0093Z" fill="#3F75B7"/>
<path d="M90.8693 29.4874C90.9478 29.6622 90.9331 29.805 90.8767 29.9674C90.8031 29.8123 90.8007 29.6819 90.8693 29.4874Z" fill="#3F75B7"/>
<path d="M92.9877 27.9959C92.8897 27.8482 92.9068 27.6906 92.9142 27.5306C92.9142 27.506 92.9313 27.4863 92.9534 27.4863C92.9902 27.4863 92.9877 27.5208 92.9877 27.5454C92.9877 27.6956 92.9877 27.8457 92.9877 27.9959Z" fill="#3F75B7"/>
</g>
<path d="M43.7764 93.4367V96.761C43.7764 96.9978 43.6944 97.2012 43.5305 97.3712C43.3726 97.5412 43.1814 97.6262 42.9567 97.6262H41.1989L40.8984 97.3074H40.8802C40.7101 97.52 40.4976 97.6262 40.2426 97.6262H38.3482C38.3361 98.2941 38.1235 98.8193 37.7107 99.2019C37.2796 99.6026 36.6875 99.803 35.9346 99.803H34.9237C34.1101 99.803 33.4877 99.5753 33.0566 99.1199C32.6862 98.7252 32.501 98.2 32.501 97.5443V95.6407L32.8927 95.322H33.2752V97.526C33.2752 98.1332 33.433 98.5552 33.7488 98.792C34.0706 99.0349 34.6292 99.1563 35.4246 99.1563C36.1836 99.1563 36.7149 99.0531 37.0185 98.8467C37.3888 98.5977 37.574 98.1575 37.574 97.526V94.484H38.3482V96.9796H39.9421C40.1728 96.9796 40.2881 96.8642 40.2881 96.6335V93.9558H41.0623V96.761C41.0623 96.8399 41.0532 96.9128 41.035 96.9796H42.6562C42.8869 96.9796 43.0023 96.8642 43.0023 96.6335V93.4367H43.7764ZM45.8072 91.1051V97.5351L45.4156 97.8539H45.0331V91.1051H45.8072ZM48.8248 93.4367V96.9796H49.2893V97.6262H48.8248C48.8066 98.3852 48.5364 98.9529 48.0142 99.3294C47.5953 99.639 47.0518 99.7939 46.3839 99.7939C46.2807 99.7939 46.1502 99.7908 45.9923 99.7848L45.6918 99.4113V99.1199C45.8678 99.1442 46.0591 99.1563 46.2655 99.1563C47.4556 99.1563 48.0507 98.6099 48.0507 97.5169V93.4367H48.8248ZM52.7674 91.4329C52.8949 91.4329 53.0012 91.4785 53.0862 91.5696C53.1773 91.6546 53.2228 91.7578 53.2228 91.8792C53.2228 92.0067 53.1773 92.116 53.0862 92.2071C53.0012 92.2921 52.8949 92.3346 52.7674 92.3346C52.646 92.3346 52.5397 92.2921 52.4486 92.2071C52.3636 92.116 52.3211 92.0067 52.3211 91.8792C52.3211 91.7578 52.3636 91.6546 52.4486 91.5696C52.5397 91.4785 52.646 91.4329 52.7674 91.4329ZM51.2646 96.9796C51.0339 96.7671 50.8639 96.5029 50.7546 96.1872C50.6696 95.9322 50.6271 95.6802 50.6271 95.4313C50.6271 94.7816 50.8214 94.2655 51.21 93.8829C51.5925 93.5126 52.1116 93.3274 52.7674 93.3274C53.2653 93.3274 53.663 93.4549 53.9605 93.7099C54.3066 94.0013 54.4857 94.4264 54.4979 94.985V96.761C54.4979 96.9978 54.4159 97.2012 54.252 97.3712C54.0941 97.5412 53.9028 97.6262 53.6782 97.6262H49.2245V96.9796H51.2646ZM53.7146 94.985C53.7146 94.6449 53.6144 94.3839 53.4141 94.2017C53.2562 94.056 53.0406 93.9831 52.7674 93.9831C52.2634 93.9831 51.8931 94.1592 51.6563 94.5114C51.4862 94.7542 51.4012 95.07 51.4012 95.4586C51.4073 95.8715 51.5409 96.2236 51.802 96.5151C52.0752 96.8247 52.4365 96.9796 52.8858 96.9796H53.3776C53.6023 96.9796 53.7146 96.8642 53.7146 96.6335V94.985ZM57.5806 96.7792C57.7082 96.7792 57.8144 96.8217 57.8994 96.9067C57.9844 96.9917 58.0269 97.098 58.0269 97.2255C58.0269 97.3469 57.9844 97.4532 57.8994 97.5443C57.8144 97.6293 57.7082 97.6718 57.5806 97.6718C57.4592 97.6718 57.353 97.6293 57.2619 97.5443C57.1769 97.4532 57.1344 97.3469 57.1344 97.2255C57.1344 97.098 57.1769 96.9917 57.2619 96.9067C57.353 96.8217 57.4592 96.7792 57.5806 96.7792ZM59.7594 93.382C59.978 93.3456 60.2117 93.3274 60.4607 93.3274C61.1347 93.3274 61.6781 93.5308 62.091 93.9376C62.4614 94.314 62.6465 94.7907 62.6465 95.3675V96.761C62.6465 96.9978 62.5706 97.1982 62.4189 97.3621C62.261 97.5382 62.0667 97.6262 61.836 97.6262H58.8395V96.9796H61.5354C61.7601 96.9796 61.8724 96.8642 61.8724 96.6335V95.4768C61.8724 95.0457 61.7418 94.6875 61.4808 94.4021C61.2014 94.1106 60.7703 93.9619 60.1875 93.9558C60.0174 93.9558 59.8748 93.9679 59.7594 93.9922V93.382Z" fill="#152258"/>
<path d="M24.4445 73.1314V83.4232L23.7918 84H23.1542V74.6797L21.272 76.2584L20.5889 75.4084L23.2909 73.1314H24.4445ZM30.6843 83.5294C30.411 83.3372 30.1783 83.1095 29.986 82.8464C29.5407 82.2189 29.3181 81.4245 29.3181 80.4632C29.3181 79.35 29.6419 78.4847 30.2896 77.8674C30.8664 77.321 31.6406 77.0477 32.6121 77.0477C33.0169 77.0477 33.447 77.0983 33.9023 77.1995V78.2621C33.4672 78.1609 33.0826 78.1103 32.7487 78.1103C31.3319 78.1103 30.6236 78.9199 30.6236 80.5391C30.6236 81.2474 30.8006 81.799 31.1548 82.1936C31.5191 82.5883 32.0251 82.7856 32.6728 82.7856C32.7436 82.7856 32.8195 82.7856 32.9005 82.7856C33.9327 82.644 34.7473 82.5731 35.3444 82.5731C35.3849 82.5731 35.4355 82.5731 35.4962 82.5731V83.0285L34.9649 83.6812C34.1047 83.6812 33.2041 83.8229 32.2629 84.1063C31.2915 84.3997 30.4313 84.7995 29.6824 85.3054L29.1208 84.4098C29.4648 84.1569 29.986 83.8634 30.6843 83.5294ZM38.1541 73.1314V82.3454C38.1541 82.5073 38.2047 82.644 38.3058 82.7553C38.4172 82.8666 38.5588 82.9222 38.7309 82.9222H38.9282V84H38.23C37.9061 84 37.6228 83.8937 37.3799 83.6812C37.0358 83.3878 36.8638 83.0133 36.8638 82.5579V73.1314H38.1541ZM41.6324 82.9222V84H38.8242V82.9222H41.6324ZM44.3304 82.9222V84H41.5221V82.9222H44.3304ZM48.2427 77.0174V82.5579C48.2427 82.9324 48.1212 83.2562 47.8784 83.5294C47.6051 83.8431 47.2661 84 46.8613 84H44.2201V82.9222H46.3756C46.5476 82.9222 46.6893 82.8615 46.8006 82.7401C46.9018 82.6389 46.9524 82.5073 46.9524 82.3454V77.0174H48.2427ZM45.5103 85.5787C45.7127 85.5787 45.8848 85.6495 46.0265 85.7912C46.1782 85.943 46.2541 86.1201 46.2541 86.3225C46.2541 86.535 46.1782 86.7121 46.0265 86.8538C45.8848 87.0056 45.7127 87.0815 45.5103 87.0815C45.2978 87.0815 45.1157 87.0056 44.9639 86.8538C44.8222 86.7121 44.7514 86.535 44.7514 86.3225C44.7514 86.1201 44.8222 85.943 44.9639 85.7912C45.1157 85.6495 45.2978 85.5787 45.5103 85.5787ZM47.3471 85.5787C47.5596 85.5787 47.7367 85.6495 47.8784 85.7912C48.02 85.943 48.0909 86.1201 48.0909 86.3225C48.0909 86.535 48.02 86.7121 47.8784 86.8538C47.7367 87.0056 47.5596 87.0815 47.3471 87.0815C47.1447 87.0815 46.9676 87.0056 46.8158 86.8538C46.6741 86.7121 46.6033 86.535 46.6033 86.3225C46.6033 86.1201 46.6741 85.943 46.8158 85.7912C46.9676 85.6495 47.1447 85.5787 47.3471 85.5787ZM53.6933 73.6779C53.8957 73.6779 54.0678 73.7538 54.2094 73.9056C54.3612 74.0472 54.4371 74.2193 54.4371 74.4217C54.4371 74.6342 54.3612 74.8163 54.2094 74.9681C54.0678 75.1098 53.8957 75.1807 53.6933 75.1807C53.4909 75.1807 53.3138 75.1098 53.162 74.9681C53.0204 74.8163 52.9495 74.6342 52.9495 74.4217C52.9495 74.2193 53.0204 74.0472 53.162 73.9056C53.3138 73.7538 53.4909 73.6779 53.6933 73.6779ZM54.3309 77.0174V82.9222H55.105V84H54.3309C54.3005 85.0525 53.9817 85.8924 53.3746 86.5198C52.8787 87.0258 52.2007 87.3597 51.3405 87.5217C51.0167 87.5824 50.6726 87.6127 50.3083 87.6127C50.0654 87.6127 49.8327 87.6077 49.61 87.5976L49.1091 86.9752V86.4895C49.4026 86.5299 49.7213 86.5502 50.0654 86.5502C52.0489 86.5502 53.0406 85.6394 53.0406 83.8178V77.0174H54.3309ZM57.8052 82.9222V84H54.997V82.9222H57.8052ZM61.7175 77.0174V82.5579C61.7175 82.6794 61.7023 82.8008 61.672 82.9222H62.4765V84H61.8845L61.4443 83.4687H61.3987C61.1255 83.8229 60.7713 84 60.3362 84H57.6949V82.9222H59.8504C60.0123 82.9222 60.1439 82.8717 60.2451 82.7705C60.3665 82.6591 60.4273 82.5175 60.4273 82.3454V77.0174H61.7175ZM59.1218 85.5787C59.3242 85.5787 59.4962 85.6495 59.6379 85.7912C59.7897 85.943 59.8656 86.1201 59.8656 86.3225C59.8656 86.535 59.7897 86.7121 59.6379 86.8538C59.4962 87.0056 59.3242 87.0815 59.1218 87.0815C58.9194 87.0815 58.7423 87.0056 58.5905 86.8538C58.4488 86.7121 58.378 86.535 58.378 86.3225C58.378 86.1201 58.4488 85.943 58.5905 85.7912C58.7423 85.6495 58.9194 85.5787 59.1218 85.5787ZM60.9585 85.5787C61.1711 85.5787 61.3481 85.6495 61.4898 85.7912C61.6416 85.943 61.7175 86.1201 61.7175 86.3225C61.7175 86.535 61.6416 86.7121 61.4898 86.8538C61.3481 87.0056 61.1711 87.0815 60.9585 87.0815C60.7561 87.0815 60.579 87.0056 60.4273 86.8538C60.2856 86.7121 60.2147 86.535 60.2147 86.3225C60.2147 86.1201 60.2856 85.943 60.4273 85.7912C60.579 85.6495 60.7561 85.5787 60.9585 85.5787ZM65.1727 82.9222V84H62.3644V82.9222H65.1727ZM70.9672 73.6779C71.1797 73.6779 71.3568 73.7538 71.4985 73.9056C71.6503 74.0472 71.7262 74.2193 71.7262 74.4217C71.7262 74.6342 71.6503 74.8163 71.4985 74.9681C71.3568 75.1098 71.1797 75.1807 70.9672 75.1807C70.7648 75.1807 70.5877 75.1098 70.4359 74.9681C70.2943 74.8163 70.2234 74.6342 70.2234 74.4217C70.2234 74.2193 70.2943 74.0472 70.4359 73.9056C70.5877 73.7538 70.7648 73.6779 70.9672 73.6779ZM68.4626 82.9222C68.078 82.5681 67.7947 82.1279 67.6125 81.6016C67.4709 81.1766 67.4 80.7566 67.4 80.3417C67.4 79.2589 67.7239 78.3987 68.3715 77.7612C69.0091 77.1439 69.8743 76.8352 70.9672 76.8352C71.797 76.8352 72.4599 77.0477 72.9558 77.4728C73.5326 77.9585 73.8311 78.6669 73.8514 79.5979V82.5579C73.8514 82.9526 73.7147 83.2916 73.4415 83.575C73.1784 83.8583 72.8596 84 72.4852 84H65.0624V82.9222H68.4626ZM72.5459 79.5979C72.5459 79.0312 72.3789 78.5961 72.045 78.2925C71.7819 78.0496 71.4226 77.9282 70.9672 77.9282C70.1273 77.9282 69.51 78.2216 69.1153 78.8086C68.832 79.2134 68.6903 79.7396 68.6903 80.3873C68.7004 81.0754 68.923 81.6623 69.3582 82.1481C69.8136 82.6642 70.4157 82.9222 71.1646 82.9222H71.9843C72.3587 82.9222 72.5459 82.73 72.5459 82.3454V79.5979Z" fill="black"/>
<path d="M106.819 133.621C106.944 133.621 107.048 133.666 107.131 133.755C107.22 133.838 107.265 133.939 107.265 134.058C107.265 134.183 107.22 134.29 107.131 134.379C107.048 134.462 106.944 134.504 106.819 134.504C106.7 134.504 106.596 134.462 106.507 134.379C106.424 134.29 106.382 134.183 106.382 134.058C106.382 133.939 106.424 133.838 106.507 133.755C106.596 133.666 106.7 133.621 106.819 133.621ZM105.464 139.05C105.09 138.646 104.903 138.141 104.903 137.535C104.903 136.958 105.06 136.486 105.375 136.117C105.738 135.69 106.219 135.476 106.819 135.476C107.354 135.476 107.8 135.651 108.156 136.002C108.549 136.388 108.745 136.899 108.745 137.535C108.745 138.129 108.558 138.634 108.183 139.05H108.959V139.683H107.684H107.577C107.226 139.683 106.98 139.659 106.837 139.612H106.81C106.668 139.659 106.418 139.683 106.062 139.683H105.955H102.38C102.023 139.683 101.714 139.561 101.453 139.318C101.138 139.027 100.98 138.658 100.98 138.212V136.536L101.364 136.224H101.738V138.212C101.738 138.438 101.815 138.631 101.97 138.792C102.136 138.964 102.344 139.05 102.594 139.05H105.464ZM107.987 137.544C107.987 137.104 107.88 136.756 107.666 136.501C107.458 136.245 107.176 136.117 106.819 136.117C106.445 136.117 106.157 136.251 105.955 136.519C105.764 136.768 105.669 137.116 105.669 137.562C105.669 137.978 105.779 138.325 105.999 138.605C106.219 138.884 106.492 139.032 106.819 139.05C107.206 139.032 107.509 138.842 107.729 138.48C107.901 138.2 107.987 137.888 107.987 137.544ZM111.249 133.3V137.535C112.057 136.162 113.13 135.476 114.467 135.476C115.169 135.476 115.736 135.695 116.17 136.135C116.556 136.533 116.749 137.039 116.749 137.651V138.836C116.749 139.038 116.687 139.22 116.562 139.38C116.396 139.582 116.191 139.683 115.947 139.683H108.896V139.05H110.5V133.3H111.249ZM115.992 137.57C115.986 137.095 115.81 136.727 115.466 136.465C115.169 136.239 114.794 136.126 114.343 136.126C113.802 136.126 113.3 136.299 112.836 136.643C112.188 137.131 111.659 137.933 111.249 139.05H115.653C115.879 139.05 115.992 138.937 115.992 138.712V137.57ZM118.618 133.3V138.712C118.618 138.807 118.648 138.887 118.707 138.952C118.773 139.018 118.856 139.05 118.957 139.05H119.073V139.683H118.663C118.472 139.683 118.306 139.621 118.163 139.496C117.961 139.324 117.86 139.104 117.86 138.836V133.3H118.618ZM120.964 139.05C120.578 138.652 120.384 138.141 120.384 137.517C120.384 136.851 120.604 136.328 121.044 135.948C121.413 135.633 121.888 135.476 122.47 135.476C122.785 135.476 123.115 135.526 123.46 135.627V136.224C123.109 136.135 122.803 136.091 122.542 136.091C122.102 136.091 121.757 136.227 121.508 136.501C121.264 136.768 121.142 137.14 121.142 137.615C121.142 138.001 121.273 138.343 121.534 138.64C121.778 138.914 122.06 139.05 122.381 139.05H124.182V139.3L123.87 139.683H119.012V139.05H120.964ZM127.567 133.3V138.712C127.567 138.807 127.597 138.887 127.657 138.952C127.722 139.018 127.805 139.05 127.906 139.05H128.022V139.683H127.612C127.422 139.683 127.255 139.621 127.113 139.496C126.911 139.324 126.81 139.104 126.81 138.836V133.3H127.567ZM130.323 135.583V138.836C130.323 138.908 130.314 138.979 130.297 139.05H130.769V139.683H130.421L130.163 139.371H130.136C129.976 139.579 129.768 139.683 129.512 139.683H127.961V139.05H129.227C129.322 139.05 129.399 139.021 129.459 138.961C129.53 138.896 129.566 138.813 129.566 138.712V135.583H130.323ZM128.799 140.61C128.918 140.61 129.019 140.652 129.102 140.735C129.191 140.824 129.236 140.928 129.236 141.047C129.236 141.172 129.191 141.276 129.102 141.359C129.019 141.448 128.918 141.493 128.799 141.493C128.68 141.493 128.576 141.448 128.487 141.359C128.404 141.276 128.362 141.172 128.362 141.047C128.362 140.928 128.404 140.824 128.487 140.735C128.576 140.652 128.68 140.61 128.799 140.61ZM129.878 140.61C130.002 140.61 130.106 140.652 130.19 140.735C130.279 140.824 130.323 140.928 130.323 141.047C130.323 141.172 130.279 141.276 130.19 141.359C130.106 141.448 130.002 141.493 129.878 141.493C129.759 141.493 129.655 141.448 129.566 141.359C129.482 141.276 129.441 141.172 129.441 141.047C129.441 140.928 129.482 140.824 129.566 140.735C129.655 140.652 129.759 140.61 129.878 140.61ZM132.682 133.621C132.807 133.621 132.911 133.666 132.994 133.755C133.083 133.838 133.128 133.939 133.128 134.058C133.128 134.183 133.083 134.29 132.994 134.379C132.911 134.462 132.807 134.504 132.682 134.504C132.563 134.504 132.459 134.462 132.37 134.379C132.287 134.29 132.245 134.183 132.245 134.058C132.245 133.939 132.287 133.838 132.37 133.755C132.459 133.666 132.563 133.621 132.682 133.621ZM133.066 135.583V138.836C133.066 139.056 132.994 139.246 132.852 139.407C132.691 139.591 132.492 139.683 132.254 139.683H130.703V139.05H131.969C132.07 139.05 132.153 139.015 132.219 138.943C132.278 138.884 132.308 138.807 132.308 138.712V135.583H133.066ZM135.054 133.3V139.594L134.671 139.906H134.296V133.3H135.054ZM138.008 135.583V139.603C138.008 140.263 137.821 140.783 137.446 141.163C137.155 141.46 136.763 141.656 136.269 141.751C136.079 141.787 135.871 141.805 135.645 141.805C135.503 141.805 135.366 141.802 135.235 141.796L134.941 141.43V141.145C135.113 141.169 135.301 141.181 135.503 141.181C136.668 141.181 137.25 140.646 137.25 139.576V135.583H138.008Z" fill="white"/>
</g>
<defs>
<linearGradient id="paint0_linear_125_176" x1="74.5" y1="-2.9971e-06" x2="42.5" y2="35" gradientUnits="userSpaceOnUse">
<stop stop-color="#D9D9D9"/>
<stop offset="1" stop-color="#D9D9D9" stop-opacity="0.2"/>
</linearGradient>
<linearGradient id="paint1_linear_125_176" x1="63.5" y1="150" x2="95.5" y2="115" gradientUnits="userSpaceOnUse">
<stop stop-color="#D9D9D9"/>
<stop offset="1" stop-color="#D9D9D9" stop-opacity="0.2"/>
</linearGradient>
<linearGradient id="paint2_linear_125_176" x1="108.981" y1="25.2431" x2="0" y2="25.2431" gradientUnits="userSpaceOnUse">
<stop stop-color="#131D4B"/>
<stop offset="0.490385" stop-color="#1C2658"/>
<stop offset="1" stop-color="#0F1840"/>
</linearGradient>
<linearGradient id="paint3_linear_125_176" x1="185.981" y1="176.304" x2="77" y2="176.304" gradientUnits="userSpaceOnUse">
<stop stop-color="#131D4B"/>
<stop offset="0.490385" stop-color="#1C2658"/>
<stop offset="1" stop-color="#0F1840"/>
</linearGradient>
<clipPath id="clip0_125_176">
<rect width="150" height="150" fill="white"/>
</clipPath>
<clipPath id="clip1_125_176">
<rect width="64.0941" height="27.1059" fill="white" transform="translate(74.3411 8.18823)"/>
</clipPath>
</defs>
</svg>
