<svg width="24" height="24" viewBox="0 0 24 24" fill="none" xmlns="http://www.w3.org/2000/svg">
<path d="M2.55904 4.35793H20.1753C21.7708 4.35793 22.9229 5.82845 22.4853 7.30824L20.5701 13.7925C20.2748 14.7882 19.3323 15.4737 18.2601 15.4737H7.6561C6.58273 15.4737 5.63904 14.7871 5.34494 13.7925L2.55904 4.35793ZM2.55904 4.35793L1.73694 1.57898M17.3685 22.4211C17.8292 22.4211 18.2709 22.2381 18.5966 21.9124C18.9224 21.5867 19.1054 21.1449 19.1054 20.6842C19.1054 20.2236 18.9224 19.7818 18.5966 19.4561C18.2709 19.1304 17.8292 18.9474 17.3685 18.9474C16.9079 18.9474 16.4661 19.1304 16.1404 19.4561C15.8147 19.7818 15.6317 20.2236 15.6317 20.6842C15.6317 21.1449 15.8147 21.5867 16.1404 21.9124C16.4661 22.2381 16.9079 22.4211 17.3685 22.4211ZM8.10536 22.4211C8.566 22.4211 9.00777 22.2381 9.33349 21.9124C9.65921 21.5867 9.8422 21.1449 9.8422 20.6842C9.8422 20.2236 9.65921 19.7818 9.33349 19.4561C9.00777 19.1304 8.566 18.9474 8.10536 18.9474C7.64472 18.9474 7.20295 19.1304 6.87723 19.4561C6.55151 19.7818 6.36852 20.2236 6.36852 20.6842C6.36852 21.1449 6.55151 21.5867 6.87723 21.9124C7.20295 22.2381 7.64472 22.4211 8.10536 22.4211Z" stroke="#2B2B2B" stroke-width="1.73684" stroke-linecap="round" stroke-linejoin="round"/>
</svg>
